M48
; DRILL file {KiCad (6.0.10)} date Mi 18 Jan 2023 01:33:48 CET
; FORMAT={-:-/ absolute / metric / decimal}
; #@! TF.CreationDate,2023-01-18T01:33:48+01:00
; #@! TF.GenerationSoftware,Kicad,Pcbnew,(6.0.10)
; #@! TF.FileFunction,Plated,1,2,PTH
FMAT,2
METRIC
; #@! TA.AperFunction,Plated,PTH,ViaDrill
T1C0.400
; #@! TA.AperFunction,Plated,PTH,ComponentDrill
T2C0.700
; #@! TA.AperFunction,Plated,PTH,ComponentDrill
T3C1.000
%
G90
G05
T1
X103.124Y-88.646
X105.156Y-80.264
X106.934Y-87.884
X108.204Y-84.582
X109.474Y-80.772
X109.728Y-89.916
X111.76Y-76.962
X118.364Y-96.52
X118.618Y-84.328
X119.126Y-76.708
X121.666Y-90.678
X121.92Y-85.598
X122.428Y-88.138
X122.936Y-72.898
X123.698Y-81.915
X123.952Y-87.122
X124.714Y-75.692
X125.73Y-90.678
X125.984Y-79.502
X126.492Y-88.138
X126.746Y-81.788
X127.254Y-90.069
X128.016Y-80.264
X128.016Y-85.09
X128.778Y-87.63
X129.032Y-91.694
X129.54Y-84.836
X129.794Y-75.692
X130.429Y-79.502
X131.064Y-87.63
X131.064Y-92.964
X131.318Y-85.344
X131.572Y-77.216
X131.572Y-83.82
X131.826Y-86.614
X134.112Y-85.852
X134.62Y-84.836
X136.652Y-89.662
X136.652Y-93.98
X136.906Y-86.36
X137.16Y-82.296
X137.414Y-76.2
X137.668Y-90.17
X137.922Y-94.742
X138.938Y-90.932
X139.319Y-86.36
X139.446Y-81.534
X139.7Y-84.836
X141.351Y-80.645
X142.113Y-75.565
X142.748Y-93.726
X144.018Y-76.454
X144.018Y-91.567
X145.288Y-96.012
X145.923Y-90.297
X146.05Y-77.47
X146.558Y-88.9
X148.082Y-91.567
X149.733Y-90.297
X149.86Y-82.804
X155.956Y-79.502
X160.528Y-80.772
X165.354Y-88.9
T2
X112.51Y-73.181
X117.36Y-73.181
T3
X125.73Y-70.485
X125.73Y-73.025
X128.27Y-70.485
X128.27Y-73.025
X130.81Y-70.485
X130.81Y-73.025
X136.54Y-70.49
X136.54Y-73.03
X139.08Y-70.49
X139.08Y-73.03
X141.62Y-70.49
X141.62Y-73.03
T2
X111.31Y-70.301G85X111.31Y-70.701
G05
X118.56Y-70.301G85X118.56Y-70.701
G05
T0
M30
