G04 #@! TF.GenerationSoftware,KiCad,Pcbnew,(6.0.10)*
G04 #@! TF.CreationDate,2023-01-18T01:33:26+01:00*
G04 #@! TF.ProjectId,hwpuzzle,68777075-7a7a-46c6-952e-6b696361645f,0.1*
G04 #@! TF.SameCoordinates,Original*
G04 #@! TF.FileFunction,Legend,Top*
G04 #@! TF.FilePolarity,Positive*
%FSLAX46Y46*%
G04 Gerber Fmt 4.6, Leading zero omitted, Abs format (unit mm)*
G04 Created by KiCad (PCBNEW (6.0.10)) date 2023-01-18 01:33:26*
%MOMM*%
%LPD*%
G01*
G04 APERTURE LIST*
G04 Aperture macros list*
%AMRoundRect*
0 Rectangle with rounded corners*
0 $1 Rounding radius*
0 $2 $3 $4 $5 $6 $7 $8 $9 X,Y pos of 4 corners*
0 Add a 4 corners polygon primitive as box body*
4,1,4,$2,$3,$4,$5,$6,$7,$8,$9,$2,$3,0*
0 Add four circle primitives for the rounded corners*
1,1,$1+$1,$2,$3*
1,1,$1+$1,$4,$5*
1,1,$1+$1,$6,$7*
1,1,$1+$1,$8,$9*
0 Add four rect primitives between the rounded corners*
20,1,$1+$1,$2,$3,$4,$5,0*
20,1,$1+$1,$4,$5,$6,$7,0*
20,1,$1+$1,$6,$7,$8,$9,0*
20,1,$1+$1,$8,$9,$2,$3,0*%
%AMFreePoly0*
4,1,14,0.334644,0.085355,0.385355,0.034644,0.400000,-0.000711,0.400000,-0.050000,0.385355,-0.085355,0.350000,-0.100000,-0.350000,-0.100000,-0.385355,-0.085355,-0.400000,-0.050000,-0.400000,0.050000,-0.385355,0.085355,-0.350000,0.100000,0.299289,0.100000,0.334644,0.085355,0.334644,0.085355,$1*%
%AMFreePoly1*
4,1,14,0.385355,0.085355,0.400000,0.050000,0.400000,0.000711,0.385355,-0.034644,0.334644,-0.085355,0.299289,-0.100000,-0.350000,-0.100000,-0.385355,-0.085355,-0.400000,-0.050000,-0.400000,0.050000,-0.385355,0.085355,-0.350000,0.100000,0.350000,0.100000,0.385355,0.085355,0.385355,0.085355,$1*%
%AMFreePoly2*
4,1,14,0.085355,0.385355,0.100000,0.350000,0.100000,-0.350000,0.085355,-0.385355,0.050000,-0.400000,-0.050000,-0.400000,-0.085355,-0.385355,-0.100000,-0.350000,-0.100000,0.299289,-0.085355,0.334644,-0.034644,0.385355,0.000711,0.400000,0.050000,0.400000,0.085355,0.385355,0.085355,0.385355,$1*%
%AMFreePoly3*
4,1,14,0.034644,0.385355,0.085355,0.334644,0.100000,0.299289,0.100000,-0.350000,0.085355,-0.385355,0.050000,-0.400000,-0.050000,-0.400000,-0.085355,-0.385355,-0.100000,-0.350000,-0.100000,0.350000,-0.085355,0.385355,-0.050000,0.400000,-0.000711,0.400000,0.034644,0.385355,0.034644,0.385355,$1*%
%AMFreePoly4*
4,1,14,0.385355,0.085355,0.400000,0.050000,0.400000,-0.050000,0.385355,-0.085355,0.350000,-0.100000,-0.299289,-0.100000,-0.334644,-0.085355,-0.385355,-0.034644,-0.400000,0.000711,-0.400000,0.050000,-0.385355,0.085355,-0.350000,0.100000,0.350000,0.100000,0.385355,0.085355,0.385355,0.085355,$1*%
%AMFreePoly5*
4,1,14,0.385355,0.085355,0.400000,0.050000,0.400000,-0.050000,0.385355,-0.085355,0.350000,-0.100000,-0.350000,-0.100000,-0.385355,-0.085355,-0.400000,-0.050000,-0.400000,-0.000711,-0.385355,0.034644,-0.334644,0.085355,-0.299289,0.100000,0.350000,0.100000,0.385355,0.085355,0.385355,0.085355,$1*%
%AMFreePoly6*
4,1,14,0.085355,0.385355,0.100000,0.350000,0.100000,-0.299289,0.085355,-0.334644,0.034644,-0.385355,-0.000711,-0.400000,-0.050000,-0.400000,-0.085355,-0.385355,-0.100000,-0.350000,-0.100000,0.350000,-0.085355,0.385355,-0.050000,0.400000,0.050000,0.400000,0.085355,0.385355,0.085355,0.385355,$1*%
%AMFreePoly7*
4,1,14,0.085355,0.385355,0.100000,0.350000,0.100000,-0.350000,0.085355,-0.385355,0.050000,-0.400000,0.000711,-0.400000,-0.034644,-0.385355,-0.085355,-0.334644,-0.100000,-0.299289,-0.100000,0.350000,-0.085355,0.385355,-0.050000,0.400000,0.050000,0.400000,0.085355,0.385355,0.085355,0.385355,$1*%
G04 Aperture macros list end*
%ADD10C,0.150000*%
%ADD11C,0.120000*%
%ADD12R,1.700000X1.000000*%
%ADD13RoundRect,0.218750X0.218750X0.256250X-0.218750X0.256250X-0.218750X-0.256250X0.218750X-0.256250X0*%
%ADD14RoundRect,0.135000X-0.135000X-0.185000X0.135000X-0.185000X0.135000X0.185000X-0.135000X0.185000X0*%
%ADD15RoundRect,0.140000X0.170000X-0.140000X0.170000X0.140000X-0.170000X0.140000X-0.170000X-0.140000X0*%
%ADD16RoundRect,0.218750X-0.218750X-0.256250X0.218750X-0.256250X0.218750X0.256250X-0.218750X0.256250X0*%
%ADD17RoundRect,0.135000X0.185000X-0.135000X0.185000X0.135000X-0.185000X0.135000X-0.185000X-0.135000X0*%
%ADD18RoundRect,0.135000X0.135000X0.185000X-0.135000X0.185000X-0.135000X-0.185000X0.135000X-0.185000X0*%
%ADD19C,1.000000*%
%ADD20R,0.400000X1.600000*%
%ADD21C,1.300000*%
%ADD22R,1.500000X1.000000*%
%ADD23O,1.300000X1.700000*%
%ADD24RoundRect,0.150000X-0.587500X-0.150000X0.587500X-0.150000X0.587500X0.150000X-0.587500X0.150000X0*%
%ADD25RoundRect,0.100000X0.100000X-0.637500X0.100000X0.637500X-0.100000X0.637500X-0.100000X-0.637500X0*%
%ADD26RoundRect,0.140000X-0.170000X0.140000X-0.170000X-0.140000X0.170000X-0.140000X0.170000X0.140000X0*%
%ADD27R,1.700000X1.700000*%
%ADD28O,1.700000X1.700000*%
%ADD29FreePoly0,0.000000*%
%ADD30RoundRect,0.050000X-0.350000X-0.050000X0.350000X-0.050000X0.350000X0.050000X-0.350000X0.050000X0*%
%ADD31FreePoly1,0.000000*%
%ADD32FreePoly2,0.000000*%
%ADD33RoundRect,0.050000X-0.050000X-0.350000X0.050000X-0.350000X0.050000X0.350000X-0.050000X0.350000X0*%
%ADD34FreePoly3,0.000000*%
%ADD35FreePoly4,0.000000*%
%ADD36FreePoly5,0.000000*%
%ADD37FreePoly6,0.000000*%
%ADD38FreePoly7,0.000000*%
%ADD39RoundRect,0.150000X-0.675000X-0.150000X0.675000X-0.150000X0.675000X0.150000X-0.675000X0.150000X0*%
%ADD40RoundRect,0.140000X-0.140000X-0.170000X0.140000X-0.170000X0.140000X0.170000X-0.140000X0.170000X0*%
%ADD41R,0.800000X1.000000*%
%ADD42C,0.900000*%
%ADD43R,1.500000X0.700000*%
G04 APERTURE END LIST*
D10*
X146994523Y-81097380D02*
X146661190Y-80621190D01*
X146423095Y-81097380D02*
X146423095Y-80097380D01*
X146804047Y-80097380D01*
X146899285Y-80145000D01*
X146946904Y-80192619D01*
X146994523Y-80287857D01*
X146994523Y-80430714D01*
X146946904Y-80525952D01*
X146899285Y-80573571D01*
X146804047Y-80621190D01*
X146423095Y-80621190D01*
X156471904Y-89670000D02*
X156376666Y-89622380D01*
X156233809Y-89622380D01*
X156090952Y-89670000D01*
X155995714Y-89765238D01*
X155948095Y-89860476D01*
X155900476Y-90050952D01*
X155900476Y-90193809D01*
X155948095Y-90384285D01*
X155995714Y-90479523D01*
X156090952Y-90574761D01*
X156233809Y-90622380D01*
X156329047Y-90622380D01*
X156471904Y-90574761D01*
X156519523Y-90527142D01*
X156519523Y-90193809D01*
X156329047Y-90193809D01*
X165735000Y-80621190D02*
X165735000Y-81097380D01*
X165401666Y-80097380D02*
X165735000Y-80621190D01*
X166068333Y-80097380D01*
X151201428Y-71048571D02*
X151344285Y-71096190D01*
X151391904Y-71143809D01*
X151439523Y-71239047D01*
X151439523Y-71381904D01*
X151391904Y-71477142D01*
X151344285Y-71524761D01*
X151249047Y-71572380D01*
X150868095Y-71572380D01*
X150868095Y-70572380D01*
X151201428Y-70572380D01*
X151296666Y-70620000D01*
X151344285Y-70667619D01*
X151391904Y-70762857D01*
X151391904Y-70858095D01*
X151344285Y-70953333D01*
X151296666Y-71000952D01*
X151201428Y-71048571D01*
X150868095Y-71048571D01*
X160052142Y-94897380D02*
X160052142Y-93897380D01*
X160480714Y-94897380D02*
X160480714Y-94373571D01*
X160433095Y-94278333D01*
X160337857Y-94230714D01*
X160195000Y-94230714D01*
X160099761Y-94278333D01*
X160052142Y-94325952D01*
X160861666Y-94230714D02*
X161052142Y-94897380D01*
X161242619Y-94421190D01*
X161433095Y-94897380D01*
X161623571Y-94230714D01*
X162004523Y-94230714D02*
X162004523Y-95230714D01*
X162004523Y-94278333D02*
X162099761Y-94230714D01*
X162290238Y-94230714D01*
X162385476Y-94278333D01*
X162433095Y-94325952D01*
X162480714Y-94421190D01*
X162480714Y-94706904D01*
X162433095Y-94802142D01*
X162385476Y-94849761D01*
X162290238Y-94897380D01*
X162099761Y-94897380D01*
X162004523Y-94849761D01*
X163337857Y-94230714D02*
X163337857Y-94897380D01*
X162909285Y-94230714D02*
X162909285Y-94754523D01*
X162956904Y-94849761D01*
X163052142Y-94897380D01*
X163195000Y-94897380D01*
X163290238Y-94849761D01*
X163337857Y-94802142D01*
X163718809Y-94230714D02*
X164242619Y-94230714D01*
X163718809Y-94897380D01*
X164242619Y-94897380D01*
X164528333Y-94230714D02*
X165052142Y-94230714D01*
X164528333Y-94897380D01*
X165052142Y-94897380D01*
X165575952Y-94897380D02*
X165480714Y-94849761D01*
X165433095Y-94754523D01*
X165433095Y-93897380D01*
X166337857Y-94849761D02*
X166242619Y-94897380D01*
X166052142Y-94897380D01*
X165956904Y-94849761D01*
X165909285Y-94754523D01*
X165909285Y-94373571D01*
X165956904Y-94278333D01*
X166052142Y-94230714D01*
X166242619Y-94230714D01*
X166337857Y-94278333D01*
X166385476Y-94373571D01*
X166385476Y-94468809D01*
X165909285Y-94564047D01*
X159123571Y-96507380D02*
X159123571Y-95507380D01*
X159123571Y-95888333D02*
X159218809Y-95840714D01*
X159409285Y-95840714D01*
X159504523Y-95888333D01*
X159552142Y-95935952D01*
X159599761Y-96031190D01*
X159599761Y-96316904D01*
X159552142Y-96412142D01*
X159504523Y-96459761D01*
X159409285Y-96507380D01*
X159218809Y-96507380D01*
X159123571Y-96459761D01*
X160456904Y-95840714D02*
X160456904Y-96507380D01*
X160028333Y-95840714D02*
X160028333Y-96364523D01*
X160075952Y-96459761D01*
X160171190Y-96507380D01*
X160314047Y-96507380D01*
X160409285Y-96459761D01*
X160456904Y-96412142D01*
X161361666Y-96459761D02*
X161266428Y-96507380D01*
X161075952Y-96507380D01*
X160980714Y-96459761D01*
X160933095Y-96412142D01*
X160885476Y-96316904D01*
X160885476Y-96031190D01*
X160933095Y-95935952D01*
X160980714Y-95888333D01*
X161075952Y-95840714D01*
X161266428Y-95840714D01*
X161361666Y-95888333D01*
X161790238Y-96507380D02*
X161790238Y-95507380D01*
X161885476Y-96126428D02*
X162171190Y-96507380D01*
X162171190Y-95840714D02*
X161790238Y-96221666D01*
X162599761Y-96507380D02*
X162599761Y-95507380D01*
X162695000Y-96126428D02*
X162980714Y-96507380D01*
X162980714Y-95840714D02*
X162599761Y-96221666D01*
X163790238Y-96459761D02*
X163695000Y-96507380D01*
X163504523Y-96507380D01*
X163409285Y-96459761D01*
X163361666Y-96364523D01*
X163361666Y-95983571D01*
X163409285Y-95888333D01*
X163504523Y-95840714D01*
X163695000Y-95840714D01*
X163790238Y-95888333D01*
X163837857Y-95983571D01*
X163837857Y-96078809D01*
X163361666Y-96174047D01*
X164123571Y-95840714D02*
X164504523Y-95840714D01*
X164266428Y-95507380D02*
X164266428Y-96364523D01*
X164314047Y-96459761D01*
X164409285Y-96507380D01*
X164504523Y-96507380D01*
X164837857Y-96412142D02*
X164885476Y-96459761D01*
X164837857Y-96507380D01*
X164790238Y-96459761D01*
X164837857Y-96412142D01*
X164837857Y-96507380D01*
X165456904Y-96507380D02*
X165361666Y-96459761D01*
X165314047Y-96412142D01*
X165266428Y-96316904D01*
X165266428Y-96031190D01*
X165314047Y-95935952D01*
X165361666Y-95888333D01*
X165456904Y-95840714D01*
X165599761Y-95840714D01*
X165695000Y-95888333D01*
X165742619Y-95935952D01*
X165790238Y-96031190D01*
X165790238Y-96316904D01*
X165742619Y-96412142D01*
X165695000Y-96459761D01*
X165599761Y-96507380D01*
X165456904Y-96507380D01*
X166218809Y-96507380D02*
X166218809Y-95840714D01*
X166218809Y-96031190D02*
X166266428Y-95935952D01*
X166314047Y-95888333D01*
X166409285Y-95840714D01*
X166504523Y-95840714D01*
X167266428Y-95840714D02*
X167266428Y-96650238D01*
X167218809Y-96745476D01*
X167171190Y-96793095D01*
X167075952Y-96840714D01*
X166933095Y-96840714D01*
X166837857Y-96793095D01*
X167266428Y-96459761D02*
X167171190Y-96507380D01*
X166980714Y-96507380D01*
X166885476Y-96459761D01*
X166837857Y-96412142D01*
X166790238Y-96316904D01*
X166790238Y-96031190D01*
X166837857Y-95935952D01*
X166885476Y-95888333D01*
X166980714Y-95840714D01*
X167171190Y-95840714D01*
X167266428Y-95888333D01*
X111577619Y-91130380D02*
X111244285Y-90654190D01*
X111006190Y-91130380D02*
X111006190Y-90130380D01*
X111387142Y-90130380D01*
X111482380Y-90178000D01*
X111530000Y-90225619D01*
X111577619Y-90320857D01*
X111577619Y-90463714D01*
X111530000Y-90558952D01*
X111482380Y-90606571D01*
X111387142Y-90654190D01*
X111006190Y-90654190D01*
X112006190Y-90606571D02*
X112339523Y-90606571D01*
X112482380Y-91130380D02*
X112006190Y-91130380D01*
X112006190Y-90130380D01*
X112482380Y-90130380D01*
X112863333Y-91082761D02*
X113006190Y-91130380D01*
X113244285Y-91130380D01*
X113339523Y-91082761D01*
X113387142Y-91035142D01*
X113434761Y-90939904D01*
X113434761Y-90844666D01*
X113387142Y-90749428D01*
X113339523Y-90701809D01*
X113244285Y-90654190D01*
X113053809Y-90606571D01*
X112958571Y-90558952D01*
X112910952Y-90511333D01*
X112863333Y-90416095D01*
X112863333Y-90320857D01*
X112910952Y-90225619D01*
X112958571Y-90178000D01*
X113053809Y-90130380D01*
X113291904Y-90130380D01*
X113434761Y-90178000D01*
X113863333Y-90606571D02*
X114196666Y-90606571D01*
X114339523Y-91130380D02*
X113863333Y-91130380D01*
X113863333Y-90130380D01*
X114339523Y-90130380D01*
X114625238Y-90130380D02*
X115196666Y-90130380D01*
X114910952Y-91130380D02*
X114910952Y-90130380D01*
X105084761Y-77557380D02*
X105084761Y-78366904D01*
X105132380Y-78462142D01*
X105180000Y-78509761D01*
X105275238Y-78557380D01*
X105465714Y-78557380D01*
X105560952Y-78509761D01*
X105608571Y-78462142D01*
X105656190Y-78366904D01*
X105656190Y-77557380D01*
X106084761Y-78271666D02*
X106560952Y-78271666D01*
X105989523Y-78557380D02*
X106322857Y-77557380D01*
X106656190Y-78557380D01*
X107560952Y-78557380D02*
X107227619Y-78081190D01*
X106989523Y-78557380D02*
X106989523Y-77557380D01*
X107370476Y-77557380D01*
X107465714Y-77605000D01*
X107513333Y-77652619D01*
X107560952Y-77747857D01*
X107560952Y-77890714D01*
X107513333Y-77985952D01*
X107465714Y-78033571D01*
X107370476Y-78081190D01*
X106989523Y-78081190D01*
X107846666Y-77557380D02*
X108418095Y-77557380D01*
X108132380Y-78557380D02*
X108132380Y-77557380D01*
X104090813Y-88352380D02*
X104662241Y-88352380D01*
X104376527Y-89352380D02*
X104376527Y-88352380D01*
X104900337Y-88352380D02*
X105567003Y-89352380D01*
X105567003Y-88352380D02*
X104900337Y-89352380D01*
X104686051Y-93797380D02*
X104352718Y-93321190D01*
X104114622Y-93797380D02*
X104114622Y-92797380D01*
X104495575Y-92797380D01*
X104590813Y-92845000D01*
X104638432Y-92892619D01*
X104686051Y-92987857D01*
X104686051Y-93130714D01*
X104638432Y-93225952D01*
X104590813Y-93273571D01*
X104495575Y-93321190D01*
X104114622Y-93321190D01*
X105019384Y-92797380D02*
X105686051Y-93797380D01*
X105686051Y-92797380D02*
X105019384Y-93797380D01*
X103067003Y-84907380D02*
X103067003Y-83907380D01*
X103447956Y-83907380D01*
X103543194Y-83955000D01*
X103590813Y-84002619D01*
X103638432Y-84097857D01*
X103638432Y-84240714D01*
X103590813Y-84335952D01*
X103543194Y-84383571D01*
X103447956Y-84431190D01*
X103067003Y-84431190D01*
X104638432Y-84907380D02*
X104305098Y-84431190D01*
X104067003Y-84907380D02*
X104067003Y-83907380D01*
X104447956Y-83907380D01*
X104543194Y-83955000D01*
X104590813Y-84002619D01*
X104638432Y-84097857D01*
X104638432Y-84240714D01*
X104590813Y-84335952D01*
X104543194Y-84383571D01*
X104447956Y-84431190D01*
X104067003Y-84431190D01*
X105257479Y-83907380D02*
X105447956Y-83907380D01*
X105543194Y-83955000D01*
X105638432Y-84050238D01*
X105686051Y-84240714D01*
X105686051Y-84574047D01*
X105638432Y-84764523D01*
X105543194Y-84859761D01*
X105447956Y-84907380D01*
X105257479Y-84907380D01*
X105162241Y-84859761D01*
X105067003Y-84764523D01*
X105019384Y-84574047D01*
X105019384Y-84240714D01*
X105067003Y-84050238D01*
X105162241Y-83955000D01*
X105257479Y-83907380D01*
X106638432Y-83955000D02*
X106543194Y-83907380D01*
X106400337Y-83907380D01*
X106257479Y-83955000D01*
X106162241Y-84050238D01*
X106114622Y-84145476D01*
X106067003Y-84335952D01*
X106067003Y-84478809D01*
X106114622Y-84669285D01*
X106162241Y-84764523D01*
X106257479Y-84859761D01*
X106400337Y-84907380D01*
X106495575Y-84907380D01*
X106638432Y-84859761D01*
X106686051Y-84812142D01*
X106686051Y-84478809D01*
X106495575Y-84478809D01*
X105013333Y-75096666D02*
X105489523Y-75096666D01*
X104918095Y-75382380D02*
X105251428Y-74382380D01*
X105584761Y-75382380D01*
X105918095Y-74382380D02*
X105918095Y-75191904D01*
X105965714Y-75287142D01*
X106013333Y-75334761D01*
X106108571Y-75382380D01*
X106299047Y-75382380D01*
X106394285Y-75334761D01*
X106441904Y-75287142D01*
X106489523Y-75191904D01*
X106489523Y-74382380D01*
X106822857Y-74382380D02*
X107394285Y-74382380D01*
X107108571Y-75382380D02*
X107108571Y-74382380D01*
X107918095Y-74382380D02*
X108108571Y-74382380D01*
X108203809Y-74430000D01*
X108299047Y-74525238D01*
X108346666Y-74715714D01*
X108346666Y-75049047D01*
X108299047Y-75239523D01*
X108203809Y-75334761D01*
X108108571Y-75382380D01*
X107918095Y-75382380D01*
X107822857Y-75334761D01*
X107727619Y-75239523D01*
X107680000Y-75049047D01*
X107680000Y-74715714D01*
X107727619Y-74525238D01*
X107822857Y-74430000D01*
X107918095Y-74382380D01*
X122586904Y-90844666D02*
X123063095Y-90844666D01*
X122491666Y-91130380D02*
X122825000Y-90130380D01*
X123158333Y-91130380D01*
X124063095Y-91035142D02*
X124015476Y-91082761D01*
X123872619Y-91130380D01*
X123777380Y-91130380D01*
X123634523Y-91082761D01*
X123539285Y-90987523D01*
X123491666Y-90892285D01*
X123444047Y-90701809D01*
X123444047Y-90558952D01*
X123491666Y-90368476D01*
X123539285Y-90273238D01*
X123634523Y-90178000D01*
X123777380Y-90130380D01*
X123872619Y-90130380D01*
X124015476Y-90178000D01*
X124063095Y-90225619D01*
X124491666Y-91130380D02*
X124491666Y-90130380D01*
X125063095Y-91130380D02*
X124634523Y-90558952D01*
X125063095Y-90130380D02*
X124491666Y-90701809D01*
X105156190Y-71207380D02*
X105156190Y-72016904D01*
X105203809Y-72112142D01*
X105251428Y-72159761D01*
X105346666Y-72207380D01*
X105537142Y-72207380D01*
X105632380Y-72159761D01*
X105680000Y-72112142D01*
X105727619Y-72016904D01*
X105727619Y-71207380D01*
X106203809Y-72207380D02*
X106203809Y-71207380D01*
X106584761Y-71207380D01*
X106680000Y-71255000D01*
X106727619Y-71302619D01*
X106775238Y-71397857D01*
X106775238Y-71540714D01*
X106727619Y-71635952D01*
X106680000Y-71683571D01*
X106584761Y-71731190D01*
X106203809Y-71731190D01*
X107203809Y-72207380D02*
X107203809Y-71207380D01*
X107441904Y-71207380D01*
X107584761Y-71255000D01*
X107680000Y-71350238D01*
X107727619Y-71445476D01*
X107775238Y-71635952D01*
X107775238Y-71778809D01*
X107727619Y-71969285D01*
X107680000Y-72064523D01*
X107584761Y-72159761D01*
X107441904Y-72207380D01*
X107203809Y-72207380D01*
X108203809Y-72207380D02*
X108203809Y-71207380D01*
X122491666Y-94892761D02*
X122634523Y-94940380D01*
X122872619Y-94940380D01*
X122967857Y-94892761D01*
X123015476Y-94845142D01*
X123063095Y-94749904D01*
X123063095Y-94654666D01*
X123015476Y-94559428D01*
X122967857Y-94511809D01*
X122872619Y-94464190D01*
X122682142Y-94416571D01*
X122586904Y-94368952D01*
X122539285Y-94321333D01*
X122491666Y-94226095D01*
X122491666Y-94130857D01*
X122539285Y-94035619D01*
X122586904Y-93988000D01*
X122682142Y-93940380D01*
X122920238Y-93940380D01*
X123063095Y-93988000D01*
X123396428Y-93940380D02*
X123634523Y-94940380D01*
X123825000Y-94226095D01*
X124015476Y-94940380D01*
X124253571Y-93940380D01*
X124539285Y-93940380D02*
X125205952Y-93940380D01*
X124777380Y-94940380D01*
X106703904Y-95702380D02*
X106703904Y-94702380D01*
X106942000Y-94702380D01*
X107084857Y-94750000D01*
X107180095Y-94845238D01*
X107227714Y-94940476D01*
X107275333Y-95130952D01*
X107275333Y-95273809D01*
X107227714Y-95464285D01*
X107180095Y-95559523D01*
X107084857Y-95654761D01*
X106942000Y-95702380D01*
X106703904Y-95702380D01*
X107846761Y-95130952D02*
X107751523Y-95083333D01*
X107703904Y-95035714D01*
X107656285Y-94940476D01*
X107656285Y-94892857D01*
X107703904Y-94797619D01*
X107751523Y-94750000D01*
X107846761Y-94702380D01*
X108037238Y-94702380D01*
X108132476Y-94750000D01*
X108180095Y-94797619D01*
X108227714Y-94892857D01*
X108227714Y-94940476D01*
X108180095Y-95035714D01*
X108132476Y-95083333D01*
X108037238Y-95130952D01*
X107846761Y-95130952D01*
X107751523Y-95178571D01*
X107703904Y-95226190D01*
X107656285Y-95321428D01*
X107656285Y-95511904D01*
X107703904Y-95607142D01*
X107751523Y-95654761D01*
X107846761Y-95702380D01*
X108037238Y-95702380D01*
X108132476Y-95654761D01*
X108180095Y-95607142D01*
X108227714Y-95511904D01*
X108227714Y-95321428D01*
X108180095Y-95226190D01*
X108132476Y-95178571D01*
X108037238Y-95130952D01*
X120229333Y-88844380D02*
X119896000Y-88368190D01*
X119657904Y-88844380D02*
X119657904Y-87844380D01*
X120038857Y-87844380D01*
X120134095Y-87892000D01*
X120181714Y-87939619D01*
X120229333Y-88034857D01*
X120229333Y-88177714D01*
X120181714Y-88272952D01*
X120134095Y-88320571D01*
X120038857Y-88368190D01*
X119657904Y-88368190D01*
X121086476Y-87844380D02*
X120896000Y-87844380D01*
X120800761Y-87892000D01*
X120753142Y-87939619D01*
X120657904Y-88082476D01*
X120610285Y-88272952D01*
X120610285Y-88653904D01*
X120657904Y-88749142D01*
X120705523Y-88796761D01*
X120800761Y-88844380D01*
X120991238Y-88844380D01*
X121086476Y-88796761D01*
X121134095Y-88749142D01*
X121181714Y-88653904D01*
X121181714Y-88415809D01*
X121134095Y-88320571D01*
X121086476Y-88272952D01*
X120991238Y-88225333D01*
X120800761Y-88225333D01*
X120705523Y-88272952D01*
X120657904Y-88320571D01*
X120610285Y-88415809D01*
X142989666Y-85499761D02*
X143132523Y-85547380D01*
X143370619Y-85547380D01*
X143465857Y-85499761D01*
X143513476Y-85452142D01*
X143561095Y-85356904D01*
X143561095Y-85261666D01*
X143513476Y-85166428D01*
X143465857Y-85118809D01*
X143370619Y-85071190D01*
X143180142Y-85023571D01*
X143084904Y-84975952D01*
X143037285Y-84928333D01*
X142989666Y-84833095D01*
X142989666Y-84737857D01*
X143037285Y-84642619D01*
X143084904Y-84595000D01*
X143180142Y-84547380D01*
X143418238Y-84547380D01*
X143561095Y-84595000D01*
X143894428Y-84547380D02*
X144132523Y-85547380D01*
X144323000Y-84833095D01*
X144513476Y-85547380D01*
X144751571Y-84547380D01*
X145608714Y-84547380D02*
X145132523Y-84547380D01*
X145084904Y-85023571D01*
X145132523Y-84975952D01*
X145227761Y-84928333D01*
X145465857Y-84928333D01*
X145561095Y-84975952D01*
X145608714Y-85023571D01*
X145656333Y-85118809D01*
X145656333Y-85356904D01*
X145608714Y-85452142D01*
X145561095Y-85499761D01*
X145465857Y-85547380D01*
X145227761Y-85547380D01*
X145132523Y-85499761D01*
X145084904Y-85452142D01*
X121007142Y-82716666D02*
X121054761Y-82764285D01*
X121102380Y-82907142D01*
X121102380Y-83002380D01*
X121054761Y-83145238D01*
X120959523Y-83240476D01*
X120864285Y-83288095D01*
X120673809Y-83335714D01*
X120530952Y-83335714D01*
X120340476Y-83288095D01*
X120245238Y-83240476D01*
X120150000Y-83145238D01*
X120102380Y-83002380D01*
X120102380Y-82907142D01*
X120150000Y-82764285D01*
X120197619Y-82716666D01*
X121102380Y-81764285D02*
X121102380Y-82335714D01*
X121102380Y-82050000D02*
X120102380Y-82050000D01*
X120245238Y-82145238D01*
X120340476Y-82240476D01*
X120388095Y-82335714D01*
X162431904Y-79672380D02*
X162431904Y-78672380D01*
X162670000Y-78672380D01*
X162812857Y-78720000D01*
X162908095Y-78815238D01*
X162955714Y-78910476D01*
X163003333Y-79100952D01*
X163003333Y-79243809D01*
X162955714Y-79434285D01*
X162908095Y-79529523D01*
X162812857Y-79624761D01*
X162670000Y-79672380D01*
X162431904Y-79672380D01*
X163336666Y-78672380D02*
X163955714Y-78672380D01*
X163622380Y-79053333D01*
X163765238Y-79053333D01*
X163860476Y-79100952D01*
X163908095Y-79148571D01*
X163955714Y-79243809D01*
X163955714Y-79481904D01*
X163908095Y-79577142D01*
X163860476Y-79624761D01*
X163765238Y-79672380D01*
X163479523Y-79672380D01*
X163384285Y-79624761D01*
X163336666Y-79577142D01*
X145661142Y-95072380D02*
X145327809Y-94596190D01*
X145089714Y-95072380D02*
X145089714Y-94072380D01*
X145470666Y-94072380D01*
X145565904Y-94120000D01*
X145613523Y-94167619D01*
X145661142Y-94262857D01*
X145661142Y-94405714D01*
X145613523Y-94500952D01*
X145565904Y-94548571D01*
X145470666Y-94596190D01*
X145089714Y-94596190D01*
X146613523Y-95072380D02*
X146042095Y-95072380D01*
X146327809Y-95072380D02*
X146327809Y-94072380D01*
X146232571Y-94215238D01*
X146137333Y-94310476D01*
X146042095Y-94358095D01*
X147232571Y-94072380D02*
X147327809Y-94072380D01*
X147423047Y-94120000D01*
X147470666Y-94167619D01*
X147518285Y-94262857D01*
X147565904Y-94453333D01*
X147565904Y-94691428D01*
X147518285Y-94881904D01*
X147470666Y-94977142D01*
X147423047Y-95024761D01*
X147327809Y-95072380D01*
X147232571Y-95072380D01*
X147137333Y-95024761D01*
X147089714Y-94977142D01*
X147042095Y-94881904D01*
X146994476Y-94691428D01*
X146994476Y-94453333D01*
X147042095Y-94262857D01*
X147089714Y-94167619D01*
X147137333Y-94120000D01*
X147232571Y-94072380D01*
X109593142Y-88870380D02*
X109259809Y-88394190D01*
X109021714Y-88870380D02*
X109021714Y-87870380D01*
X109402666Y-87870380D01*
X109497904Y-87918000D01*
X109545523Y-87965619D01*
X109593142Y-88060857D01*
X109593142Y-88203714D01*
X109545523Y-88298952D01*
X109497904Y-88346571D01*
X109402666Y-88394190D01*
X109021714Y-88394190D01*
X110545523Y-88870380D02*
X109974095Y-88870380D01*
X110259809Y-88870380D02*
X110259809Y-87870380D01*
X110164571Y-88013238D01*
X110069333Y-88108476D01*
X109974095Y-88156095D01*
X110926476Y-87965619D02*
X110974095Y-87918000D01*
X111069333Y-87870380D01*
X111307428Y-87870380D01*
X111402666Y-87918000D01*
X111450285Y-87965619D01*
X111497904Y-88060857D01*
X111497904Y-88156095D01*
X111450285Y-88298952D01*
X110878857Y-88870380D01*
X111497904Y-88870380D01*
X133612095Y-96988380D02*
X134183523Y-96988380D01*
X133897809Y-97988380D02*
X133897809Y-96988380D01*
X134516857Y-97988380D02*
X134516857Y-96988380D01*
X134897809Y-96988380D01*
X134993047Y-97036000D01*
X135040666Y-97083619D01*
X135088285Y-97178857D01*
X135088285Y-97321714D01*
X135040666Y-97416952D01*
X134993047Y-97464571D01*
X134897809Y-97512190D01*
X134516857Y-97512190D01*
X135469238Y-97083619D02*
X135516857Y-97036000D01*
X135612095Y-96988380D01*
X135850190Y-96988380D01*
X135945428Y-97036000D01*
X135993047Y-97083619D01*
X136040666Y-97178857D01*
X136040666Y-97274095D01*
X135993047Y-97416952D01*
X135421619Y-97988380D01*
X136040666Y-97988380D01*
X107148333Y-81197380D02*
X106815000Y-80721190D01*
X106576904Y-81197380D02*
X106576904Y-80197380D01*
X106957857Y-80197380D01*
X107053095Y-80245000D01*
X107100714Y-80292619D01*
X107148333Y-80387857D01*
X107148333Y-80530714D01*
X107100714Y-80625952D01*
X107053095Y-80673571D01*
X106957857Y-80721190D01*
X106576904Y-80721190D01*
X107481666Y-80197380D02*
X108148333Y-80197380D01*
X107719761Y-81197380D01*
X130389333Y-83288142D02*
X130341714Y-83335761D01*
X130198857Y-83383380D01*
X130103619Y-83383380D01*
X129960761Y-83335761D01*
X129865523Y-83240523D01*
X129817904Y-83145285D01*
X129770285Y-82954809D01*
X129770285Y-82811952D01*
X129817904Y-82621476D01*
X129865523Y-82526238D01*
X129960761Y-82431000D01*
X130103619Y-82383380D01*
X130198857Y-82383380D01*
X130341714Y-82431000D01*
X130389333Y-82478619D01*
X131246476Y-82716714D02*
X131246476Y-83383380D01*
X131008380Y-82335761D02*
X130770285Y-83050047D01*
X131389333Y-83050047D01*
X143584904Y-79672380D02*
X143584904Y-78672380D01*
X143823000Y-78672380D01*
X143965857Y-78720000D01*
X144061095Y-78815238D01*
X144108714Y-78910476D01*
X144156333Y-79100952D01*
X144156333Y-79243809D01*
X144108714Y-79434285D01*
X144061095Y-79529523D01*
X143965857Y-79624761D01*
X143823000Y-79672380D01*
X143584904Y-79672380D01*
X145061095Y-78672380D02*
X144584904Y-78672380D01*
X144537285Y-79148571D01*
X144584904Y-79100952D01*
X144680142Y-79053333D01*
X144918238Y-79053333D01*
X145013476Y-79100952D01*
X145061095Y-79148571D01*
X145108714Y-79243809D01*
X145108714Y-79481904D01*
X145061095Y-79577142D01*
X145013476Y-79624761D01*
X144918238Y-79672380D01*
X144680142Y-79672380D01*
X144584904Y-79624761D01*
X144537285Y-79577142D01*
X109593142Y-86206380D02*
X109259809Y-85730190D01*
X109021714Y-86206380D02*
X109021714Y-85206380D01*
X109402666Y-85206380D01*
X109497904Y-85254000D01*
X109545523Y-85301619D01*
X109593142Y-85396857D01*
X109593142Y-85539714D01*
X109545523Y-85634952D01*
X109497904Y-85682571D01*
X109402666Y-85730190D01*
X109021714Y-85730190D01*
X110545523Y-86206380D02*
X109974095Y-86206380D01*
X110259809Y-86206380D02*
X110259809Y-85206380D01*
X110164571Y-85349238D01*
X110069333Y-85444476D01*
X109974095Y-85492095D01*
X110878857Y-85206380D02*
X111497904Y-85206380D01*
X111164571Y-85587333D01*
X111307428Y-85587333D01*
X111402666Y-85634952D01*
X111450285Y-85682571D01*
X111497904Y-85777809D01*
X111497904Y-86015904D01*
X111450285Y-86111142D01*
X111402666Y-86158761D01*
X111307428Y-86206380D01*
X111021714Y-86206380D01*
X110926476Y-86158761D01*
X110878857Y-86111142D01*
X152906904Y-89197380D02*
X152906904Y-88197380D01*
X153145000Y-88197380D01*
X153287857Y-88245000D01*
X153383095Y-88340238D01*
X153430714Y-88435476D01*
X153478333Y-88625952D01*
X153478333Y-88768809D01*
X153430714Y-88959285D01*
X153383095Y-89054523D01*
X153287857Y-89149761D01*
X153145000Y-89197380D01*
X152906904Y-89197380D01*
X154335476Y-88530714D02*
X154335476Y-89197380D01*
X154097380Y-88149761D02*
X153859285Y-88864047D01*
X154478333Y-88864047D01*
X101034860Y-92427380D02*
X100701527Y-91951190D01*
X100463432Y-92427380D02*
X100463432Y-91427380D01*
X100844384Y-91427380D01*
X100939622Y-91475000D01*
X100987241Y-91522619D01*
X101034860Y-91617857D01*
X101034860Y-91760714D01*
X100987241Y-91855952D01*
X100939622Y-91903571D01*
X100844384Y-91951190D01*
X100463432Y-91951190D01*
X101987241Y-92427380D02*
X101415813Y-92427380D01*
X101701527Y-92427380D02*
X101701527Y-91427380D01*
X101606289Y-91570238D01*
X101511051Y-91665476D01*
X101415813Y-91713095D01*
X102892003Y-91427380D02*
X102415813Y-91427380D01*
X102368194Y-91903571D01*
X102415813Y-91855952D01*
X102511051Y-91808333D01*
X102749146Y-91808333D01*
X102844384Y-91855952D01*
X102892003Y-91903571D01*
X102939622Y-91998809D01*
X102939622Y-92236904D01*
X102892003Y-92332142D01*
X102844384Y-92379761D01*
X102749146Y-92427380D01*
X102511051Y-92427380D01*
X102415813Y-92379761D01*
X102368194Y-92332142D01*
X106703904Y-86812380D02*
X106703904Y-85812380D01*
X106942000Y-85812380D01*
X107084857Y-85860000D01*
X107180095Y-85955238D01*
X107227714Y-86050476D01*
X107275333Y-86240952D01*
X107275333Y-86383809D01*
X107227714Y-86574285D01*
X107180095Y-86669523D01*
X107084857Y-86764761D01*
X106942000Y-86812380D01*
X106703904Y-86812380D01*
X108132476Y-85812380D02*
X107942000Y-85812380D01*
X107846761Y-85860000D01*
X107799142Y-85907619D01*
X107703904Y-86050476D01*
X107656285Y-86240952D01*
X107656285Y-86621904D01*
X107703904Y-86717142D01*
X107751523Y-86764761D01*
X107846761Y-86812380D01*
X108037238Y-86812380D01*
X108132476Y-86764761D01*
X108180095Y-86717142D01*
X108227714Y-86621904D01*
X108227714Y-86383809D01*
X108180095Y-86288571D01*
X108132476Y-86240952D01*
X108037238Y-86193333D01*
X107846761Y-86193333D01*
X107751523Y-86240952D01*
X107703904Y-86288571D01*
X107656285Y-86383809D01*
X114601666Y-69453380D02*
X114601666Y-70167666D01*
X114554047Y-70310523D01*
X114458809Y-70405761D01*
X114315952Y-70453380D01*
X114220714Y-70453380D01*
X115601666Y-70453380D02*
X115030238Y-70453380D01*
X115315952Y-70453380D02*
X115315952Y-69453380D01*
X115220714Y-69596238D01*
X115125476Y-69691476D01*
X115030238Y-69739095D01*
X130389333Y-89765142D02*
X130341714Y-89812761D01*
X130198857Y-89860380D01*
X130103619Y-89860380D01*
X129960761Y-89812761D01*
X129865523Y-89717523D01*
X129817904Y-89622285D01*
X129770285Y-89431809D01*
X129770285Y-89288952D01*
X129817904Y-89098476D01*
X129865523Y-89003238D01*
X129960761Y-88908000D01*
X130103619Y-88860380D01*
X130198857Y-88860380D01*
X130341714Y-88908000D01*
X130389333Y-88955619D01*
X131294095Y-88860380D02*
X130817904Y-88860380D01*
X130770285Y-89336571D01*
X130817904Y-89288952D01*
X130913142Y-89241333D01*
X131151238Y-89241333D01*
X131246476Y-89288952D01*
X131294095Y-89336571D01*
X131341714Y-89431809D01*
X131341714Y-89669904D01*
X131294095Y-89765142D01*
X131246476Y-89812761D01*
X131151238Y-89860380D01*
X130913142Y-89860380D01*
X130817904Y-89812761D01*
X130770285Y-89765142D01*
X111696666Y-94892761D02*
X111839523Y-94940380D01*
X112077619Y-94940380D01*
X112172857Y-94892761D01*
X112220476Y-94845142D01*
X112268095Y-94749904D01*
X112268095Y-94654666D01*
X112220476Y-94559428D01*
X112172857Y-94511809D01*
X112077619Y-94464190D01*
X111887142Y-94416571D01*
X111791904Y-94368952D01*
X111744285Y-94321333D01*
X111696666Y-94226095D01*
X111696666Y-94130857D01*
X111744285Y-94035619D01*
X111791904Y-93988000D01*
X111887142Y-93940380D01*
X112125238Y-93940380D01*
X112268095Y-93988000D01*
X112601428Y-93940380D02*
X112839523Y-94940380D01*
X113030000Y-94226095D01*
X113220476Y-94940380D01*
X113458571Y-93940380D01*
X114268095Y-93940380D02*
X114077619Y-93940380D01*
X113982380Y-93988000D01*
X113934761Y-94035619D01*
X113839523Y-94178476D01*
X113791904Y-94368952D01*
X113791904Y-94749904D01*
X113839523Y-94845142D01*
X113887142Y-94892761D01*
X113982380Y-94940380D01*
X114172857Y-94940380D01*
X114268095Y-94892761D01*
X114315714Y-94845142D01*
X114363333Y-94749904D01*
X114363333Y-94511809D01*
X114315714Y-94416571D01*
X114268095Y-94368952D01*
X114172857Y-94321333D01*
X113982380Y-94321333D01*
X113887142Y-94368952D01*
X113839523Y-94416571D01*
X113791904Y-94511809D01*
X120229333Y-86304380D02*
X119896000Y-85828190D01*
X119657904Y-86304380D02*
X119657904Y-85304380D01*
X120038857Y-85304380D01*
X120134095Y-85352000D01*
X120181714Y-85399619D01*
X120229333Y-85494857D01*
X120229333Y-85637714D01*
X120181714Y-85732952D01*
X120134095Y-85780571D01*
X120038857Y-85828190D01*
X119657904Y-85828190D01*
X121181714Y-86304380D02*
X120610285Y-86304380D01*
X120896000Y-86304380D02*
X120896000Y-85304380D01*
X120800761Y-85447238D01*
X120705523Y-85542476D01*
X120610285Y-85590095D01*
X166060380Y-73826666D02*
X165584190Y-74160000D01*
X166060380Y-74398095D02*
X165060380Y-74398095D01*
X165060380Y-74017142D01*
X165108000Y-73921904D01*
X165155619Y-73874285D01*
X165250857Y-73826666D01*
X165393714Y-73826666D01*
X165488952Y-73874285D01*
X165536571Y-73921904D01*
X165584190Y-74017142D01*
X165584190Y-74398095D01*
X165060380Y-73493333D02*
X165060380Y-72874285D01*
X165441333Y-73207619D01*
X165441333Y-73064761D01*
X165488952Y-72969523D01*
X165536571Y-72921904D01*
X165631809Y-72874285D01*
X165869904Y-72874285D01*
X165965142Y-72921904D01*
X166012761Y-72969523D01*
X166060380Y-73064761D01*
X166060380Y-73350476D01*
X166012761Y-73445714D01*
X165965142Y-73493333D01*
X164536380Y-73826666D02*
X164060190Y-74160000D01*
X164536380Y-74398095D02*
X163536380Y-74398095D01*
X163536380Y-74017142D01*
X163584000Y-73921904D01*
X163631619Y-73874285D01*
X163726857Y-73826666D01*
X163869714Y-73826666D01*
X163964952Y-73874285D01*
X164012571Y-73921904D01*
X164060190Y-74017142D01*
X164060190Y-74398095D01*
X163869714Y-72969523D02*
X164536380Y-72969523D01*
X163488761Y-73207619D02*
X164203047Y-73445714D01*
X164203047Y-72826666D01*
X113815904Y-85174380D02*
X113815904Y-84174380D01*
X114054000Y-84174380D01*
X114196857Y-84222000D01*
X114292095Y-84317238D01*
X114339714Y-84412476D01*
X114387333Y-84602952D01*
X114387333Y-84745809D01*
X114339714Y-84936285D01*
X114292095Y-85031523D01*
X114196857Y-85126761D01*
X114054000Y-85174380D01*
X113815904Y-85174380D01*
X115339714Y-85174380D02*
X114768285Y-85174380D01*
X115054000Y-85174380D02*
X115054000Y-84174380D01*
X114958761Y-84317238D01*
X114863523Y-84412476D01*
X114768285Y-84460095D01*
X125730095Y-75398380D02*
X125730095Y-76207904D01*
X125777714Y-76303142D01*
X125825333Y-76350761D01*
X125920571Y-76398380D01*
X126111047Y-76398380D01*
X126206285Y-76350761D01*
X126253904Y-76303142D01*
X126301523Y-76207904D01*
X126301523Y-75398380D01*
X126730095Y-75493619D02*
X126777714Y-75446000D01*
X126872952Y-75398380D01*
X127111047Y-75398380D01*
X127206285Y-75446000D01*
X127253904Y-75493619D01*
X127301523Y-75588857D01*
X127301523Y-75684095D01*
X127253904Y-75826952D01*
X126682476Y-76398380D01*
X127301523Y-76398380D01*
X152311666Y-75974761D02*
X152454523Y-76022380D01*
X152692619Y-76022380D01*
X152787857Y-75974761D01*
X152835476Y-75927142D01*
X152883095Y-75831904D01*
X152883095Y-75736666D01*
X152835476Y-75641428D01*
X152787857Y-75593809D01*
X152692619Y-75546190D01*
X152502142Y-75498571D01*
X152406904Y-75450952D01*
X152359285Y-75403333D01*
X152311666Y-75308095D01*
X152311666Y-75212857D01*
X152359285Y-75117619D01*
X152406904Y-75070000D01*
X152502142Y-75022380D01*
X152740238Y-75022380D01*
X152883095Y-75070000D01*
X153216428Y-75022380D02*
X153454523Y-76022380D01*
X153645000Y-75308095D01*
X153835476Y-76022380D01*
X154073571Y-75022380D01*
X154406904Y-75117619D02*
X154454523Y-75070000D01*
X154549761Y-75022380D01*
X154787857Y-75022380D01*
X154883095Y-75070000D01*
X154930714Y-75117619D01*
X154978333Y-75212857D01*
X154978333Y-75308095D01*
X154930714Y-75450952D01*
X154359285Y-76022380D01*
X154978333Y-76022380D01*
X161836666Y-85499761D02*
X161979523Y-85547380D01*
X162217619Y-85547380D01*
X162312857Y-85499761D01*
X162360476Y-85452142D01*
X162408095Y-85356904D01*
X162408095Y-85261666D01*
X162360476Y-85166428D01*
X162312857Y-85118809D01*
X162217619Y-85071190D01*
X162027142Y-85023571D01*
X161931904Y-84975952D01*
X161884285Y-84928333D01*
X161836666Y-84833095D01*
X161836666Y-84737857D01*
X161884285Y-84642619D01*
X161931904Y-84595000D01*
X162027142Y-84547380D01*
X162265238Y-84547380D01*
X162408095Y-84595000D01*
X162741428Y-84547380D02*
X162979523Y-85547380D01*
X163170000Y-84833095D01*
X163360476Y-85547380D01*
X163598571Y-84547380D01*
X163884285Y-84547380D02*
X164503333Y-84547380D01*
X164170000Y-84928333D01*
X164312857Y-84928333D01*
X164408095Y-84975952D01*
X164455714Y-85023571D01*
X164503333Y-85118809D01*
X164503333Y-85356904D01*
X164455714Y-85452142D01*
X164408095Y-85499761D01*
X164312857Y-85547380D01*
X164027142Y-85547380D01*
X163931904Y-85499761D01*
X163884285Y-85452142D01*
X106703904Y-91257380D02*
X106703904Y-90257380D01*
X106942000Y-90257380D01*
X107084857Y-90305000D01*
X107180095Y-90400238D01*
X107227714Y-90495476D01*
X107275333Y-90685952D01*
X107275333Y-90828809D01*
X107227714Y-91019285D01*
X107180095Y-91114523D01*
X107084857Y-91209761D01*
X106942000Y-91257380D01*
X106703904Y-91257380D01*
X107608666Y-90257380D02*
X108275333Y-90257380D01*
X107846761Y-91257380D01*
X120982142Y-78906666D02*
X121029761Y-78954285D01*
X121077380Y-79097142D01*
X121077380Y-79192380D01*
X121029761Y-79335238D01*
X120934523Y-79430476D01*
X120839285Y-79478095D01*
X120648809Y-79525714D01*
X120505952Y-79525714D01*
X120315476Y-79478095D01*
X120220238Y-79430476D01*
X120125000Y-79335238D01*
X120077380Y-79192380D01*
X120077380Y-79097142D01*
X120125000Y-78954285D01*
X120172619Y-78906666D01*
X120172619Y-78525714D02*
X120125000Y-78478095D01*
X120077380Y-78382857D01*
X120077380Y-78144761D01*
X120125000Y-78049523D01*
X120172619Y-78001904D01*
X120267857Y-77954285D01*
X120363095Y-77954285D01*
X120505952Y-78001904D01*
X121077380Y-78573333D01*
X121077380Y-77954285D01*
X143680142Y-90876380D02*
X143346809Y-90400190D01*
X143108714Y-90876380D02*
X143108714Y-89876380D01*
X143489666Y-89876380D01*
X143584904Y-89924000D01*
X143632523Y-89971619D01*
X143680142Y-90066857D01*
X143680142Y-90209714D01*
X143632523Y-90304952D01*
X143584904Y-90352571D01*
X143489666Y-90400190D01*
X143108714Y-90400190D01*
X144632523Y-90876380D02*
X144061095Y-90876380D01*
X144346809Y-90876380D02*
X144346809Y-89876380D01*
X144251571Y-90019238D01*
X144156333Y-90114476D01*
X144061095Y-90162095D01*
X145584904Y-90876380D02*
X145013476Y-90876380D01*
X145299190Y-90876380D02*
X145299190Y-89876380D01*
X145203952Y-90019238D01*
X145108714Y-90114476D01*
X145013476Y-90162095D01*
X122852380Y-72088333D02*
X123566666Y-72088333D01*
X123709523Y-72135952D01*
X123804761Y-72231190D01*
X123852380Y-72374047D01*
X123852380Y-72469285D01*
X122947619Y-71659761D02*
X122900000Y-71612142D01*
X122852380Y-71516904D01*
X122852380Y-71278809D01*
X122900000Y-71183571D01*
X122947619Y-71135952D01*
X123042857Y-71088333D01*
X123138095Y-71088333D01*
X123280952Y-71135952D01*
X123852380Y-71707380D01*
X123852380Y-71088333D01*
X161488380Y-73826666D02*
X161012190Y-74160000D01*
X161488380Y-74398095D02*
X160488380Y-74398095D01*
X160488380Y-74017142D01*
X160536000Y-73921904D01*
X160583619Y-73874285D01*
X160678857Y-73826666D01*
X160821714Y-73826666D01*
X160916952Y-73874285D01*
X160964571Y-73921904D01*
X161012190Y-74017142D01*
X161012190Y-74398095D01*
X160583619Y-73445714D02*
X160536000Y-73398095D01*
X160488380Y-73302857D01*
X160488380Y-73064761D01*
X160536000Y-72969523D01*
X160583619Y-72921904D01*
X160678857Y-72874285D01*
X160774095Y-72874285D01*
X160916952Y-72921904D01*
X161488380Y-73493333D01*
X161488380Y-72874285D01*
X133096095Y-86822380D02*
X133096095Y-87631904D01*
X133143714Y-87727142D01*
X133191333Y-87774761D01*
X133286571Y-87822380D01*
X133477047Y-87822380D01*
X133572285Y-87774761D01*
X133619904Y-87727142D01*
X133667523Y-87631904D01*
X133667523Y-86822380D01*
X134572285Y-87155714D02*
X134572285Y-87822380D01*
X134334190Y-86774761D02*
X134096095Y-87489047D01*
X134715142Y-87489047D01*
X152311666Y-95024761D02*
X152454523Y-95072380D01*
X152692619Y-95072380D01*
X152787857Y-95024761D01*
X152835476Y-94977142D01*
X152883095Y-94881904D01*
X152883095Y-94786666D01*
X152835476Y-94691428D01*
X152787857Y-94643809D01*
X152692619Y-94596190D01*
X152502142Y-94548571D01*
X152406904Y-94500952D01*
X152359285Y-94453333D01*
X152311666Y-94358095D01*
X152311666Y-94262857D01*
X152359285Y-94167619D01*
X152406904Y-94120000D01*
X152502142Y-94072380D01*
X152740238Y-94072380D01*
X152883095Y-94120000D01*
X153216428Y-94072380D02*
X153454523Y-95072380D01*
X153645000Y-94358095D01*
X153835476Y-95072380D01*
X154073571Y-94072380D01*
X154883095Y-94405714D02*
X154883095Y-95072380D01*
X154645000Y-94024761D02*
X154406904Y-94739047D01*
X155025952Y-94739047D01*
X101034860Y-87982380D02*
X100701527Y-87506190D01*
X100463432Y-87982380D02*
X100463432Y-86982380D01*
X100844384Y-86982380D01*
X100939622Y-87030000D01*
X100987241Y-87077619D01*
X101034860Y-87172857D01*
X101034860Y-87315714D01*
X100987241Y-87410952D01*
X100939622Y-87458571D01*
X100844384Y-87506190D01*
X100463432Y-87506190D01*
X101987241Y-87982380D02*
X101415813Y-87982380D01*
X101701527Y-87982380D02*
X101701527Y-86982380D01*
X101606289Y-87125238D01*
X101511051Y-87220476D01*
X101415813Y-87268095D01*
X102844384Y-87315714D02*
X102844384Y-87982380D01*
X102606289Y-86934761D02*
X102368194Y-87649047D01*
X102987241Y-87649047D01*
X120483333Y-71731142D02*
X120435714Y-71778761D01*
X120292857Y-71826380D01*
X120197619Y-71826380D01*
X120054761Y-71778761D01*
X119959523Y-71683523D01*
X119911904Y-71588285D01*
X119864285Y-71397809D01*
X119864285Y-71254952D01*
X119911904Y-71064476D01*
X119959523Y-70969238D01*
X120054761Y-70874000D01*
X120197619Y-70826380D01*
X120292857Y-70826380D01*
X120435714Y-70874000D01*
X120483333Y-70921619D01*
X121340476Y-70826380D02*
X121150000Y-70826380D01*
X121054761Y-70874000D01*
X121007142Y-70921619D01*
X120911904Y-71064476D01*
X120864285Y-71254952D01*
X120864285Y-71635904D01*
X120911904Y-71731142D01*
X120959523Y-71778761D01*
X121054761Y-71826380D01*
X121245238Y-71826380D01*
X121340476Y-71778761D01*
X121388095Y-71731142D01*
X121435714Y-71635904D01*
X121435714Y-71397809D01*
X121388095Y-71302571D01*
X121340476Y-71254952D01*
X121245238Y-71207333D01*
X121054761Y-71207333D01*
X120959523Y-71254952D01*
X120911904Y-71302571D01*
X120864285Y-71397809D01*
X163012380Y-73826666D02*
X162536190Y-74160000D01*
X163012380Y-74398095D02*
X162012380Y-74398095D01*
X162012380Y-74017142D01*
X162060000Y-73921904D01*
X162107619Y-73874285D01*
X162202857Y-73826666D01*
X162345714Y-73826666D01*
X162440952Y-73874285D01*
X162488571Y-73921904D01*
X162536190Y-74017142D01*
X162536190Y-74398095D01*
X162012380Y-72921904D02*
X162012380Y-73398095D01*
X162488571Y-73445714D01*
X162440952Y-73398095D01*
X162393333Y-73302857D01*
X162393333Y-73064761D01*
X162440952Y-72969523D01*
X162488571Y-72921904D01*
X162583809Y-72874285D01*
X162821904Y-72874285D01*
X162917142Y-72921904D01*
X162964761Y-72969523D01*
X163012380Y-73064761D01*
X163012380Y-73302857D01*
X162964761Y-73398095D01*
X162917142Y-73445714D01*
X113623095Y-76697380D02*
X113623095Y-77506904D01*
X113670714Y-77602142D01*
X113718333Y-77649761D01*
X113813571Y-77697380D01*
X114004047Y-77697380D01*
X114099285Y-77649761D01*
X114146904Y-77602142D01*
X114194523Y-77506904D01*
X114194523Y-76697380D01*
X115194523Y-77697380D02*
X114623095Y-77697380D01*
X114908809Y-77697380D02*
X114908809Y-76697380D01*
X114813571Y-76840238D01*
X114718333Y-76935476D01*
X114623095Y-76983095D01*
X101034860Y-96872380D02*
X100701527Y-96396190D01*
X100463432Y-96872380D02*
X100463432Y-95872380D01*
X100844384Y-95872380D01*
X100939622Y-95920000D01*
X100987241Y-95967619D01*
X101034860Y-96062857D01*
X101034860Y-96205714D01*
X100987241Y-96300952D01*
X100939622Y-96348571D01*
X100844384Y-96396190D01*
X100463432Y-96396190D01*
X101987241Y-96872380D02*
X101415813Y-96872380D01*
X101701527Y-96872380D02*
X101701527Y-95872380D01*
X101606289Y-96015238D01*
X101511051Y-96110476D01*
X101415813Y-96158095D01*
X102844384Y-95872380D02*
X102653908Y-95872380D01*
X102558670Y-95920000D01*
X102511051Y-95967619D01*
X102415813Y-96110476D01*
X102368194Y-96300952D01*
X102368194Y-96681904D01*
X102415813Y-96777142D01*
X102463432Y-96824761D01*
X102558670Y-96872380D01*
X102749146Y-96872380D01*
X102844384Y-96824761D01*
X102892003Y-96777142D01*
X102939622Y-96681904D01*
X102939622Y-96443809D01*
X102892003Y-96348571D01*
X102844384Y-96300952D01*
X102749146Y-96253333D01*
X102558670Y-96253333D01*
X102463432Y-96300952D01*
X102415813Y-96348571D01*
X102368194Y-96443809D01*
X122388333Y-74762142D02*
X122340714Y-74809761D01*
X122197857Y-74857380D01*
X122102619Y-74857380D01*
X121959761Y-74809761D01*
X121864523Y-74714523D01*
X121816904Y-74619285D01*
X121769285Y-74428809D01*
X121769285Y-74285952D01*
X121816904Y-74095476D01*
X121864523Y-74000238D01*
X121959761Y-73905000D01*
X122102619Y-73857380D01*
X122197857Y-73857380D01*
X122340714Y-73905000D01*
X122388333Y-73952619D01*
X122721666Y-73857380D02*
X123340714Y-73857380D01*
X123007380Y-74238333D01*
X123150238Y-74238333D01*
X123245476Y-74285952D01*
X123293095Y-74333571D01*
X123340714Y-74428809D01*
X123340714Y-74666904D01*
X123293095Y-74762142D01*
X123245476Y-74809761D01*
X123150238Y-74857380D01*
X122864523Y-74857380D01*
X122769285Y-74809761D01*
X122721666Y-74762142D01*
X152906904Y-70147380D02*
X152906904Y-69147380D01*
X153145000Y-69147380D01*
X153287857Y-69195000D01*
X153383095Y-69290238D01*
X153430714Y-69385476D01*
X153478333Y-69575952D01*
X153478333Y-69718809D01*
X153430714Y-69909285D01*
X153383095Y-70004523D01*
X153287857Y-70099761D01*
X153145000Y-70147380D01*
X152906904Y-70147380D01*
X153859285Y-69242619D02*
X153906904Y-69195000D01*
X154002142Y-69147380D01*
X154240238Y-69147380D01*
X154335476Y-69195000D01*
X154383095Y-69242619D01*
X154430714Y-69337857D01*
X154430714Y-69433095D01*
X154383095Y-69575952D01*
X153811666Y-70147380D01*
X154430714Y-70147380D01*
X100266666Y-82319761D02*
X100409523Y-82367380D01*
X100647619Y-82367380D01*
X100742857Y-82319761D01*
X100790476Y-82272142D01*
X100838095Y-82176904D01*
X100838095Y-82081666D01*
X100790476Y-81986428D01*
X100742857Y-81938809D01*
X100647619Y-81891190D01*
X100457142Y-81843571D01*
X100361904Y-81795952D01*
X100314285Y-81748333D01*
X100266666Y-81653095D01*
X100266666Y-81557857D01*
X100314285Y-81462619D01*
X100361904Y-81415000D01*
X100457142Y-81367380D01*
X100695238Y-81367380D01*
X100838095Y-81415000D01*
X101171428Y-81367380D02*
X101409523Y-82367380D01*
X101600000Y-81653095D01*
X101790476Y-82367380D01*
X102028571Y-81367380D01*
X102933333Y-82367380D02*
X102361904Y-82367380D01*
X102647619Y-82367380D02*
X102647619Y-81367380D01*
X102552380Y-81510238D01*
X102457142Y-81605476D01*
X102361904Y-81653095D01*
X133662380Y-72093333D02*
X134376666Y-72093333D01*
X134519523Y-72140952D01*
X134614761Y-72236190D01*
X134662380Y-72379047D01*
X134662380Y-72474285D01*
X133662380Y-71712380D02*
X133662380Y-71093333D01*
X134043333Y-71426666D01*
X134043333Y-71283809D01*
X134090952Y-71188571D01*
X134138571Y-71140952D01*
X134233809Y-71093333D01*
X134471904Y-71093333D01*
X134567142Y-71140952D01*
X134614761Y-71188571D01*
X134662380Y-71283809D01*
X134662380Y-71569523D01*
X134614761Y-71664761D01*
X134567142Y-71712380D01*
X130564095Y-96988380D02*
X131135523Y-96988380D01*
X130849809Y-97988380D02*
X130849809Y-96988380D01*
X131468857Y-97988380D02*
X131468857Y-96988380D01*
X131849809Y-96988380D01*
X131945047Y-97036000D01*
X131992666Y-97083619D01*
X132040285Y-97178857D01*
X132040285Y-97321714D01*
X131992666Y-97416952D01*
X131945047Y-97464571D01*
X131849809Y-97512190D01*
X131468857Y-97512190D01*
X132992666Y-97988380D02*
X132421238Y-97988380D01*
X132706952Y-97988380D02*
X132706952Y-96988380D01*
X132611714Y-97131238D01*
X132516476Y-97226476D01*
X132421238Y-97274095D01*
X153478333Y-81224380D02*
X153145000Y-80748190D01*
X152906904Y-81224380D02*
X152906904Y-80224380D01*
X153287857Y-80224380D01*
X153383095Y-80272000D01*
X153430714Y-80319619D01*
X153478333Y-80414857D01*
X153478333Y-80557714D01*
X153430714Y-80652952D01*
X153383095Y-80700571D01*
X153287857Y-80748190D01*
X152906904Y-80748190D01*
X154049761Y-80652952D02*
X153954523Y-80605333D01*
X153906904Y-80557714D01*
X153859285Y-80462476D01*
X153859285Y-80414857D01*
X153906904Y-80319619D01*
X153954523Y-80272000D01*
X154049761Y-80224380D01*
X154240238Y-80224380D01*
X154335476Y-80272000D01*
X154383095Y-80319619D01*
X154430714Y-80414857D01*
X154430714Y-80462476D01*
X154383095Y-80557714D01*
X154335476Y-80605333D01*
X154240238Y-80652952D01*
X154049761Y-80652952D01*
X153954523Y-80700571D01*
X153906904Y-80748190D01*
X153859285Y-80843428D01*
X153859285Y-81033904D01*
X153906904Y-81129142D01*
X153954523Y-81176761D01*
X154049761Y-81224380D01*
X154240238Y-81224380D01*
X154335476Y-81176761D01*
X154383095Y-81129142D01*
X154430714Y-81033904D01*
X154430714Y-80843428D01*
X154383095Y-80748190D01*
X154335476Y-80700571D01*
X154240238Y-80652952D01*
X133096095Y-76916380D02*
X133096095Y-77725904D01*
X133143714Y-77821142D01*
X133191333Y-77868761D01*
X133286571Y-77916380D01*
X133477047Y-77916380D01*
X133572285Y-77868761D01*
X133619904Y-77821142D01*
X133667523Y-77725904D01*
X133667523Y-76916380D01*
X134048476Y-76916380D02*
X134667523Y-76916380D01*
X134334190Y-77297333D01*
X134477047Y-77297333D01*
X134572285Y-77344952D01*
X134619904Y-77392571D01*
X134667523Y-77487809D01*
X134667523Y-77725904D01*
X134619904Y-77821142D01*
X134572285Y-77868761D01*
X134477047Y-77916380D01*
X134191333Y-77916380D01*
X134096095Y-77868761D01*
X134048476Y-77821142D01*
X163003333Y-90876380D02*
X162670000Y-90400190D01*
X162431904Y-90876380D02*
X162431904Y-89876380D01*
X162812857Y-89876380D01*
X162908095Y-89924000D01*
X162955714Y-89971619D01*
X163003333Y-90066857D01*
X163003333Y-90209714D01*
X162955714Y-90304952D01*
X162908095Y-90352571D01*
X162812857Y-90400190D01*
X162431904Y-90400190D01*
X163479523Y-90876380D02*
X163670000Y-90876380D01*
X163765238Y-90828761D01*
X163812857Y-90781142D01*
X163908095Y-90638285D01*
X163955714Y-90447809D01*
X163955714Y-90066857D01*
X163908095Y-89971619D01*
X163860476Y-89924000D01*
X163765238Y-89876380D01*
X163574761Y-89876380D01*
X163479523Y-89924000D01*
X163431904Y-89971619D01*
X163384285Y-90066857D01*
X163384285Y-90304952D01*
X163431904Y-90400190D01*
X163479523Y-90447809D01*
X163574761Y-90495428D01*
X163765238Y-90495428D01*
X163860476Y-90447809D01*
X163908095Y-90400190D01*
X163955714Y-90304952D01*
D11*
X122575000Y-97238000D02*
X125075000Y-97238000D01*
X126575000Y-93488000D02*
X126575000Y-95488000D01*
X125525000Y-92188000D02*
X125075000Y-91738000D01*
X125525000Y-96788000D02*
X125075000Y-97238000D01*
X122125000Y-96788000D02*
X122575000Y-97238000D01*
X122125000Y-92188000D02*
X122575000Y-91738000D01*
X121075000Y-93488000D02*
X121075000Y-95488000D01*
X122575000Y-91738000D02*
X125075000Y-91738000D01*
X106337718Y-94515000D02*
X104052718Y-94515000D01*
X104052718Y-95985000D02*
X106337718Y-95985000D01*
X106337718Y-95985000D02*
X106337718Y-94515000D01*
X118210359Y-88012000D02*
X118517641Y-88012000D01*
X118210359Y-88772000D02*
X118517641Y-88772000D01*
X143073000Y-82345000D02*
X145573000Y-82345000D01*
X142623000Y-82795000D02*
X143073000Y-82345000D01*
X143073000Y-87845000D02*
X145573000Y-87845000D01*
X146023000Y-82795000D02*
X145573000Y-82345000D01*
X146023000Y-87395000D02*
X145573000Y-87845000D01*
X142623000Y-87395000D02*
X143073000Y-87845000D01*
X147073000Y-84095000D02*
X147073000Y-86095000D01*
X141573000Y-84095000D02*
X141573000Y-86095000D01*
X119825000Y-82657836D02*
X119825000Y-82442164D01*
X119105000Y-82657836D02*
X119105000Y-82442164D01*
X161685000Y-79915000D02*
X161685000Y-81385000D01*
X161685000Y-81385000D02*
X163970000Y-81385000D01*
X163970000Y-79915000D02*
X161685000Y-79915000D01*
X148716000Y-94773641D02*
X148716000Y-94466359D01*
X147956000Y-94773641D02*
X147956000Y-94466359D01*
X110389641Y-87628000D02*
X110082359Y-87628000D01*
X110389641Y-86868000D02*
X110082359Y-86868000D01*
X135320000Y-95504000D02*
G75*
G03*
X135320000Y-95504000I-700000J0D01*
G01*
X107161359Y-82295000D02*
X107468641Y-82295000D01*
X107161359Y-81535000D02*
X107468641Y-81535000D01*
X130916000Y-81260836D02*
X130916000Y-81045164D01*
X130196000Y-81260836D02*
X130196000Y-81045164D01*
X142838000Y-81385000D02*
X145123000Y-81385000D01*
X145123000Y-79915000D02*
X142838000Y-79915000D01*
X142838000Y-79915000D02*
X142838000Y-81385000D01*
X110389641Y-84964000D02*
X110082359Y-84964000D01*
X110389641Y-84204000D02*
X110082359Y-84204000D01*
X154445000Y-89440000D02*
X152160000Y-89440000D01*
X152160000Y-90910000D02*
X154445000Y-90910000D01*
X152160000Y-89440000D02*
X152160000Y-90910000D01*
X101831359Y-91185000D02*
X101524077Y-91185000D01*
X101831359Y-90425000D02*
X101524077Y-90425000D01*
X104052718Y-87095000D02*
X106337718Y-87095000D01*
X106337718Y-85625000D02*
X104052718Y-85625000D01*
X106337718Y-87095000D02*
X106337718Y-85625000D01*
X116695000Y-74751000D02*
X116245000Y-74751000D01*
X116695000Y-74751000D02*
X116695000Y-74361000D01*
X130196000Y-91265836D02*
X130196000Y-91050164D01*
X130916000Y-91265836D02*
X130916000Y-91050164D01*
X111780000Y-97238000D02*
X114280000Y-97238000D01*
X114730000Y-92188000D02*
X114280000Y-91738000D01*
X110280000Y-93488000D02*
X110280000Y-95488000D01*
X114730000Y-96788000D02*
X114280000Y-97238000D01*
X111330000Y-92188000D02*
X111780000Y-91738000D01*
X115780000Y-93488000D02*
X115780000Y-95488000D01*
X111780000Y-91738000D02*
X114280000Y-91738000D01*
X111330000Y-96788000D02*
X111780000Y-97238000D01*
X118517641Y-86232000D02*
X118210359Y-86232000D01*
X118517641Y-85472000D02*
X118210359Y-85472000D01*
X165228000Y-71779641D02*
X165228000Y-71472359D01*
X165988000Y-71779641D02*
X165988000Y-71472359D01*
X164464000Y-71781641D02*
X164464000Y-71474359D01*
X163704000Y-71781641D02*
X163704000Y-71474359D01*
X114554000Y-85562000D02*
X112879000Y-85562000D01*
X114554000Y-88682000D02*
X113904000Y-88682000D01*
X114554000Y-85562000D02*
X115204000Y-85562000D01*
X114554000Y-88682000D02*
X115204000Y-88682000D01*
X121725000Y-80645000D02*
X121725000Y-84245000D01*
X127195000Y-80645000D02*
X127195000Y-78445000D01*
X127195000Y-80645000D02*
X127195000Y-82845000D01*
X121725000Y-80645000D02*
X121725000Y-78445000D01*
X151945000Y-73270000D02*
X152395000Y-72820000D01*
X155345000Y-73270000D02*
X154895000Y-72820000D01*
X155345000Y-77870000D02*
X154895000Y-78320000D01*
X151945000Y-77870000D02*
X152395000Y-78320000D01*
X152395000Y-72820000D02*
X154895000Y-72820000D01*
X152395000Y-78320000D02*
X154895000Y-78320000D01*
X150895000Y-74570000D02*
X150895000Y-76570000D01*
X156395000Y-74570000D02*
X156395000Y-76570000D01*
X164870000Y-82795000D02*
X164420000Y-82345000D01*
X161470000Y-87395000D02*
X161920000Y-87845000D01*
X161470000Y-82795000D02*
X161920000Y-82345000D01*
X161920000Y-87845000D02*
X164420000Y-87845000D01*
X161920000Y-82345000D02*
X164420000Y-82345000D01*
X164870000Y-87395000D02*
X164420000Y-87845000D01*
X165920000Y-84095000D02*
X165920000Y-86095000D01*
X160420000Y-84095000D02*
X160420000Y-86095000D01*
X106337718Y-90070000D02*
X104052718Y-90070000D01*
X104052718Y-91540000D02*
X106337718Y-91540000D01*
X106337718Y-91540000D02*
X106337718Y-90070000D01*
X119105000Y-78632164D02*
X119105000Y-78847836D01*
X119825000Y-78632164D02*
X119825000Y-78847836D01*
X144169359Y-88525000D02*
X144476641Y-88525000D01*
X144169359Y-89285000D02*
X144476641Y-89285000D01*
X125730000Y-74355000D02*
X124400000Y-74355000D01*
X127000000Y-74355000D02*
X132140000Y-74355000D01*
X127000000Y-74355000D02*
X127000000Y-71755000D01*
X132140000Y-74355000D02*
X132140000Y-69155000D01*
X124400000Y-74355000D02*
X124400000Y-73025000D01*
X124400000Y-71755000D02*
X124400000Y-69155000D01*
X124400000Y-69155000D02*
X132140000Y-69155000D01*
X127000000Y-71755000D02*
X124400000Y-71755000D01*
X161416000Y-71779641D02*
X161416000Y-71472359D01*
X160656000Y-71779641D02*
X160656000Y-71472359D01*
X135468000Y-91780000D02*
X135468000Y-91330000D01*
X135018000Y-88560000D02*
X135468000Y-88560000D01*
X132248000Y-91780000D02*
X132248000Y-91330000D01*
X132698000Y-88560000D02*
X132248000Y-88560000D01*
X135468000Y-88560000D02*
X135468000Y-89010000D01*
X135018000Y-91780000D02*
X135468000Y-91780000D01*
X132698000Y-91780000D02*
X132248000Y-91780000D01*
X155345000Y-92320000D02*
X154895000Y-91870000D01*
X151945000Y-96920000D02*
X152395000Y-97370000D01*
X156395000Y-93620000D02*
X156395000Y-95620000D01*
X150895000Y-93620000D02*
X150895000Y-95620000D01*
X151945000Y-92320000D02*
X152395000Y-91870000D01*
X152395000Y-91870000D02*
X154895000Y-91870000D01*
X155345000Y-96920000D02*
X154895000Y-97370000D01*
X152395000Y-97370000D02*
X154895000Y-97370000D01*
X101831359Y-86740000D02*
X101524077Y-86740000D01*
X101831359Y-85980000D02*
X101524077Y-85980000D01*
X120290000Y-73132836D02*
X120290000Y-72917164D01*
X121010000Y-73132836D02*
X121010000Y-72917164D01*
X162940000Y-71779641D02*
X162940000Y-71472359D01*
X162180000Y-71779641D02*
X162180000Y-71472359D01*
X114385000Y-83205000D02*
X116335000Y-83205000D01*
X114385000Y-83205000D02*
X112435000Y-83205000D01*
X114385000Y-78085000D02*
X116335000Y-78085000D01*
X114385000Y-78085000D02*
X110935000Y-78085000D01*
X101831359Y-94870000D02*
X101524077Y-94870000D01*
X101831359Y-95630000D02*
X101524077Y-95630000D01*
X122447164Y-75205000D02*
X122662836Y-75205000D01*
X122447164Y-75925000D02*
X122662836Y-75925000D01*
X154445000Y-70390000D02*
X152160000Y-70390000D01*
X152160000Y-71860000D02*
X154445000Y-71860000D01*
X152160000Y-70390000D02*
X152160000Y-71860000D01*
X102670000Y-77080000D02*
X102670000Y-77280000D01*
X102670000Y-70580000D02*
X102670000Y-71280000D01*
X102670000Y-74080000D02*
X102670000Y-75780000D01*
X98580000Y-75580000D02*
X98380000Y-75380000D01*
X101670000Y-69980000D02*
X100880000Y-69980000D01*
X98580000Y-75580000D02*
X99880000Y-75580000D01*
X99880000Y-70580000D02*
X99880000Y-79280000D01*
X102670000Y-72580000D02*
X102670000Y-72780000D01*
X102670000Y-78580000D02*
X102670000Y-79280000D01*
X98580000Y-74280000D02*
X98380000Y-74480000D01*
X98380000Y-75380000D02*
X98380000Y-74480000D01*
X99880000Y-74280000D02*
X98580000Y-74280000D01*
X100880000Y-79880000D02*
X101670000Y-79880000D01*
X137810000Y-74360000D02*
X137810000Y-71760000D01*
X136540000Y-74360000D02*
X135210000Y-74360000D01*
X137810000Y-71760000D02*
X135210000Y-71760000D01*
X135210000Y-74360000D02*
X135210000Y-73030000D01*
X137810000Y-74360000D02*
X142950000Y-74360000D01*
X135210000Y-71760000D02*
X135210000Y-69160000D01*
X135210000Y-69160000D02*
X142950000Y-69160000D01*
X142950000Y-74360000D02*
X142950000Y-69160000D01*
X132780000Y-95504000D02*
G75*
G03*
X132780000Y-95504000I-700000J0D01*
G01*
X153491359Y-79000000D02*
X153798641Y-79000000D01*
X153491359Y-79760000D02*
X153798641Y-79760000D01*
X132698000Y-78654000D02*
X132248000Y-78654000D01*
X132248000Y-81874000D02*
X132248000Y-81424000D01*
X132698000Y-81874000D02*
X132248000Y-81874000D01*
X135468000Y-81874000D02*
X135468000Y-81424000D01*
X135018000Y-81874000D02*
X135468000Y-81874000D01*
X135018000Y-78654000D02*
X135468000Y-78654000D01*
X135468000Y-78654000D02*
X135468000Y-79104000D01*
X163016359Y-89285000D02*
X163323641Y-89285000D01*
X163016359Y-88525000D02*
X163323641Y-88525000D01*
%LPC*%
D12*
X126975000Y-92588000D03*
X120675000Y-92588000D03*
X120675000Y-96388000D03*
X126975000Y-96388000D03*
D13*
X105640218Y-95250000D03*
X104065218Y-95250000D03*
D14*
X117854000Y-88392000D03*
X118874000Y-88392000D03*
D12*
X141173000Y-86995000D03*
X141173000Y-83195000D03*
X147473000Y-83195000D03*
X147473000Y-86995000D03*
D15*
X119465000Y-83030000D03*
X119465000Y-82070000D03*
D16*
X162382500Y-80650000D03*
X163957500Y-80650000D03*
D17*
X148336000Y-95130000D03*
X148336000Y-94110000D03*
D18*
X110746000Y-87248000D03*
X109726000Y-87248000D03*
D19*
X134620000Y-95504000D03*
D14*
X106805000Y-81915000D03*
X107825000Y-81915000D03*
D15*
X130556000Y-81633000D03*
X130556000Y-80673000D03*
D16*
X143535500Y-80650000D03*
X145110500Y-80650000D03*
D18*
X110746000Y-84584000D03*
X109726000Y-84584000D03*
D16*
X152857500Y-90175000D03*
X154432500Y-90175000D03*
D18*
X102187718Y-90805000D03*
X101167718Y-90805000D03*
D13*
X105640218Y-86360000D03*
X104065218Y-86360000D03*
D20*
X116235000Y-73701000D03*
X115585000Y-73701000D03*
X114935000Y-73701000D03*
X114285000Y-73701000D03*
X113635000Y-73701000D03*
D21*
X112510000Y-73181000D03*
X117360000Y-73181000D03*
D22*
X116435000Y-69201000D03*
X113435000Y-69201000D03*
D23*
X111310000Y-70501000D03*
X118560000Y-70501000D03*
D15*
X130556000Y-91638000D03*
X130556000Y-90678000D03*
D12*
X109880000Y-92588000D03*
X116180000Y-92588000D03*
X116180000Y-96388000D03*
X109880000Y-96388000D03*
D18*
X118874000Y-85852000D03*
X117854000Y-85852000D03*
D17*
X165608000Y-72136000D03*
X165608000Y-71116000D03*
X164084000Y-72138000D03*
X164084000Y-71118000D03*
D24*
X113616500Y-86172000D03*
X113616500Y-88072000D03*
X115491500Y-87122000D03*
D25*
X122185000Y-83507500D03*
X122835000Y-83507500D03*
X123485000Y-83507500D03*
X124135000Y-83507500D03*
X124785000Y-83507500D03*
X125435000Y-83507500D03*
X126085000Y-83507500D03*
X126735000Y-83507500D03*
X126735000Y-77782500D03*
X126085000Y-77782500D03*
X125435000Y-77782500D03*
X124785000Y-77782500D03*
X124135000Y-77782500D03*
X123485000Y-77782500D03*
X122835000Y-77782500D03*
X122185000Y-77782500D03*
D12*
X156795000Y-73670000D03*
X150495000Y-73670000D03*
X156795000Y-77470000D03*
X150495000Y-77470000D03*
X160020000Y-86995000D03*
X160020000Y-83195000D03*
X166320000Y-83195000D03*
X166320000Y-86995000D03*
D13*
X105640218Y-90805000D03*
X104065218Y-90805000D03*
D26*
X119465000Y-79220000D03*
X119465000Y-78260000D03*
D14*
X143813000Y-88905000D03*
X144833000Y-88905000D03*
D27*
X125730000Y-73025000D03*
D28*
X125730000Y-70485000D03*
X128270000Y-73025000D03*
X128270000Y-70485000D03*
X130810000Y-73025000D03*
X130810000Y-70485000D03*
D17*
X161036000Y-72136000D03*
X161036000Y-71116000D03*
D29*
X132408000Y-89370000D03*
D30*
X132408000Y-89770000D03*
X132408000Y-90170000D03*
X132408000Y-90570000D03*
D31*
X132408000Y-90970000D03*
D32*
X133058000Y-91620000D03*
D33*
X133458000Y-91620000D03*
X133858000Y-91620000D03*
X134258000Y-91620000D03*
D34*
X134658000Y-91620000D03*
D35*
X135308000Y-90970000D03*
D30*
X135308000Y-90570000D03*
X135308000Y-90170000D03*
X135308000Y-89770000D03*
D36*
X135308000Y-89370000D03*
D37*
X134658000Y-88720000D03*
D33*
X134258000Y-88720000D03*
X133858000Y-88720000D03*
X133458000Y-88720000D03*
D38*
X133058000Y-88720000D03*
D27*
X133858000Y-90170000D03*
D12*
X156795000Y-92720000D03*
X150495000Y-92720000D03*
X150495000Y-96520000D03*
X156795000Y-96520000D03*
D18*
X102187718Y-86360000D03*
X101167718Y-86360000D03*
D15*
X120650000Y-73505000D03*
X120650000Y-72545000D03*
D17*
X162560000Y-72136000D03*
X162560000Y-71116000D03*
D39*
X111760000Y-78740000D03*
X111760000Y-80010000D03*
X111760000Y-81280000D03*
X111760000Y-82550000D03*
X117010000Y-82550000D03*
X117010000Y-81280000D03*
X117010000Y-80010000D03*
X117010000Y-78740000D03*
D18*
X102187718Y-95250000D03*
X101167718Y-95250000D03*
D40*
X122075000Y-75565000D03*
X123035000Y-75565000D03*
D16*
X152857500Y-71125000D03*
X154432500Y-71125000D03*
D41*
X102380000Y-69780000D03*
D42*
X101270000Y-72430000D03*
X101270000Y-77430000D03*
D41*
X100170000Y-69780000D03*
X100170000Y-80080000D03*
X102380000Y-80080000D03*
D43*
X103030000Y-71930000D03*
X103030000Y-73430000D03*
X103030000Y-76430000D03*
X103030000Y-77930000D03*
D27*
X136540000Y-73030000D03*
D28*
X136540000Y-70490000D03*
X139080000Y-73030000D03*
X139080000Y-70490000D03*
X141620000Y-73030000D03*
X141620000Y-70490000D03*
D19*
X132080000Y-95504000D03*
D14*
X153135000Y-79380000D03*
X154155000Y-79380000D03*
D29*
X132408000Y-79464000D03*
D30*
X132408000Y-79864000D03*
X132408000Y-80264000D03*
X132408000Y-80664000D03*
D31*
X132408000Y-81064000D03*
D32*
X133058000Y-81714000D03*
D33*
X133458000Y-81714000D03*
X133858000Y-81714000D03*
X134258000Y-81714000D03*
D34*
X134658000Y-81714000D03*
D35*
X135308000Y-81064000D03*
D30*
X135308000Y-80664000D03*
X135308000Y-80264000D03*
X135308000Y-79864000D03*
D36*
X135308000Y-79464000D03*
D37*
X134658000Y-78814000D03*
D33*
X134258000Y-78814000D03*
X133858000Y-78814000D03*
X133458000Y-78814000D03*
D38*
X133058000Y-78814000D03*
D27*
X133858000Y-80264000D03*
D14*
X162660000Y-88905000D03*
X163680000Y-88905000D03*
M02*
