G04 #@! TF.GenerationSoftware,KiCad,Pcbnew,(6.0.10)*
G04 #@! TF.CreationDate,2023-01-18T01:33:26+01:00*
G04 #@! TF.ProjectId,hwpuzzle,68777075-7a7a-46c6-952e-6b696361645f,0.1*
G04 #@! TF.SameCoordinates,Original*
G04 #@! TF.FileFunction,Copper,L2,Bot*
G04 #@! TF.FilePolarity,Positive*
%FSLAX46Y46*%
G04 Gerber Fmt 4.6, Leading zero omitted, Abs format (unit mm)*
G04 Created by KiCad (PCBNEW (6.0.10)) date 2023-01-18 01:33:26*
%MOMM*%
%LPD*%
G01*
G04 APERTURE LIST*
G04 #@! TA.AperFunction,ComponentPad*
%ADD10C,1.300000*%
G04 #@! TD*
G04 #@! TA.AperFunction,ComponentPad*
%ADD11O,1.300000X1.700000*%
G04 #@! TD*
G04 #@! TA.AperFunction,ComponentPad*
%ADD12R,1.700000X1.700000*%
G04 #@! TD*
G04 #@! TA.AperFunction,ComponentPad*
%ADD13O,1.700000X1.700000*%
G04 #@! TD*
G04 #@! TA.AperFunction,ViaPad*
%ADD14C,0.800000*%
G04 #@! TD*
G04 #@! TA.AperFunction,Conductor*
%ADD15C,0.200000*%
G04 #@! TD*
G04 #@! TA.AperFunction,Conductor*
%ADD16C,0.250000*%
G04 #@! TD*
G04 APERTURE END LIST*
D10*
X112510000Y-73181000D03*
X117360000Y-73181000D03*
D11*
X111310000Y-70501000D03*
X118560000Y-70501000D03*
D12*
X125730000Y-73025000D03*
D13*
X125730000Y-70485000D03*
X128270000Y-73025000D03*
X128270000Y-70485000D03*
X130810000Y-73025000D03*
X130810000Y-70485000D03*
D12*
X136540000Y-73030000D03*
D13*
X136540000Y-70490000D03*
X139080000Y-73030000D03*
X139080000Y-70490000D03*
X141620000Y-73030000D03*
X141620000Y-70490000D03*
D14*
X121666000Y-90678000D03*
X126492000Y-88138000D03*
X122428000Y-88138000D03*
X127254000Y-90069500D03*
X125730000Y-90678000D03*
X131318000Y-85344000D03*
X129540000Y-84836000D03*
X134112000Y-85852000D03*
X142748000Y-93726000D03*
X149860000Y-82804000D03*
X144018000Y-76454000D03*
X160528000Y-80772000D03*
X146050000Y-77470000D03*
X136652000Y-89662000D03*
X136906000Y-86360000D03*
X134620000Y-84836000D03*
X139700000Y-84836000D03*
X137414000Y-76200000D03*
X122936000Y-72898000D03*
X105156000Y-80264000D03*
X118618000Y-84328000D03*
X165354000Y-88900000D03*
X109474000Y-80772000D03*
X123698000Y-81915000D03*
X145288000Y-96012000D03*
X119126000Y-76708000D03*
X126746000Y-81788000D03*
X155956000Y-79502000D03*
X109728000Y-89916000D03*
X108204000Y-84582000D03*
X130429000Y-79502000D03*
X146558000Y-88900000D03*
X128778000Y-87630000D03*
X129032000Y-91694000D03*
X131064000Y-87630000D03*
X144018000Y-91567000D03*
X148082000Y-91567000D03*
X145923000Y-90297000D03*
X149733000Y-90297000D03*
X141351000Y-80645000D03*
X123952000Y-87122000D03*
X106934000Y-87884000D03*
X103124000Y-88646000D03*
X129794000Y-75692000D03*
X137160000Y-82296000D03*
X124714000Y-75692000D03*
X118364000Y-96520000D03*
X131826000Y-86614000D03*
X128016000Y-85090000D03*
X128016000Y-80264000D03*
X131572000Y-77216000D03*
X121920000Y-85598000D03*
X142113000Y-75565000D03*
X139319000Y-86360000D03*
X111760000Y-76962000D03*
X125984000Y-79502000D03*
X139446000Y-81534000D03*
X131064000Y-92964000D03*
X131572000Y-83820000D03*
X136652000Y-93980000D03*
X137668000Y-90170000D03*
X138938000Y-90932000D03*
X137922000Y-94742000D03*
D15*
X124987000Y-87395000D02*
X124949000Y-87395000D01*
X124949000Y-87395000D02*
X121666000Y-90678000D01*
X124987000Y-87395000D02*
X126384000Y-85998000D01*
X126384000Y-85998000D02*
X128378000Y-85998000D01*
X128378000Y-85998000D02*
X129540000Y-84836000D01*
X126746000Y-88138000D02*
X126492000Y-88138000D01*
X128078000Y-86806000D02*
X126746000Y-88138000D01*
X125730000Y-90678000D02*
X125730000Y-87433686D01*
X125730000Y-87433686D02*
X126765686Y-86398000D01*
X126765686Y-86398000D02*
X128270000Y-86398000D01*
D16*
X128778000Y-87630000D02*
X128778000Y-91440000D01*
D15*
X131318000Y-85344000D02*
X130264000Y-86398000D01*
X130264000Y-86398000D02*
X127292000Y-86398000D01*
X135890000Y-94234000D02*
X135890000Y-94742000D01*
X135890000Y-94742000D02*
X137414000Y-96266000D01*
X137414000Y-96266000D02*
X140208000Y-96266000D01*
X134112000Y-85852000D02*
X135890000Y-87630000D01*
X135890000Y-87630000D02*
X135890000Y-94234000D01*
X140208000Y-96266000D02*
X142748000Y-93726000D01*
X131699000Y-83820000D02*
X132969000Y-85090000D01*
X132969000Y-85090000D02*
X132969000Y-87122000D01*
X132969000Y-87122000D02*
X131191000Y-88900000D01*
X131191000Y-88900000D02*
X131191000Y-92837000D01*
X146812000Y-79756000D02*
X149860000Y-82804000D01*
X144018000Y-76454000D02*
X144018000Y-76962000D01*
X144018000Y-76962000D02*
X146812000Y-79756000D01*
X150876000Y-80772000D02*
X160528000Y-80772000D01*
X147574000Y-77470000D02*
X150876000Y-80772000D01*
X146050000Y-77470000D02*
X147574000Y-77470000D01*
X136906000Y-89408000D02*
X136652000Y-89662000D01*
X136906000Y-86360000D02*
X136906000Y-89408000D01*
X134620000Y-84836000D02*
X139700000Y-84836000D01*
X141351000Y-80645000D02*
X137414000Y-76708000D01*
X137414000Y-76708000D02*
X137414000Y-76200000D01*
X131064000Y-87630000D02*
X128778000Y-87630000D01*
D16*
X128778000Y-91440000D02*
X129032000Y-91694000D01*
D15*
X144018000Y-91567000D02*
X148082000Y-91567000D01*
X145923000Y-90297000D02*
X149733000Y-90297000D01*
D16*
X120650000Y-87122000D02*
X107696000Y-87122000D01*
X120650000Y-87122000D02*
X123952000Y-87122000D01*
X107696000Y-87122000D02*
X106934000Y-87884000D01*
D15*
X129794000Y-75692000D02*
X135382000Y-75692000D01*
X107442000Y-75692000D02*
X120396000Y-75692000D01*
X123952000Y-76454000D02*
X124714000Y-75692000D01*
X137160000Y-77470000D02*
X137160000Y-82296000D01*
X121158000Y-76454000D02*
X123952000Y-76454000D01*
X136525000Y-76835000D02*
X137160000Y-77470000D01*
X103124000Y-80010000D02*
X107442000Y-75692000D01*
X103124000Y-88646000D02*
X103124000Y-80010000D01*
X135382000Y-75692000D02*
X136525000Y-76835000D01*
X120396000Y-75692000D02*
X121158000Y-76454000D01*
X131634000Y-86806000D02*
X128078000Y-86806000D01*
X122174000Y-88392000D02*
X118364000Y-92202000D01*
X131826000Y-86614000D02*
X131634000Y-86806000D01*
X118364000Y-92202000D02*
X118364000Y-96520000D01*
X128016000Y-75946000D02*
X127571500Y-75501500D01*
X125730000Y-73660000D02*
X125730000Y-73025000D01*
X121920000Y-85598000D02*
X127508000Y-85598000D01*
X127571500Y-75501500D02*
X125730000Y-73660000D01*
X131572000Y-77216000D02*
X129286000Y-77216000D01*
X128016000Y-80264000D02*
X128016000Y-75946000D01*
X128270000Y-76200000D02*
X127635000Y-75565000D01*
X128016000Y-75946000D02*
X127635000Y-75565000D01*
X127508000Y-85598000D02*
X128016000Y-85090000D01*
X127635000Y-75565000D02*
X127571500Y-75501500D01*
X129286000Y-77216000D02*
X128270000Y-76200000D01*
X142367000Y-75819000D02*
X142113000Y-75565000D01*
X142367000Y-78740000D02*
X142367000Y-83312000D01*
X142367000Y-78740000D02*
X142367000Y-75819000D01*
X142367000Y-83312000D02*
X139319000Y-86360000D01*
D16*
X115443000Y-80645000D02*
X118491000Y-80645000D01*
X124841000Y-80645000D02*
X125984000Y-79502000D01*
X111760000Y-76962000D02*
X115443000Y-80645000D01*
X118491000Y-80645000D02*
X124841000Y-80645000D01*
D15*
X134620000Y-83820000D02*
X133858000Y-83820000D01*
X139446000Y-81534000D02*
X139446000Y-83312000D01*
X131191000Y-92837000D02*
X131064000Y-92964000D01*
X138938000Y-83820000D02*
X134620000Y-83820000D01*
X131572000Y-83820000D02*
X131699000Y-83820000D01*
X139446000Y-83312000D02*
X139192000Y-83566000D01*
X133858000Y-83820000D02*
X131572000Y-83820000D01*
X139192000Y-83566000D02*
X138938000Y-83820000D01*
X137668000Y-90170000D02*
X136652000Y-91186000D01*
X136652000Y-91186000D02*
X136652000Y-93980000D01*
X137922000Y-91948000D02*
X137922000Y-94742000D01*
X138938000Y-90932000D02*
X137922000Y-91948000D01*
G04 #@! TA.AperFunction,Conductor*
G36*
X111166278Y-68928502D02*
G01*
X111212771Y-68982158D01*
X111222875Y-69052432D01*
X111193381Y-69117012D01*
X111133655Y-69155396D01*
X111119495Y-69158680D01*
X111014701Y-69176687D01*
X111003581Y-69179667D01*
X110814748Y-69249331D01*
X110804370Y-69254281D01*
X110631394Y-69357191D01*
X110622085Y-69363955D01*
X110470757Y-69496665D01*
X110462847Y-69505000D01*
X110338236Y-69663069D01*
X110331968Y-69672720D01*
X110238257Y-69850836D01*
X110233848Y-69861479D01*
X110174167Y-70053684D01*
X110171773Y-70064946D01*
X110152437Y-70228322D01*
X110152336Y-70230029D01*
X110156475Y-70244124D01*
X110157865Y-70245329D01*
X110165548Y-70247000D01*
X112449884Y-70247000D01*
X112464429Y-70242729D01*
X112466492Y-70230595D01*
X112454016Y-70094824D01*
X112451918Y-70083503D01*
X112397287Y-69889797D01*
X112393163Y-69879050D01*
X112304141Y-69698534D01*
X112298131Y-69688727D01*
X112177701Y-69527451D01*
X112170011Y-69518911D01*
X112022206Y-69382280D01*
X112013081Y-69375279D01*
X111842856Y-69267875D01*
X111832609Y-69262654D01*
X111645663Y-69188070D01*
X111634635Y-69184803D01*
X111500282Y-69158079D01*
X111437372Y-69125172D01*
X111402240Y-69063477D01*
X111406040Y-68992582D01*
X111447566Y-68934996D01*
X111513632Y-68909002D01*
X111524863Y-68908500D01*
X118348157Y-68908500D01*
X118416278Y-68928502D01*
X118462771Y-68982158D01*
X118472875Y-69052432D01*
X118443381Y-69117012D01*
X118383655Y-69155396D01*
X118369495Y-69158680D01*
X118264701Y-69176687D01*
X118253581Y-69179667D01*
X118064748Y-69249331D01*
X118054370Y-69254281D01*
X117881394Y-69357191D01*
X117872085Y-69363955D01*
X117720757Y-69496665D01*
X117712847Y-69505000D01*
X117588236Y-69663069D01*
X117581968Y-69672720D01*
X117488257Y-69850836D01*
X117483848Y-69861479D01*
X117424167Y-70053684D01*
X117421773Y-70064946D01*
X117402437Y-70228322D01*
X117402336Y-70230029D01*
X117406475Y-70244124D01*
X117407865Y-70245329D01*
X117415548Y-70247000D01*
X119699884Y-70247000D01*
X119714429Y-70242729D01*
X119716492Y-70230595D01*
X119704016Y-70094824D01*
X119701918Y-70083503D01*
X119647287Y-69889797D01*
X119643163Y-69879050D01*
X119554141Y-69698534D01*
X119548131Y-69688727D01*
X119427701Y-69527451D01*
X119420011Y-69518911D01*
X119272206Y-69382280D01*
X119263081Y-69375279D01*
X119092856Y-69267875D01*
X119082609Y-69262654D01*
X118895663Y-69188070D01*
X118884635Y-69184803D01*
X118750282Y-69158079D01*
X118687372Y-69125172D01*
X118652240Y-69063477D01*
X118656040Y-68992582D01*
X118697566Y-68934996D01*
X118763632Y-68909002D01*
X118774863Y-68908500D01*
X125394633Y-68908500D01*
X125462754Y-68928502D01*
X125509247Y-68982158D01*
X125519351Y-69052432D01*
X125489857Y-69117012D01*
X125423833Y-69157070D01*
X125419204Y-69158173D01*
X125414091Y-69158955D01*
X125409178Y-69160561D01*
X125409173Y-69160562D01*
X125325014Y-69188070D01*
X125201756Y-69228357D01*
X125003607Y-69331507D01*
X124999474Y-69334610D01*
X124999471Y-69334612D01*
X124829100Y-69462530D01*
X124824965Y-69465635D01*
X124670629Y-69627138D01*
X124667720Y-69631403D01*
X124667714Y-69631411D01*
X124639535Y-69672720D01*
X124544743Y-69811680D01*
X124450688Y-70014305D01*
X124390989Y-70229570D01*
X124367251Y-70451695D01*
X124367548Y-70456848D01*
X124367548Y-70456851D01*
X124373011Y-70551590D01*
X124380110Y-70674715D01*
X124381247Y-70679761D01*
X124381248Y-70679767D01*
X124394597Y-70739000D01*
X124429222Y-70892639D01*
X124513266Y-71099616D01*
X124563863Y-71182183D01*
X124627291Y-71285688D01*
X124629987Y-71290088D01*
X124776250Y-71458938D01*
X124780230Y-71462242D01*
X124784981Y-71466187D01*
X124824616Y-71525090D01*
X124826113Y-71596071D01*
X124788997Y-71656593D01*
X124748725Y-71681112D01*
X124706304Y-71697015D01*
X124633295Y-71724385D01*
X124516739Y-71811739D01*
X124429385Y-71928295D01*
X124378255Y-72064684D01*
X124371500Y-72126866D01*
X124371500Y-73923134D01*
X124378255Y-73985316D01*
X124429385Y-74121705D01*
X124516739Y-74238261D01*
X124633295Y-74325615D01*
X124769684Y-74376745D01*
X124831866Y-74383500D01*
X125540761Y-74383500D01*
X125608882Y-74403502D01*
X125629856Y-74420405D01*
X127113023Y-75903572D01*
X127176519Y-75967067D01*
X127176523Y-75967072D01*
X127370595Y-76161144D01*
X127404621Y-76223456D01*
X127407500Y-76250239D01*
X127407500Y-79533710D01*
X127387498Y-79601831D01*
X127375136Y-79618020D01*
X127286466Y-79716498D01*
X127276960Y-79727056D01*
X127256879Y-79761837D01*
X127200455Y-79859567D01*
X127181473Y-79892444D01*
X127122458Y-80074072D01*
X127121768Y-80080633D01*
X127121768Y-80080635D01*
X127106580Y-80225144D01*
X127102496Y-80264000D01*
X127103186Y-80270565D01*
X127117894Y-80410500D01*
X127122458Y-80453928D01*
X127181473Y-80635556D01*
X127184776Y-80641278D01*
X127184777Y-80641279D01*
X127190716Y-80651565D01*
X127276960Y-80800944D01*
X127281378Y-80805851D01*
X127281379Y-80805852D01*
X127325753Y-80855134D01*
X127404747Y-80942866D01*
X127559248Y-81055118D01*
X127565276Y-81057802D01*
X127565278Y-81057803D01*
X127721262Y-81127251D01*
X127733712Y-81132794D01*
X127812505Y-81149542D01*
X127914056Y-81171128D01*
X127914061Y-81171128D01*
X127920513Y-81172500D01*
X128111487Y-81172500D01*
X128117939Y-81171128D01*
X128117944Y-81171128D01*
X128219495Y-81149542D01*
X128298288Y-81132794D01*
X128310738Y-81127251D01*
X128466722Y-81057803D01*
X128466724Y-81057802D01*
X128472752Y-81055118D01*
X128627253Y-80942866D01*
X128706247Y-80855134D01*
X128750621Y-80805852D01*
X128750622Y-80805851D01*
X128755040Y-80800944D01*
X128841284Y-80651565D01*
X128847223Y-80641279D01*
X128847224Y-80641278D01*
X128850527Y-80635556D01*
X128909542Y-80453928D01*
X128914107Y-80410500D01*
X128928814Y-80270565D01*
X128929504Y-80264000D01*
X128925420Y-80225144D01*
X128910232Y-80080635D01*
X128910232Y-80080633D01*
X128909542Y-80074072D01*
X128850527Y-79892444D01*
X128831546Y-79859567D01*
X128775121Y-79761837D01*
X128755040Y-79727056D01*
X128745534Y-79716498D01*
X128656864Y-79618020D01*
X128626146Y-79554013D01*
X128624500Y-79533710D01*
X128624500Y-77724670D01*
X128644502Y-77656549D01*
X128698158Y-77610056D01*
X128768432Y-77599952D01*
X128833012Y-77629446D01*
X128840912Y-77637830D01*
X128841146Y-77637596D01*
X128846987Y-77643437D01*
X128852013Y-77649987D01*
X128858563Y-77655013D01*
X128883925Y-77674474D01*
X128883928Y-77674477D01*
X128945925Y-77722049D01*
X128979124Y-77747524D01*
X129127149Y-77808838D01*
X129135336Y-77809916D01*
X129135337Y-77809916D01*
X129146542Y-77811391D01*
X129177738Y-77815498D01*
X129246115Y-77824500D01*
X129246118Y-77824500D01*
X129246126Y-77824501D01*
X129277811Y-77828672D01*
X129286000Y-77829750D01*
X129317693Y-77825578D01*
X129334136Y-77824500D01*
X130841290Y-77824500D01*
X130909411Y-77844502D01*
X130934926Y-77866189D01*
X130960747Y-77894866D01*
X131115248Y-78007118D01*
X131121276Y-78009802D01*
X131121278Y-78009803D01*
X131139330Y-78017840D01*
X131289712Y-78084794D01*
X131354203Y-78098502D01*
X131470056Y-78123128D01*
X131470061Y-78123128D01*
X131476513Y-78124500D01*
X131667487Y-78124500D01*
X131673939Y-78123128D01*
X131673944Y-78123128D01*
X131789797Y-78098502D01*
X131854288Y-78084794D01*
X132004670Y-78017840D01*
X132022722Y-78009803D01*
X132022724Y-78009802D01*
X132028752Y-78007118D01*
X132183253Y-77894866D01*
X132311040Y-77752944D01*
X132406527Y-77587556D01*
X132465542Y-77405928D01*
X132485504Y-77216000D01*
X132478080Y-77145365D01*
X132466232Y-77032635D01*
X132466232Y-77032633D01*
X132465542Y-77026072D01*
X132406527Y-76844444D01*
X132397925Y-76829544D01*
X132361001Y-76765591D01*
X132311040Y-76679056D01*
X132285064Y-76650206D01*
X132187675Y-76542045D01*
X132187674Y-76542044D01*
X132183253Y-76537134D01*
X132171281Y-76528436D01*
X132127928Y-76472215D01*
X132121851Y-76401479D01*
X132154983Y-76338687D01*
X132216802Y-76303775D01*
X132245342Y-76300500D01*
X135077761Y-76300500D01*
X135145882Y-76320502D01*
X135166856Y-76337405D01*
X136514595Y-77685144D01*
X136548621Y-77747456D01*
X136551500Y-77774239D01*
X136551500Y-81565710D01*
X136531498Y-81633831D01*
X136519136Y-81650020D01*
X136425379Y-81754148D01*
X136420960Y-81759056D01*
X136325473Y-81924444D01*
X136266458Y-82106072D01*
X136265768Y-82112633D01*
X136265768Y-82112635D01*
X136255234Y-82212866D01*
X136246496Y-82296000D01*
X136266458Y-82485928D01*
X136325473Y-82667556D01*
X136420960Y-82832944D01*
X136548747Y-82974866D01*
X136560719Y-82983564D01*
X136604072Y-83039785D01*
X136610149Y-83110521D01*
X136577017Y-83173313D01*
X136515198Y-83208225D01*
X136486658Y-83211500D01*
X132302710Y-83211500D01*
X132234589Y-83191498D01*
X132209074Y-83169811D01*
X132187668Y-83146037D01*
X132187666Y-83146036D01*
X132183253Y-83141134D01*
X132093442Y-83075882D01*
X132034094Y-83032763D01*
X132034093Y-83032762D01*
X132028752Y-83028882D01*
X132022724Y-83026198D01*
X132022722Y-83026197D01*
X131860319Y-82953891D01*
X131860318Y-82953891D01*
X131854288Y-82951206D01*
X131760888Y-82931353D01*
X131673944Y-82912872D01*
X131673939Y-82912872D01*
X131667487Y-82911500D01*
X131476513Y-82911500D01*
X131470061Y-82912872D01*
X131470056Y-82912872D01*
X131383112Y-82931353D01*
X131289712Y-82951206D01*
X131283682Y-82953891D01*
X131283681Y-82953891D01*
X131121278Y-83026197D01*
X131121276Y-83026198D01*
X131115248Y-83028882D01*
X131109907Y-83032762D01*
X131109906Y-83032763D01*
X131059843Y-83069136D01*
X130960747Y-83141134D01*
X130956326Y-83146044D01*
X130956325Y-83146045D01*
X130850241Y-83263864D01*
X130832960Y-83283056D01*
X130737473Y-83448444D01*
X130678458Y-83630072D01*
X130677768Y-83636633D01*
X130677768Y-83636635D01*
X130665746Y-83751016D01*
X130658496Y-83820000D01*
X130659186Y-83826565D01*
X130673824Y-83965834D01*
X130678458Y-84009928D01*
X130737473Y-84191556D01*
X130832960Y-84356944D01*
X130857165Y-84383827D01*
X130887881Y-84447831D01*
X130879118Y-84518285D01*
X130837589Y-84570071D01*
X130805429Y-84593437D01*
X130706747Y-84665134D01*
X130653258Y-84724540D01*
X130592812Y-84761779D01*
X130521828Y-84760427D01*
X130462844Y-84720913D01*
X130436630Y-84658882D01*
X130435606Y-84659100D01*
X130434477Y-84653788D01*
X130434312Y-84653398D01*
X130434232Y-84652636D01*
X130434232Y-84652635D01*
X130433542Y-84646072D01*
X130374527Y-84464444D01*
X130364936Y-84447831D01*
X130282341Y-84304774D01*
X130279040Y-84299056D01*
X130151253Y-84157134D01*
X129996752Y-84044882D01*
X129990724Y-84042198D01*
X129990722Y-84042197D01*
X129828319Y-83969891D01*
X129828318Y-83969891D01*
X129822288Y-83967206D01*
X129728888Y-83947353D01*
X129641944Y-83928872D01*
X129641939Y-83928872D01*
X129635487Y-83927500D01*
X129444513Y-83927500D01*
X129438061Y-83928872D01*
X129438056Y-83928872D01*
X129351112Y-83947353D01*
X129257712Y-83967206D01*
X129251682Y-83969891D01*
X129251681Y-83969891D01*
X129089278Y-84042197D01*
X129089276Y-84042198D01*
X129083248Y-84044882D01*
X128928747Y-84157134D01*
X128800960Y-84299056D01*
X128797659Y-84304774D01*
X128774010Y-84345735D01*
X128722628Y-84394728D01*
X128652914Y-84408164D01*
X128590830Y-84384671D01*
X128478094Y-84302763D01*
X128478093Y-84302762D01*
X128472752Y-84298882D01*
X128466724Y-84296198D01*
X128466722Y-84296197D01*
X128304319Y-84223891D01*
X128304318Y-84223891D01*
X128298288Y-84221206D01*
X128185721Y-84197279D01*
X128117944Y-84182872D01*
X128117939Y-84182872D01*
X128111487Y-84181500D01*
X127920513Y-84181500D01*
X127914061Y-84182872D01*
X127914056Y-84182872D01*
X127846279Y-84197279D01*
X127733712Y-84221206D01*
X127727682Y-84223891D01*
X127727681Y-84223891D01*
X127565278Y-84296197D01*
X127565276Y-84296198D01*
X127559248Y-84298882D01*
X127404747Y-84411134D01*
X127400326Y-84416044D01*
X127400325Y-84416045D01*
X127356747Y-84464444D01*
X127276960Y-84553056D01*
X127265773Y-84572432D01*
X127209419Y-84670041D01*
X127181473Y-84718444D01*
X127122458Y-84900072D01*
X127120174Y-84899330D01*
X127091622Y-84952189D01*
X127029465Y-84986497D01*
X127002122Y-84989500D01*
X122650710Y-84989500D01*
X122582589Y-84969498D01*
X122557074Y-84947811D01*
X122535668Y-84924037D01*
X122535666Y-84924036D01*
X122531253Y-84919134D01*
X122503995Y-84899330D01*
X122382094Y-84810763D01*
X122382093Y-84810762D01*
X122376752Y-84806882D01*
X122370724Y-84804198D01*
X122370722Y-84804197D01*
X122208319Y-84731891D01*
X122208318Y-84731891D01*
X122202288Y-84729206D01*
X122108888Y-84709353D01*
X122021944Y-84690872D01*
X122021939Y-84690872D01*
X122015487Y-84689500D01*
X121824513Y-84689500D01*
X121818061Y-84690872D01*
X121818056Y-84690872D01*
X121731112Y-84709353D01*
X121637712Y-84729206D01*
X121631682Y-84731891D01*
X121631681Y-84731891D01*
X121469278Y-84804197D01*
X121469276Y-84804198D01*
X121463248Y-84806882D01*
X121457907Y-84810762D01*
X121457906Y-84810763D01*
X121444529Y-84820482D01*
X121308747Y-84919134D01*
X121304326Y-84924044D01*
X121304325Y-84924045D01*
X121260747Y-84972444D01*
X121180960Y-85061056D01*
X121085473Y-85226444D01*
X121026458Y-85408072D01*
X121025768Y-85414633D01*
X121025768Y-85414635D01*
X121020527Y-85464502D01*
X121006496Y-85598000D01*
X121007186Y-85604565D01*
X121022315Y-85748505D01*
X121026458Y-85787928D01*
X121085473Y-85969556D01*
X121180960Y-86134944D01*
X121185378Y-86139851D01*
X121185379Y-86139852D01*
X121308747Y-86276866D01*
X121306868Y-86278558D01*
X121338136Y-86329328D01*
X121336774Y-86400312D01*
X121297251Y-86459290D01*
X121232116Y-86487539D01*
X121216581Y-86488500D01*
X107774768Y-86488500D01*
X107763585Y-86487973D01*
X107756092Y-86486298D01*
X107748166Y-86486547D01*
X107748165Y-86486547D01*
X107688002Y-86488438D01*
X107684044Y-86488500D01*
X107656144Y-86488500D01*
X107652154Y-86489004D01*
X107640320Y-86489936D01*
X107596111Y-86491326D01*
X107588497Y-86493538D01*
X107588492Y-86493539D01*
X107576659Y-86496977D01*
X107557296Y-86500988D01*
X107537203Y-86503526D01*
X107529836Y-86506443D01*
X107529831Y-86506444D01*
X107496092Y-86519802D01*
X107484865Y-86523646D01*
X107442407Y-86535982D01*
X107435581Y-86540019D01*
X107424972Y-86546293D01*
X107407224Y-86554988D01*
X107388383Y-86562448D01*
X107381967Y-86567110D01*
X107381966Y-86567110D01*
X107352613Y-86588436D01*
X107342693Y-86594952D01*
X107311465Y-86613420D01*
X107311462Y-86613422D01*
X107304638Y-86617458D01*
X107290317Y-86631779D01*
X107275284Y-86644619D01*
X107258893Y-86656528D01*
X107253840Y-86662636D01*
X107230708Y-86690598D01*
X107222718Y-86699378D01*
X106983501Y-86938595D01*
X106921189Y-86972621D01*
X106894406Y-86975500D01*
X106838513Y-86975500D01*
X106832061Y-86976872D01*
X106832056Y-86976872D01*
X106745113Y-86995353D01*
X106651712Y-87015206D01*
X106645682Y-87017891D01*
X106645681Y-87017891D01*
X106483278Y-87090197D01*
X106483276Y-87090198D01*
X106477248Y-87092882D01*
X106322747Y-87205134D01*
X106194960Y-87347056D01*
X106099473Y-87512444D01*
X106040458Y-87694072D01*
X106020496Y-87884000D01*
X106021186Y-87890565D01*
X106033125Y-88004154D01*
X106040458Y-88073928D01*
X106099473Y-88255556D01*
X106102776Y-88261278D01*
X106102777Y-88261279D01*
X106110378Y-88274444D01*
X106194960Y-88420944D01*
X106199378Y-88425851D01*
X106199379Y-88425852D01*
X106306455Y-88544772D01*
X106322747Y-88562866D01*
X106368067Y-88595793D01*
X106446207Y-88652565D01*
X106477248Y-88675118D01*
X106483276Y-88677802D01*
X106483278Y-88677803D01*
X106608415Y-88733517D01*
X106651712Y-88752794D01*
X106745112Y-88772647D01*
X106832056Y-88791128D01*
X106832061Y-88791128D01*
X106838513Y-88792500D01*
X107029487Y-88792500D01*
X107035939Y-88791128D01*
X107035944Y-88791128D01*
X107122888Y-88772647D01*
X107216288Y-88752794D01*
X107259585Y-88733517D01*
X107384722Y-88677803D01*
X107384724Y-88677802D01*
X107390752Y-88675118D01*
X107421794Y-88652565D01*
X107499933Y-88595793D01*
X107545253Y-88562866D01*
X107561545Y-88544772D01*
X107668621Y-88425852D01*
X107668622Y-88425851D01*
X107673040Y-88420944D01*
X107757622Y-88274444D01*
X107765223Y-88261279D01*
X107765224Y-88261278D01*
X107768527Y-88255556D01*
X107827542Y-88073928D01*
X107834876Y-88004154D01*
X107844907Y-87908708D01*
X107871920Y-87843051D01*
X107881123Y-87832781D01*
X107921502Y-87792403D01*
X107983814Y-87758379D01*
X108010596Y-87755500D01*
X121423605Y-87755500D01*
X121491726Y-87775502D01*
X121538219Y-87829158D01*
X121548323Y-87899432D01*
X121543437Y-87920438D01*
X121536498Y-87941792D01*
X121536497Y-87941797D01*
X121534458Y-87948072D01*
X121533768Y-87954633D01*
X121533768Y-87954635D01*
X121518054Y-88104148D01*
X121514496Y-88138000D01*
X121514684Y-88139786D01*
X121495184Y-88206196D01*
X121478281Y-88227170D01*
X117967766Y-91737685D01*
X117955375Y-91748552D01*
X117930013Y-91768013D01*
X117905526Y-91799925D01*
X117905523Y-91799928D01*
X117903806Y-91802166D01*
X117875444Y-91839128D01*
X117832476Y-91895124D01*
X117771162Y-92043149D01*
X117771162Y-92043150D01*
X117769414Y-92056426D01*
X117768212Y-92065556D01*
X117755500Y-92162115D01*
X117755500Y-92162120D01*
X117750250Y-92202000D01*
X117751328Y-92210188D01*
X117754422Y-92233690D01*
X117755500Y-92250136D01*
X117755500Y-95789710D01*
X117735498Y-95857831D01*
X117723136Y-95874020D01*
X117624960Y-95983056D01*
X117529473Y-96148444D01*
X117470458Y-96330072D01*
X117450496Y-96520000D01*
X117451186Y-96526565D01*
X117466748Y-96674625D01*
X117470458Y-96709928D01*
X117529473Y-96891556D01*
X117624960Y-97056944D01*
X117752747Y-97198866D01*
X117907248Y-97311118D01*
X117913276Y-97313802D01*
X117913278Y-97313803D01*
X118075681Y-97386109D01*
X118081712Y-97388794D01*
X118175112Y-97408647D01*
X118262056Y-97427128D01*
X118262061Y-97427128D01*
X118268513Y-97428500D01*
X118459487Y-97428500D01*
X118465939Y-97427128D01*
X118465944Y-97427128D01*
X118552888Y-97408647D01*
X118646288Y-97388794D01*
X118652319Y-97386109D01*
X118814722Y-97313803D01*
X118814724Y-97313802D01*
X118820752Y-97311118D01*
X118975253Y-97198866D01*
X119103040Y-97056944D01*
X119198527Y-96891556D01*
X119257542Y-96709928D01*
X119261253Y-96674625D01*
X119276814Y-96526565D01*
X119277504Y-96520000D01*
X119257542Y-96330072D01*
X119198527Y-96148444D01*
X119103040Y-95983056D01*
X119004864Y-95874020D01*
X118974146Y-95810013D01*
X118972500Y-95789710D01*
X118972500Y-92506239D01*
X118992502Y-92438118D01*
X119009405Y-92417144D01*
X120574627Y-90851922D01*
X120636939Y-90817896D01*
X120707754Y-90822961D01*
X120764590Y-90865508D01*
X120783555Y-90902081D01*
X120831473Y-91049556D01*
X120926960Y-91214944D01*
X120931378Y-91219851D01*
X120931379Y-91219852D01*
X121018600Y-91316721D01*
X121054747Y-91356866D01*
X121153843Y-91428864D01*
X121182877Y-91449958D01*
X121209248Y-91469118D01*
X121215276Y-91471802D01*
X121215278Y-91471803D01*
X121287756Y-91504072D01*
X121383712Y-91546794D01*
X121447888Y-91560435D01*
X121564056Y-91585128D01*
X121564061Y-91585128D01*
X121570513Y-91586500D01*
X121761487Y-91586500D01*
X121767939Y-91585128D01*
X121767944Y-91585128D01*
X121884112Y-91560435D01*
X121948288Y-91546794D01*
X122044244Y-91504072D01*
X122116722Y-91471803D01*
X122116724Y-91471802D01*
X122122752Y-91469118D01*
X122149124Y-91449958D01*
X122178157Y-91428864D01*
X122277253Y-91356866D01*
X122313400Y-91316721D01*
X122400621Y-91219852D01*
X122400622Y-91219851D01*
X122405040Y-91214944D01*
X122500527Y-91049556D01*
X122559542Y-90867928D01*
X122562636Y-90838495D01*
X122578814Y-90684565D01*
X122579504Y-90678000D01*
X122579316Y-90676214D01*
X122598816Y-90609804D01*
X122615719Y-90588830D01*
X124906405Y-88298144D01*
X124968717Y-88264118D01*
X125039532Y-88269183D01*
X125096368Y-88311730D01*
X125121179Y-88378250D01*
X125121500Y-88387239D01*
X125121500Y-89947710D01*
X125101498Y-90015831D01*
X125089136Y-90032020D01*
X125061056Y-90063206D01*
X124990960Y-90141056D01*
X124987659Y-90146774D01*
X124900926Y-90297000D01*
X124895473Y-90306444D01*
X124836458Y-90488072D01*
X124835768Y-90494633D01*
X124835768Y-90494635D01*
X124818401Y-90659872D01*
X124816496Y-90678000D01*
X124817186Y-90684565D01*
X124833365Y-90838495D01*
X124836458Y-90867928D01*
X124895473Y-91049556D01*
X124990960Y-91214944D01*
X124995378Y-91219851D01*
X124995379Y-91219852D01*
X125082600Y-91316721D01*
X125118747Y-91356866D01*
X125217843Y-91428864D01*
X125246877Y-91449958D01*
X125273248Y-91469118D01*
X125279276Y-91471802D01*
X125279278Y-91471803D01*
X125351756Y-91504072D01*
X125447712Y-91546794D01*
X125511888Y-91560435D01*
X125628056Y-91585128D01*
X125628061Y-91585128D01*
X125634513Y-91586500D01*
X125825487Y-91586500D01*
X125831939Y-91585128D01*
X125831944Y-91585128D01*
X125948112Y-91560435D01*
X126012288Y-91546794D01*
X126108244Y-91504072D01*
X126180722Y-91471803D01*
X126180724Y-91471802D01*
X126186752Y-91469118D01*
X126213124Y-91449958D01*
X126242157Y-91428864D01*
X126341253Y-91356866D01*
X126377400Y-91316721D01*
X126464621Y-91219852D01*
X126464622Y-91219851D01*
X126469040Y-91214944D01*
X126564527Y-91049556D01*
X126623542Y-90867928D01*
X126626636Y-90838495D01*
X126642814Y-90684565D01*
X126643504Y-90678000D01*
X126641599Y-90659872D01*
X126624232Y-90494635D01*
X126624232Y-90494633D01*
X126623542Y-90488072D01*
X126564527Y-90306444D01*
X126559075Y-90297000D01*
X126472341Y-90146774D01*
X126469040Y-90141056D01*
X126398944Y-90063206D01*
X126370864Y-90032020D01*
X126340146Y-89968013D01*
X126338500Y-89947710D01*
X126338500Y-89172500D01*
X126358502Y-89104379D01*
X126412158Y-89057886D01*
X126464500Y-89046500D01*
X126587487Y-89046500D01*
X126593939Y-89045128D01*
X126593944Y-89045128D01*
X126680888Y-89026647D01*
X126774288Y-89006794D01*
X126906037Y-88948136D01*
X126942722Y-88931803D01*
X126942724Y-88931802D01*
X126948752Y-88929118D01*
X127103253Y-88816866D01*
X127231040Y-88674944D01*
X127326527Y-88509556D01*
X127361236Y-88402733D01*
X127391974Y-88352575D01*
X127753981Y-87990568D01*
X127816293Y-87956542D01*
X127887108Y-87961607D01*
X127943944Y-88004154D01*
X127952195Y-88016663D01*
X128038960Y-88166944D01*
X128112137Y-88248215D01*
X128142853Y-88312221D01*
X128144500Y-88332524D01*
X128144500Y-91361233D01*
X128143973Y-91372416D01*
X128142298Y-91379909D01*
X128142547Y-91387835D01*
X128142547Y-91387836D01*
X128144438Y-91447986D01*
X128144500Y-91451945D01*
X128144500Y-91465720D01*
X128141747Y-91491914D01*
X128140496Y-91497798D01*
X128138458Y-91504072D01*
X128137768Y-91510633D01*
X128137768Y-91510635D01*
X128124053Y-91641124D01*
X128118496Y-91694000D01*
X128119186Y-91700565D01*
X128133894Y-91840500D01*
X128138458Y-91883928D01*
X128197473Y-92065556D01*
X128292960Y-92230944D01*
X128297378Y-92235851D01*
X128297379Y-92235852D01*
X128341753Y-92285134D01*
X128420747Y-92372866D01*
X128481690Y-92417144D01*
X128560122Y-92474128D01*
X128575248Y-92485118D01*
X128581276Y-92487802D01*
X128581278Y-92487803D01*
X128743681Y-92560109D01*
X128749712Y-92562794D01*
X128843113Y-92582647D01*
X128930056Y-92601128D01*
X128930061Y-92601128D01*
X128936513Y-92602500D01*
X129127487Y-92602500D01*
X129133939Y-92601128D01*
X129133944Y-92601128D01*
X129220887Y-92582647D01*
X129314288Y-92562794D01*
X129320319Y-92560109D01*
X129482722Y-92487803D01*
X129482724Y-92487802D01*
X129488752Y-92485118D01*
X129503879Y-92474128D01*
X129582310Y-92417144D01*
X129643253Y-92372866D01*
X129722247Y-92285134D01*
X129766621Y-92235852D01*
X129766622Y-92235851D01*
X129771040Y-92230944D01*
X129866527Y-92065556D01*
X129925542Y-91883928D01*
X129930107Y-91840500D01*
X129944814Y-91700565D01*
X129945504Y-91694000D01*
X129939947Y-91641124D01*
X129926232Y-91510635D01*
X129926232Y-91510633D01*
X129925542Y-91504072D01*
X129866527Y-91322444D01*
X129771040Y-91157056D01*
X129745064Y-91128206D01*
X129647675Y-91020045D01*
X129647674Y-91020044D01*
X129643253Y-91015134D01*
X129519886Y-90925502D01*
X129494094Y-90906763D01*
X129494093Y-90906762D01*
X129488752Y-90902882D01*
X129482722Y-90900197D01*
X129476999Y-90896893D01*
X129478155Y-90894891D01*
X129432144Y-90855771D01*
X129411500Y-90786661D01*
X129411500Y-88364500D01*
X129431502Y-88296379D01*
X129485158Y-88249886D01*
X129537500Y-88238500D01*
X130333290Y-88238500D01*
X130401411Y-88258502D01*
X130426926Y-88280189D01*
X130441504Y-88296379D01*
X130452747Y-88308866D01*
X130607248Y-88421118D01*
X130613107Y-88423727D01*
X130662052Y-88475058D01*
X130675488Y-88544772D01*
X130660429Y-88591882D01*
X130659476Y-88593124D01*
X130615672Y-88698876D01*
X130598162Y-88741150D01*
X130582500Y-88860115D01*
X130582500Y-88860120D01*
X130577250Y-88900000D01*
X130578328Y-88908188D01*
X130581422Y-88931690D01*
X130582500Y-88948136D01*
X130582500Y-92126663D01*
X130562498Y-92194784D01*
X130530561Y-92228599D01*
X130452747Y-92285134D01*
X130448326Y-92290044D01*
X130448325Y-92290045D01*
X130370257Y-92376749D01*
X130324960Y-92427056D01*
X130229473Y-92592444D01*
X130170458Y-92774072D01*
X130169768Y-92780633D01*
X130169768Y-92780635D01*
X130161720Y-92857206D01*
X130150496Y-92964000D01*
X130151186Y-92970565D01*
X130158826Y-93043251D01*
X130170458Y-93153928D01*
X130229473Y-93335556D01*
X130232776Y-93341278D01*
X130232777Y-93341279D01*
X130244007Y-93360729D01*
X130324960Y-93500944D01*
X130329378Y-93505851D01*
X130329379Y-93505852D01*
X130356589Y-93536072D01*
X130452747Y-93642866D01*
X130551843Y-93714864D01*
X130576207Y-93732565D01*
X130607248Y-93755118D01*
X130613276Y-93757802D01*
X130613278Y-93757803D01*
X130775681Y-93830109D01*
X130781712Y-93832794D01*
X130875113Y-93852647D01*
X130962056Y-93871128D01*
X130962061Y-93871128D01*
X130968513Y-93872500D01*
X131159487Y-93872500D01*
X131165939Y-93871128D01*
X131165944Y-93871128D01*
X131252887Y-93852647D01*
X131346288Y-93832794D01*
X131352319Y-93830109D01*
X131514722Y-93757803D01*
X131514724Y-93757802D01*
X131520752Y-93755118D01*
X131551794Y-93732565D01*
X131576157Y-93714864D01*
X131675253Y-93642866D01*
X131771411Y-93536072D01*
X131798621Y-93505852D01*
X131798622Y-93505851D01*
X131803040Y-93500944D01*
X131883993Y-93360729D01*
X131895223Y-93341279D01*
X131895224Y-93341278D01*
X131898527Y-93335556D01*
X131957542Y-93153928D01*
X131969175Y-93043251D01*
X131976814Y-92970565D01*
X131977504Y-92964000D01*
X131966280Y-92857206D01*
X131958232Y-92780635D01*
X131958232Y-92780633D01*
X131957542Y-92774072D01*
X131898527Y-92592444D01*
X131879859Y-92560109D01*
X131816381Y-92450163D01*
X131799500Y-92387163D01*
X131799500Y-89204239D01*
X131819502Y-89136118D01*
X131836405Y-89115144D01*
X133365234Y-87586315D01*
X133377625Y-87575448D01*
X133396437Y-87561013D01*
X133402987Y-87555987D01*
X133427474Y-87524075D01*
X133427478Y-87524071D01*
X133500524Y-87428876D01*
X133561838Y-87280851D01*
X133582751Y-87122000D01*
X133578578Y-87090301D01*
X133577500Y-87073856D01*
X133577500Y-86802525D01*
X133597502Y-86734404D01*
X133651158Y-86687911D01*
X133721432Y-86677807D01*
X133754746Y-86687417D01*
X133829712Y-86720794D01*
X133922915Y-86740605D01*
X134010056Y-86759128D01*
X134010061Y-86759128D01*
X134016513Y-86760500D01*
X134107761Y-86760500D01*
X134175882Y-86780502D01*
X134196856Y-86797405D01*
X135244595Y-87845144D01*
X135278621Y-87907456D01*
X135281500Y-87934239D01*
X135281500Y-94693864D01*
X135280422Y-94710307D01*
X135276250Y-94742000D01*
X135281500Y-94781880D01*
X135281500Y-94781885D01*
X135290309Y-94848794D01*
X135297162Y-94900851D01*
X135358476Y-95048876D01*
X135363503Y-95055427D01*
X135363504Y-95055429D01*
X135431520Y-95144069D01*
X135431526Y-95144075D01*
X135456013Y-95175987D01*
X135462568Y-95181017D01*
X135481379Y-95195452D01*
X135493770Y-95206319D01*
X136949685Y-96662234D01*
X136960552Y-96674625D01*
X136980013Y-96699987D01*
X136986563Y-96705013D01*
X137011925Y-96724474D01*
X137011928Y-96724477D01*
X137081318Y-96777722D01*
X137100570Y-96792495D01*
X137100572Y-96792496D01*
X137107125Y-96797524D01*
X137255150Y-96858838D01*
X137374115Y-96874500D01*
X137374120Y-96874500D01*
X137374129Y-96874501D01*
X137405812Y-96878672D01*
X137414000Y-96879750D01*
X137445693Y-96875578D01*
X137462136Y-96874500D01*
X140159864Y-96874500D01*
X140176307Y-96875578D01*
X140208000Y-96879750D01*
X140216189Y-96878672D01*
X140247874Y-96874501D01*
X140247884Y-96874500D01*
X140247885Y-96874500D01*
X140247901Y-96874498D01*
X140347457Y-96861391D01*
X140358664Y-96859916D01*
X140358666Y-96859915D01*
X140366851Y-96858838D01*
X140514876Y-96797524D01*
X140540683Y-96777722D01*
X140610072Y-96724477D01*
X140610075Y-96724474D01*
X140620850Y-96716206D01*
X140641987Y-96699987D01*
X140647017Y-96693432D01*
X140661452Y-96674621D01*
X140672319Y-96662230D01*
X142663144Y-94671405D01*
X142725456Y-94637379D01*
X142752239Y-94634500D01*
X142843487Y-94634500D01*
X142849939Y-94633128D01*
X142849944Y-94633128D01*
X142936887Y-94614647D01*
X143030288Y-94594794D01*
X143126244Y-94552072D01*
X143198722Y-94519803D01*
X143198724Y-94519802D01*
X143204752Y-94517118D01*
X143359253Y-94404866D01*
X143487040Y-94262944D01*
X143582527Y-94097556D01*
X143641542Y-93915928D01*
X143646107Y-93872500D01*
X143660814Y-93732565D01*
X143661504Y-93726000D01*
X143660814Y-93719435D01*
X143642232Y-93542635D01*
X143642232Y-93542633D01*
X143641542Y-93536072D01*
X143582527Y-93354444D01*
X143487040Y-93189056D01*
X143461064Y-93160206D01*
X143363675Y-93052045D01*
X143363674Y-93052044D01*
X143359253Y-93047134D01*
X143244829Y-92964000D01*
X143210094Y-92938763D01*
X143210093Y-92938762D01*
X143204752Y-92934882D01*
X143198724Y-92932198D01*
X143198722Y-92932197D01*
X143036319Y-92859891D01*
X143036318Y-92859891D01*
X143030288Y-92857206D01*
X142936888Y-92837353D01*
X142849944Y-92818872D01*
X142849939Y-92818872D01*
X142843487Y-92817500D01*
X142652513Y-92817500D01*
X142646061Y-92818872D01*
X142646056Y-92818872D01*
X142559112Y-92837353D01*
X142465712Y-92857206D01*
X142459682Y-92859891D01*
X142459681Y-92859891D01*
X142297278Y-92932197D01*
X142297276Y-92932198D01*
X142291248Y-92934882D01*
X142285907Y-92938762D01*
X142285906Y-92938763D01*
X142251171Y-92964000D01*
X142136747Y-93047134D01*
X142132326Y-93052044D01*
X142132325Y-93052045D01*
X142034937Y-93160206D01*
X142008960Y-93189056D01*
X141913473Y-93354444D01*
X141854458Y-93536072D01*
X141853768Y-93542633D01*
X141853768Y-93542635D01*
X141835186Y-93719435D01*
X141834496Y-93726000D01*
X141834684Y-93727786D01*
X141815184Y-93794196D01*
X141798281Y-93815170D01*
X139992856Y-95620595D01*
X139930544Y-95654621D01*
X139903761Y-95657500D01*
X138595342Y-95657500D01*
X138527221Y-95637498D01*
X138480728Y-95583842D01*
X138470624Y-95513568D01*
X138500118Y-95448988D01*
X138521280Y-95429565D01*
X138533253Y-95420866D01*
X138661040Y-95278944D01*
X138756527Y-95113556D01*
X138815542Y-94931928D01*
X138831313Y-94781880D01*
X138834814Y-94748565D01*
X138835504Y-94742000D01*
X138832173Y-94710310D01*
X138816232Y-94558635D01*
X138816232Y-94558633D01*
X138815542Y-94552072D01*
X138756527Y-94370444D01*
X138661040Y-94205056D01*
X138562864Y-94096020D01*
X138532146Y-94032013D01*
X138530500Y-94011710D01*
X138530500Y-92252239D01*
X138550502Y-92184118D01*
X138567405Y-92163144D01*
X138853144Y-91877405D01*
X138915456Y-91843379D01*
X138942239Y-91840500D01*
X139033487Y-91840500D01*
X139039939Y-91839128D01*
X139039944Y-91839128D01*
X139126887Y-91820647D01*
X139220288Y-91800794D01*
X139293916Y-91768013D01*
X139388722Y-91725803D01*
X139388724Y-91725802D01*
X139394752Y-91723118D01*
X139425794Y-91700565D01*
X139450157Y-91682864D01*
X139549253Y-91610866D01*
X139588750Y-91567000D01*
X143104496Y-91567000D01*
X143105186Y-91573565D01*
X143123578Y-91748552D01*
X143124458Y-91756928D01*
X143183473Y-91938556D01*
X143186776Y-91944278D01*
X143186777Y-91944279D01*
X143211950Y-91987880D01*
X143278960Y-92103944D01*
X143283378Y-92108851D01*
X143283379Y-92108852D01*
X143361399Y-92195502D01*
X143406747Y-92245866D01*
X143561248Y-92358118D01*
X143567276Y-92360802D01*
X143567278Y-92360803D01*
X143716086Y-92427056D01*
X143735712Y-92435794D01*
X143821595Y-92454049D01*
X143916056Y-92474128D01*
X143916061Y-92474128D01*
X143922513Y-92475500D01*
X144113487Y-92475500D01*
X144119939Y-92474128D01*
X144119944Y-92474128D01*
X144214405Y-92454049D01*
X144300288Y-92435794D01*
X144319914Y-92427056D01*
X144468722Y-92360803D01*
X144468724Y-92360802D01*
X144474752Y-92358118D01*
X144575206Y-92285134D01*
X144623376Y-92250136D01*
X144629253Y-92245866D01*
X144640217Y-92233690D01*
X144655074Y-92217189D01*
X144715520Y-92179950D01*
X144748710Y-92175500D01*
X147351290Y-92175500D01*
X147419411Y-92195502D01*
X147444926Y-92217189D01*
X147459784Y-92233690D01*
X147470747Y-92245866D01*
X147476624Y-92250136D01*
X147524795Y-92285134D01*
X147625248Y-92358118D01*
X147631276Y-92360802D01*
X147631278Y-92360803D01*
X147780086Y-92427056D01*
X147799712Y-92435794D01*
X147885595Y-92454049D01*
X147980056Y-92474128D01*
X147980061Y-92474128D01*
X147986513Y-92475500D01*
X148177487Y-92475500D01*
X148183939Y-92474128D01*
X148183944Y-92474128D01*
X148278405Y-92454049D01*
X148364288Y-92435794D01*
X148383914Y-92427056D01*
X148532722Y-92360803D01*
X148532724Y-92360802D01*
X148538752Y-92358118D01*
X148693253Y-92245866D01*
X148738601Y-92195502D01*
X148816621Y-92108852D01*
X148816622Y-92108851D01*
X148821040Y-92103944D01*
X148888050Y-91987880D01*
X148913223Y-91944279D01*
X148913224Y-91944278D01*
X148916527Y-91938556D01*
X148975542Y-91756928D01*
X148976423Y-91748552D01*
X148994814Y-91573565D01*
X148995504Y-91567000D01*
X148994814Y-91560435D01*
X148976232Y-91383635D01*
X148976232Y-91383633D01*
X148975542Y-91377072D01*
X148916527Y-91195444D01*
X148897859Y-91163109D01*
X148858247Y-91094500D01*
X148841509Y-91025505D01*
X148864729Y-90958413D01*
X148920537Y-90914526D01*
X148967366Y-90905500D01*
X149002290Y-90905500D01*
X149070411Y-90925502D01*
X149095926Y-90947189D01*
X149106111Y-90958500D01*
X149121747Y-90975866D01*
X149143329Y-90991546D01*
X149214522Y-91043271D01*
X149276248Y-91088118D01*
X149282276Y-91090802D01*
X149282278Y-91090803D01*
X149420062Y-91152148D01*
X149450712Y-91165794D01*
X149544113Y-91185647D01*
X149631056Y-91204128D01*
X149631061Y-91204128D01*
X149637513Y-91205500D01*
X149828487Y-91205500D01*
X149834939Y-91204128D01*
X149834944Y-91204128D01*
X149921887Y-91185647D01*
X150015288Y-91165794D01*
X150045938Y-91152148D01*
X150183722Y-91090803D01*
X150183724Y-91090802D01*
X150189752Y-91088118D01*
X150344253Y-90975866D01*
X150348675Y-90970955D01*
X150467621Y-90838852D01*
X150467622Y-90838851D01*
X150472040Y-90833944D01*
X150558284Y-90684565D01*
X150564223Y-90674279D01*
X150564224Y-90674278D01*
X150567527Y-90668556D01*
X150626542Y-90486928D01*
X150646504Y-90297000D01*
X150630715Y-90146774D01*
X150627232Y-90113635D01*
X150627232Y-90113633D01*
X150626542Y-90107072D01*
X150567527Y-89925444D01*
X150472040Y-89760056D01*
X150344253Y-89618134D01*
X150203907Y-89516166D01*
X150195094Y-89509763D01*
X150195093Y-89509762D01*
X150189752Y-89505882D01*
X150183724Y-89503198D01*
X150183722Y-89503197D01*
X150021319Y-89430891D01*
X150021318Y-89430891D01*
X150015288Y-89428206D01*
X149921888Y-89408353D01*
X149834944Y-89389872D01*
X149834939Y-89389872D01*
X149828487Y-89388500D01*
X149637513Y-89388500D01*
X149631061Y-89389872D01*
X149631056Y-89389872D01*
X149544112Y-89408353D01*
X149450712Y-89428206D01*
X149444682Y-89430891D01*
X149444681Y-89430891D01*
X149282278Y-89503197D01*
X149282276Y-89503198D01*
X149276248Y-89505882D01*
X149270907Y-89509762D01*
X149270906Y-89509763D01*
X149262093Y-89516166D01*
X149121747Y-89618134D01*
X149117334Y-89623036D01*
X149117332Y-89623037D01*
X149095926Y-89646811D01*
X149035480Y-89684050D01*
X149002290Y-89688500D01*
X146653710Y-89688500D01*
X146585589Y-89668498D01*
X146560074Y-89646811D01*
X146538668Y-89623037D01*
X146538666Y-89623036D01*
X146534253Y-89618134D01*
X146393907Y-89516166D01*
X146385094Y-89509763D01*
X146385093Y-89509762D01*
X146379752Y-89505882D01*
X146373724Y-89503198D01*
X146373722Y-89503197D01*
X146211319Y-89430891D01*
X146211318Y-89430891D01*
X146205288Y-89428206D01*
X146111888Y-89408353D01*
X146024944Y-89389872D01*
X146024939Y-89389872D01*
X146018487Y-89388500D01*
X145827513Y-89388500D01*
X145821061Y-89389872D01*
X145821056Y-89389872D01*
X145734112Y-89408353D01*
X145640712Y-89428206D01*
X145634682Y-89430891D01*
X145634681Y-89430891D01*
X145472278Y-89503197D01*
X145472276Y-89503198D01*
X145466248Y-89505882D01*
X145460907Y-89509762D01*
X145460906Y-89509763D01*
X145452093Y-89516166D01*
X145311747Y-89618134D01*
X145183960Y-89760056D01*
X145088473Y-89925444D01*
X145029458Y-90107072D01*
X145028768Y-90113633D01*
X145028768Y-90113635D01*
X145025285Y-90146774D01*
X145009496Y-90297000D01*
X145029458Y-90486928D01*
X145088473Y-90668556D01*
X145091776Y-90674278D01*
X145091777Y-90674279D01*
X145146753Y-90769500D01*
X145163491Y-90838495D01*
X145140271Y-90905587D01*
X145084463Y-90949474D01*
X145037634Y-90958500D01*
X144748710Y-90958500D01*
X144680589Y-90938498D01*
X144655074Y-90916811D01*
X144633668Y-90893037D01*
X144633666Y-90893036D01*
X144629253Y-90888134D01*
X144579412Y-90851922D01*
X144480094Y-90779763D01*
X144480093Y-90779762D01*
X144474752Y-90775882D01*
X144468724Y-90773198D01*
X144468722Y-90773197D01*
X144306319Y-90700891D01*
X144306318Y-90700891D01*
X144300288Y-90698206D01*
X144184475Y-90673589D01*
X144119944Y-90659872D01*
X144119939Y-90659872D01*
X144113487Y-90658500D01*
X143922513Y-90658500D01*
X143916061Y-90659872D01*
X143916056Y-90659872D01*
X143851525Y-90673589D01*
X143735712Y-90698206D01*
X143729682Y-90700891D01*
X143729681Y-90700891D01*
X143567278Y-90773197D01*
X143567276Y-90773198D01*
X143561248Y-90775882D01*
X143406747Y-90888134D01*
X143402326Y-90893044D01*
X143402325Y-90893045D01*
X143324257Y-90979749D01*
X143278960Y-91030056D01*
X143183473Y-91195444D01*
X143124458Y-91377072D01*
X143123768Y-91383633D01*
X143123768Y-91383635D01*
X143105186Y-91560435D01*
X143104496Y-91567000D01*
X139588750Y-91567000D01*
X139606944Y-91546794D01*
X139672621Y-91473852D01*
X139672622Y-91473851D01*
X139677040Y-91468944D01*
X139772527Y-91303556D01*
X139831542Y-91121928D01*
X139834814Y-91090803D01*
X139850814Y-90938565D01*
X139851504Y-90932000D01*
X139844770Y-90867928D01*
X139832232Y-90748635D01*
X139832232Y-90748633D01*
X139831542Y-90742072D01*
X139772527Y-90560444D01*
X139677040Y-90395056D01*
X139597254Y-90306444D01*
X139553675Y-90258045D01*
X139553674Y-90258044D01*
X139549253Y-90253134D01*
X139394752Y-90140882D01*
X139388724Y-90138198D01*
X139388722Y-90138197D01*
X139226319Y-90065891D01*
X139226318Y-90065891D01*
X139220288Y-90063206D01*
X139126887Y-90043353D01*
X139039944Y-90024872D01*
X139039939Y-90024872D01*
X139033487Y-90023500D01*
X138842513Y-90023500D01*
X138836061Y-90024872D01*
X138836056Y-90024872D01*
X138703864Y-90052971D01*
X138633073Y-90047569D01*
X138576441Y-90004752D01*
X138557834Y-89968660D01*
X138504569Y-89804729D01*
X138502527Y-89798444D01*
X138407040Y-89633056D01*
X138279253Y-89491134D01*
X138180157Y-89419136D01*
X138130094Y-89382763D01*
X138130093Y-89382762D01*
X138124752Y-89378882D01*
X138118724Y-89376198D01*
X138118722Y-89376197D01*
X137956319Y-89303891D01*
X137956318Y-89303891D01*
X137950288Y-89301206D01*
X137856887Y-89281353D01*
X137769944Y-89262872D01*
X137769939Y-89262872D01*
X137763487Y-89261500D01*
X137640500Y-89261500D01*
X137572379Y-89241498D01*
X137525886Y-89187842D01*
X137514500Y-89135500D01*
X137514500Y-87090290D01*
X137534502Y-87022169D01*
X137546864Y-87005980D01*
X137640621Y-86901852D01*
X137640622Y-86901851D01*
X137645040Y-86896944D01*
X137740527Y-86731556D01*
X137799542Y-86549928D01*
X137800584Y-86540019D01*
X137818814Y-86366565D01*
X137819504Y-86360000D01*
X137811112Y-86280158D01*
X137800232Y-86176635D01*
X137800232Y-86176633D01*
X137799542Y-86170072D01*
X137740527Y-85988444D01*
X137645040Y-85823056D01*
X137619064Y-85794206D01*
X137521675Y-85686045D01*
X137521674Y-85686044D01*
X137517253Y-85681134D01*
X137505281Y-85672436D01*
X137461928Y-85616215D01*
X137455851Y-85545479D01*
X137488983Y-85482687D01*
X137550802Y-85447775D01*
X137579342Y-85444500D01*
X138645658Y-85444500D01*
X138713779Y-85464502D01*
X138760272Y-85518158D01*
X138770376Y-85588432D01*
X138740882Y-85653012D01*
X138719720Y-85672435D01*
X138707747Y-85681134D01*
X138703326Y-85686044D01*
X138703325Y-85686045D01*
X138605937Y-85794206D01*
X138579960Y-85823056D01*
X138484473Y-85988444D01*
X138425458Y-86170072D01*
X138424768Y-86176633D01*
X138424768Y-86176635D01*
X138413888Y-86280158D01*
X138405496Y-86360000D01*
X138406186Y-86366565D01*
X138424417Y-86540019D01*
X138425458Y-86549928D01*
X138484473Y-86731556D01*
X138579960Y-86896944D01*
X138707747Y-87038866D01*
X138862248Y-87151118D01*
X138868276Y-87153802D01*
X138868278Y-87153803D01*
X139030681Y-87226109D01*
X139036712Y-87228794D01*
X139130113Y-87248647D01*
X139217056Y-87267128D01*
X139217061Y-87267128D01*
X139223513Y-87268500D01*
X139414487Y-87268500D01*
X139420939Y-87267128D01*
X139420944Y-87267128D01*
X139507888Y-87248647D01*
X139601288Y-87228794D01*
X139607319Y-87226109D01*
X139769722Y-87153803D01*
X139769724Y-87153802D01*
X139775752Y-87151118D01*
X139930253Y-87038866D01*
X140058040Y-86896944D01*
X140153527Y-86731556D01*
X140212542Y-86549928D01*
X140213584Y-86540019D01*
X140231814Y-86366565D01*
X140232504Y-86360000D01*
X140232316Y-86358214D01*
X140251816Y-86291804D01*
X140268719Y-86270830D01*
X142763229Y-83776319D01*
X142775620Y-83765452D01*
X142794434Y-83751016D01*
X142794437Y-83751013D01*
X142800987Y-83745987D01*
X142836864Y-83699232D01*
X142898524Y-83618876D01*
X142901685Y-83611246D01*
X142929181Y-83544863D01*
X142959838Y-83470851D01*
X142961961Y-83454729D01*
X142969368Y-83398460D01*
X142969368Y-83398459D01*
X142975500Y-83351885D01*
X142975501Y-83351873D01*
X142979672Y-83320189D01*
X142979672Y-83320188D01*
X142980750Y-83312000D01*
X142976578Y-83280307D01*
X142975500Y-83263864D01*
X142975500Y-76935574D01*
X142995502Y-76867453D01*
X143049158Y-76820960D01*
X143119432Y-76810856D01*
X143184012Y-76840350D01*
X143210619Y-76872574D01*
X143278960Y-76990944D01*
X143283378Y-76995851D01*
X143283379Y-76995852D01*
X143310589Y-77026072D01*
X143406747Y-77132866D01*
X143412087Y-77136746D01*
X143416999Y-77141169D01*
X143416096Y-77142172D01*
X143453808Y-77190009D01*
X143486476Y-77268876D01*
X143491503Y-77275427D01*
X143491504Y-77275429D01*
X143559520Y-77364069D01*
X143559526Y-77364075D01*
X143584013Y-77395987D01*
X143590568Y-77401017D01*
X143609379Y-77415452D01*
X143621770Y-77426319D01*
X148910281Y-82714830D01*
X148944307Y-82777142D01*
X148946841Y-82800716D01*
X148946496Y-82804000D01*
X148947186Y-82810565D01*
X148965369Y-82983563D01*
X148966458Y-82993928D01*
X149025473Y-83175556D01*
X149120960Y-83340944D01*
X149125378Y-83345851D01*
X149125379Y-83345852D01*
X149212600Y-83442721D01*
X149248747Y-83482866D01*
X149403248Y-83595118D01*
X149409276Y-83597802D01*
X149409278Y-83597803D01*
X149481756Y-83630072D01*
X149577712Y-83672794D01*
X149671113Y-83692647D01*
X149758056Y-83711128D01*
X149758061Y-83711128D01*
X149764513Y-83712500D01*
X149955487Y-83712500D01*
X149961939Y-83711128D01*
X149961944Y-83711128D01*
X150048887Y-83692647D01*
X150142288Y-83672794D01*
X150238244Y-83630072D01*
X150310722Y-83597803D01*
X150310724Y-83597802D01*
X150316752Y-83595118D01*
X150471253Y-83482866D01*
X150507400Y-83442721D01*
X150594621Y-83345852D01*
X150594622Y-83345851D01*
X150599040Y-83340944D01*
X150694527Y-83175556D01*
X150753542Y-82993928D01*
X150754632Y-82983563D01*
X150772814Y-82810565D01*
X150773504Y-82804000D01*
X150753542Y-82614072D01*
X150694527Y-82432444D01*
X150599040Y-82267056D01*
X150471253Y-82125134D01*
X150316752Y-82012882D01*
X150310724Y-82010198D01*
X150310722Y-82010197D01*
X150148319Y-81937891D01*
X150148318Y-81937891D01*
X150142288Y-81935206D01*
X150029721Y-81911279D01*
X149961944Y-81896872D01*
X149961939Y-81896872D01*
X149955487Y-81895500D01*
X149864238Y-81895500D01*
X149796117Y-81875498D01*
X149775143Y-81858595D01*
X148505184Y-80588635D01*
X146408682Y-78492133D01*
X146374656Y-78429821D01*
X146379721Y-78359005D01*
X146422268Y-78302170D01*
X146446529Y-78287931D01*
X146500719Y-78263805D01*
X146500726Y-78263801D01*
X146506752Y-78261118D01*
X146557534Y-78224223D01*
X146655914Y-78152745D01*
X146661253Y-78148866D01*
X146687074Y-78120189D01*
X146747520Y-78082950D01*
X146780710Y-78078500D01*
X147269761Y-78078500D01*
X147337882Y-78098502D01*
X147358856Y-78115405D01*
X150411685Y-81168234D01*
X150422552Y-81180625D01*
X150442013Y-81205987D01*
X150448563Y-81211013D01*
X150473925Y-81230474D01*
X150473928Y-81230477D01*
X150542664Y-81283220D01*
X150569124Y-81303524D01*
X150576753Y-81306684D01*
X150618235Y-81323866D01*
X150667017Y-81344072D01*
X150717150Y-81364838D01*
X150836115Y-81380500D01*
X150836120Y-81380500D01*
X150836129Y-81380501D01*
X150867812Y-81384672D01*
X150876000Y-81385750D01*
X150907693Y-81381578D01*
X150924136Y-81380500D01*
X159797290Y-81380500D01*
X159865411Y-81400502D01*
X159890926Y-81422189D01*
X159916747Y-81450866D01*
X159926629Y-81458046D01*
X160056122Y-81552128D01*
X160071248Y-81563118D01*
X160077276Y-81565802D01*
X160077278Y-81565803D01*
X160239681Y-81638109D01*
X160245712Y-81640794D01*
X160339112Y-81660647D01*
X160426056Y-81679128D01*
X160426061Y-81679128D01*
X160432513Y-81680500D01*
X160623487Y-81680500D01*
X160629939Y-81679128D01*
X160629944Y-81679128D01*
X160716888Y-81660647D01*
X160810288Y-81640794D01*
X160816319Y-81638109D01*
X160978722Y-81565803D01*
X160978724Y-81565802D01*
X160984752Y-81563118D01*
X160999879Y-81552128D01*
X161056336Y-81511109D01*
X161139253Y-81450866D01*
X161235411Y-81344072D01*
X161262621Y-81313852D01*
X161262622Y-81313851D01*
X161267040Y-81308944D01*
X161327311Y-81204552D01*
X161359223Y-81149279D01*
X161359224Y-81149278D01*
X161362527Y-81143556D01*
X161421542Y-80961928D01*
X161423138Y-80946749D01*
X161440814Y-80778565D01*
X161441504Y-80772000D01*
X161430280Y-80665206D01*
X161422232Y-80588635D01*
X161422232Y-80588633D01*
X161421542Y-80582072D01*
X161362527Y-80400444D01*
X161267040Y-80235056D01*
X161221744Y-80184749D01*
X161143675Y-80098045D01*
X161143674Y-80098044D01*
X161139253Y-80093134D01*
X160984752Y-79980882D01*
X160978724Y-79978198D01*
X160978722Y-79978197D01*
X160816319Y-79905891D01*
X160816318Y-79905891D01*
X160810288Y-79903206D01*
X160697721Y-79879279D01*
X160629944Y-79864872D01*
X160629939Y-79864872D01*
X160623487Y-79863500D01*
X160432513Y-79863500D01*
X160426061Y-79864872D01*
X160426056Y-79864872D01*
X160358279Y-79879279D01*
X160245712Y-79903206D01*
X160239682Y-79905891D01*
X160239681Y-79905891D01*
X160077278Y-79978197D01*
X160077276Y-79978198D01*
X160071248Y-79980882D01*
X160065907Y-79984762D01*
X160065906Y-79984763D01*
X159976281Y-80049880D01*
X159916747Y-80093134D01*
X159912334Y-80098036D01*
X159912332Y-80098037D01*
X159890926Y-80121811D01*
X159830480Y-80159050D01*
X159797290Y-80163500D01*
X151180239Y-80163500D01*
X151112118Y-80143498D01*
X151091144Y-80126595D01*
X148038315Y-77073766D01*
X148027448Y-77061375D01*
X148013013Y-77042563D01*
X148007987Y-77036013D01*
X147976075Y-77011526D01*
X147976072Y-77011523D01*
X147942190Y-76985524D01*
X147887429Y-76943504D01*
X147887427Y-76943503D01*
X147880876Y-76938476D01*
X147732851Y-76877162D01*
X147724664Y-76876084D01*
X147724663Y-76876084D01*
X147713458Y-76874609D01*
X147682262Y-76870502D01*
X147613885Y-76861500D01*
X147613882Y-76861500D01*
X147613874Y-76861499D01*
X147582189Y-76857328D01*
X147574000Y-76856250D01*
X147542307Y-76860422D01*
X147525864Y-76861500D01*
X146780710Y-76861500D01*
X146712589Y-76841498D01*
X146687074Y-76819811D01*
X146665668Y-76796037D01*
X146665666Y-76796036D01*
X146661253Y-76791134D01*
X146543134Y-76705315D01*
X146512094Y-76682763D01*
X146512093Y-76682762D01*
X146506752Y-76678882D01*
X146500724Y-76676198D01*
X146500722Y-76676197D01*
X146338319Y-76603891D01*
X146338318Y-76603891D01*
X146332288Y-76601206D01*
X146238887Y-76581353D01*
X146151944Y-76562872D01*
X146151939Y-76562872D01*
X146145487Y-76561500D01*
X145954513Y-76561500D01*
X145948061Y-76562872D01*
X145948056Y-76562872D01*
X145861113Y-76581353D01*
X145767712Y-76601206D01*
X145761682Y-76603891D01*
X145761681Y-76603891D01*
X145599278Y-76676197D01*
X145599276Y-76676198D01*
X145593248Y-76678882D01*
X145587907Y-76682762D01*
X145587906Y-76682763D01*
X145556866Y-76705315D01*
X145438747Y-76791134D01*
X145434326Y-76796044D01*
X145434325Y-76796045D01*
X145327753Y-76914406D01*
X145310960Y-76933056D01*
X145280840Y-76985226D01*
X145224195Y-77083337D01*
X145172812Y-77132330D01*
X145103099Y-77145766D01*
X145037188Y-77119380D01*
X145025981Y-77109432D01*
X144879220Y-76962671D01*
X144845194Y-76900359D01*
X144850259Y-76829544D01*
X144850342Y-76829340D01*
X144852527Y-76825556D01*
X144911542Y-76643928D01*
X144915839Y-76603050D01*
X144930814Y-76460565D01*
X144931504Y-76454000D01*
X144924080Y-76383365D01*
X144912232Y-76270635D01*
X144912232Y-76270633D01*
X144911542Y-76264072D01*
X144852527Y-76082444D01*
X144757040Y-75917056D01*
X144731064Y-75888206D01*
X144633675Y-75780045D01*
X144633674Y-75780044D01*
X144629253Y-75775134D01*
X144514829Y-75692000D01*
X144480094Y-75666763D01*
X144480093Y-75666762D01*
X144474752Y-75662882D01*
X144468724Y-75660198D01*
X144468722Y-75660197D01*
X144306319Y-75587891D01*
X144306318Y-75587891D01*
X144300288Y-75585206D01*
X144205227Y-75565000D01*
X144119944Y-75546872D01*
X144119939Y-75546872D01*
X144113487Y-75545500D01*
X143922513Y-75545500D01*
X143916061Y-75546872D01*
X143916056Y-75546872D01*
X143830773Y-75565000D01*
X143735712Y-75585206D01*
X143729682Y-75587891D01*
X143729681Y-75587891D01*
X143567278Y-75660197D01*
X143567276Y-75660198D01*
X143561248Y-75662882D01*
X143555907Y-75666762D01*
X143555906Y-75666763D01*
X143521171Y-75692000D01*
X143406747Y-75775134D01*
X143402326Y-75780044D01*
X143402325Y-75780045D01*
X143304937Y-75888206D01*
X143278960Y-75917056D01*
X143228882Y-76003794D01*
X143210619Y-76035426D01*
X143159237Y-76084419D01*
X143089523Y-76097855D01*
X143023612Y-76071469D01*
X142982430Y-76013637D01*
X142975500Y-75972426D01*
X142975500Y-75870421D01*
X142981667Y-75831485D01*
X143004502Y-75761206D01*
X143006542Y-75754928D01*
X143008120Y-75739919D01*
X143025814Y-75571565D01*
X143026504Y-75565000D01*
X143024599Y-75546872D01*
X143007232Y-75381635D01*
X143007232Y-75381633D01*
X143006542Y-75375072D01*
X142947527Y-75193444D01*
X142926669Y-75157316D01*
X142897343Y-75106523D01*
X142852040Y-75028056D01*
X142724253Y-74886134D01*
X142625157Y-74814136D01*
X142575094Y-74777763D01*
X142575093Y-74777762D01*
X142569752Y-74773882D01*
X142563724Y-74771198D01*
X142563722Y-74771197D01*
X142401319Y-74698891D01*
X142401318Y-74698891D01*
X142395288Y-74696206D01*
X142301887Y-74676353D01*
X142214944Y-74657872D01*
X142214939Y-74657872D01*
X142208487Y-74656500D01*
X142017513Y-74656500D01*
X142011061Y-74657872D01*
X142011056Y-74657872D01*
X141924113Y-74676353D01*
X141830712Y-74696206D01*
X141824682Y-74698891D01*
X141824681Y-74698891D01*
X141662278Y-74771197D01*
X141662276Y-74771198D01*
X141656248Y-74773882D01*
X141650907Y-74777762D01*
X141650906Y-74777763D01*
X141600843Y-74814136D01*
X141501747Y-74886134D01*
X141373960Y-75028056D01*
X141328657Y-75106523D01*
X141299332Y-75157316D01*
X141278473Y-75193444D01*
X141219458Y-75375072D01*
X141218768Y-75381633D01*
X141218768Y-75381635D01*
X141201401Y-75546872D01*
X141199496Y-75565000D01*
X141200186Y-75571565D01*
X141217881Y-75739919D01*
X141219458Y-75754928D01*
X141278473Y-75936556D01*
X141281776Y-75942278D01*
X141281777Y-75942279D01*
X141296091Y-75967071D01*
X141373960Y-76101944D01*
X141501747Y-76243866D01*
X141579697Y-76300500D01*
X141643982Y-76347206D01*
X141656248Y-76356118D01*
X141662281Y-76358804D01*
X141683750Y-76368363D01*
X141737845Y-76414343D01*
X141758500Y-76483469D01*
X141758500Y-79647223D01*
X141738498Y-79715344D01*
X141684842Y-79761837D01*
X141614568Y-79771941D01*
X141606303Y-79770470D01*
X141452944Y-79737872D01*
X141452939Y-79737872D01*
X141446487Y-79736500D01*
X141355239Y-79736500D01*
X141287118Y-79716498D01*
X141266144Y-79699595D01*
X138275220Y-76708671D01*
X138241194Y-76646359D01*
X138246259Y-76575544D01*
X138246342Y-76575340D01*
X138248527Y-76571556D01*
X138307542Y-76389928D01*
X138308632Y-76379563D01*
X138326814Y-76206565D01*
X138327504Y-76200000D01*
X138307542Y-76010072D01*
X138248527Y-75828444D01*
X138153040Y-75663056D01*
X138039877Y-75537375D01*
X138029675Y-75526045D01*
X138029674Y-75526044D01*
X138025253Y-75521134D01*
X137870752Y-75408882D01*
X137864724Y-75406198D01*
X137864722Y-75406197D01*
X137702319Y-75333891D01*
X137702318Y-75333891D01*
X137696288Y-75331206D01*
X137602887Y-75311353D01*
X137515944Y-75292872D01*
X137515939Y-75292872D01*
X137509487Y-75291500D01*
X137318513Y-75291500D01*
X137312061Y-75292872D01*
X137312056Y-75292872D01*
X137225113Y-75311353D01*
X137131712Y-75331206D01*
X137125682Y-75333891D01*
X137125681Y-75333891D01*
X136963278Y-75406197D01*
X136963276Y-75406198D01*
X136957248Y-75408882D01*
X136802747Y-75521134D01*
X136798326Y-75526044D01*
X136798325Y-75526045D01*
X136788124Y-75537375D01*
X136674960Y-75663056D01*
X136612242Y-75771687D01*
X136588195Y-75813337D01*
X136536812Y-75862330D01*
X136467099Y-75875766D01*
X136401188Y-75849380D01*
X136389981Y-75839432D01*
X135846315Y-75295766D01*
X135835448Y-75283375D01*
X135821013Y-75264563D01*
X135815987Y-75258013D01*
X135784075Y-75233526D01*
X135784072Y-75233523D01*
X135740031Y-75199729D01*
X135695429Y-75165504D01*
X135695427Y-75165503D01*
X135688876Y-75160476D01*
X135540851Y-75099162D01*
X135532664Y-75098084D01*
X135532663Y-75098084D01*
X135521458Y-75096609D01*
X135490262Y-75092502D01*
X135421885Y-75083500D01*
X135421882Y-75083500D01*
X135421874Y-75083499D01*
X135390189Y-75079328D01*
X135382000Y-75078250D01*
X135350307Y-75082422D01*
X135333864Y-75083500D01*
X130524710Y-75083500D01*
X130456589Y-75063498D01*
X130431074Y-75041811D01*
X130409668Y-75018037D01*
X130409666Y-75018036D01*
X130405253Y-75013134D01*
X130250752Y-74900882D01*
X130244724Y-74898198D01*
X130244722Y-74898197D01*
X130082319Y-74825891D01*
X130082318Y-74825891D01*
X130076288Y-74823206D01*
X129982887Y-74803353D01*
X129895944Y-74784872D01*
X129895939Y-74784872D01*
X129889487Y-74783500D01*
X129698513Y-74783500D01*
X129692061Y-74784872D01*
X129692056Y-74784872D01*
X129605113Y-74803353D01*
X129511712Y-74823206D01*
X129505682Y-74825891D01*
X129505681Y-74825891D01*
X129343278Y-74898197D01*
X129343276Y-74898198D01*
X129337248Y-74900882D01*
X129182747Y-75013134D01*
X129054960Y-75155056D01*
X129051659Y-75160774D01*
X128973719Y-75295770D01*
X128959473Y-75320444D01*
X128900458Y-75502072D01*
X128899768Y-75508633D01*
X128899768Y-75508635D01*
X128883576Y-75662697D01*
X128856563Y-75728354D01*
X128798341Y-75768984D01*
X128727396Y-75771687D01*
X128669171Y-75738622D01*
X128480315Y-75549766D01*
X128469448Y-75537375D01*
X128455015Y-75518566D01*
X128449987Y-75512013D01*
X128437032Y-75502072D01*
X128424621Y-75492548D01*
X128412230Y-75481681D01*
X128037072Y-75106523D01*
X127973573Y-75043023D01*
X127093879Y-74163329D01*
X127059853Y-74101017D01*
X127064993Y-74030002D01*
X127074599Y-74004380D01*
X127117242Y-73947616D01*
X127183804Y-73922918D01*
X127253153Y-73938127D01*
X127287817Y-73966114D01*
X127316250Y-73998938D01*
X127488126Y-74141632D01*
X127681000Y-74254338D01*
X127685825Y-74256180D01*
X127685826Y-74256181D01*
X127698920Y-74261181D01*
X127889692Y-74334030D01*
X127894760Y-74335061D01*
X127894763Y-74335062D01*
X128002017Y-74356883D01*
X128108597Y-74378567D01*
X128113772Y-74378757D01*
X128113774Y-74378757D01*
X128326673Y-74386564D01*
X128326677Y-74386564D01*
X128331837Y-74386753D01*
X128336957Y-74386097D01*
X128336959Y-74386097D01*
X128548288Y-74359025D01*
X128548289Y-74359025D01*
X128553416Y-74358368D01*
X128558366Y-74356883D01*
X128762429Y-74295661D01*
X128762434Y-74295659D01*
X128767384Y-74294174D01*
X128967994Y-74195896D01*
X129149860Y-74066173D01*
X129308096Y-73908489D01*
X129438453Y-73727077D01*
X129439776Y-73728028D01*
X129486645Y-73684857D01*
X129556580Y-73672625D01*
X129622026Y-73700144D01*
X129649875Y-73731994D01*
X129709987Y-73830088D01*
X129856250Y-73998938D01*
X130028126Y-74141632D01*
X130221000Y-74254338D01*
X130225825Y-74256180D01*
X130225826Y-74256181D01*
X130238920Y-74261181D01*
X130429692Y-74334030D01*
X130434760Y-74335061D01*
X130434763Y-74335062D01*
X130542017Y-74356883D01*
X130648597Y-74378567D01*
X130653772Y-74378757D01*
X130653774Y-74378757D01*
X130866673Y-74386564D01*
X130866677Y-74386564D01*
X130871837Y-74386753D01*
X130876957Y-74386097D01*
X130876959Y-74386097D01*
X131088288Y-74359025D01*
X131088289Y-74359025D01*
X131093416Y-74358368D01*
X131098366Y-74356883D01*
X131302429Y-74295661D01*
X131302434Y-74295659D01*
X131307384Y-74294174D01*
X131507994Y-74195896D01*
X131689860Y-74066173D01*
X131848096Y-73908489D01*
X131978453Y-73727077D01*
X131999320Y-73684857D01*
X132075136Y-73531453D01*
X132075137Y-73531451D01*
X132077430Y-73526811D01*
X132119554Y-73388165D01*
X132140865Y-73318023D01*
X132140865Y-73318021D01*
X132142370Y-73313069D01*
X132171529Y-73091590D01*
X132173156Y-73025000D01*
X132154852Y-72802361D01*
X132100431Y-72585702D01*
X132011354Y-72380840D01*
X131896225Y-72202877D01*
X131892822Y-72197617D01*
X131892820Y-72197614D01*
X131890014Y-72193277D01*
X131739670Y-72028051D01*
X131735619Y-72024852D01*
X131735615Y-72024848D01*
X131568414Y-71892800D01*
X131568410Y-71892798D01*
X131564359Y-71889598D01*
X131522569Y-71866529D01*
X131472598Y-71816097D01*
X131457826Y-71746654D01*
X131482942Y-71680248D01*
X131510294Y-71653641D01*
X131685328Y-71528792D01*
X131693200Y-71522139D01*
X131844052Y-71371812D01*
X131850730Y-71363965D01*
X131975003Y-71191020D01*
X131980313Y-71182183D01*
X132074670Y-70991267D01*
X132078469Y-70981672D01*
X132140377Y-70777910D01*
X132142555Y-70767837D01*
X132143986Y-70756962D01*
X132141775Y-70742778D01*
X132128617Y-70739000D01*
X130682000Y-70739000D01*
X130613879Y-70718998D01*
X130567386Y-70665342D01*
X130556000Y-70613000D01*
X130556000Y-70357000D01*
X130576002Y-70288879D01*
X130629658Y-70242386D01*
X130682000Y-70231000D01*
X132128344Y-70231000D01*
X132141875Y-70227027D01*
X132143180Y-70217947D01*
X132101214Y-70050875D01*
X132097894Y-70041124D01*
X132012972Y-69845814D01*
X132008105Y-69836739D01*
X131892426Y-69657926D01*
X131886136Y-69649757D01*
X131742806Y-69492240D01*
X131735273Y-69485215D01*
X131568139Y-69353222D01*
X131559552Y-69347517D01*
X131373117Y-69244599D01*
X131363705Y-69240369D01*
X131162959Y-69169280D01*
X131152989Y-69166646D01*
X131107518Y-69158547D01*
X131043961Y-69126909D01*
X131007598Y-69065932D01*
X131009974Y-68994975D01*
X131050335Y-68936567D01*
X131115867Y-68909252D01*
X131129614Y-68908500D01*
X136237087Y-68908500D01*
X136305208Y-68928502D01*
X136351701Y-68982158D01*
X136361805Y-69052432D01*
X136332311Y-69117012D01*
X136272585Y-69155396D01*
X136256145Y-69159050D01*
X136229205Y-69163172D01*
X136229200Y-69163173D01*
X136224091Y-69163955D01*
X136011756Y-69233357D01*
X135955477Y-69262654D01*
X135826987Y-69329542D01*
X135813607Y-69336507D01*
X135809474Y-69339610D01*
X135809471Y-69339612D01*
X135645260Y-69462905D01*
X135634965Y-69470635D01*
X135480629Y-69632138D01*
X135477720Y-69636403D01*
X135477714Y-69636411D01*
X135462798Y-69658277D01*
X135354743Y-69816680D01*
X135260688Y-70019305D01*
X135200989Y-70234570D01*
X135177251Y-70456695D01*
X135177548Y-70461848D01*
X135177548Y-70461851D01*
X135183011Y-70556590D01*
X135190110Y-70679715D01*
X135191247Y-70684761D01*
X135191248Y-70684767D01*
X135212275Y-70778069D01*
X135239222Y-70897639D01*
X135323266Y-71104616D01*
X135370799Y-71182183D01*
X135437291Y-71290688D01*
X135439987Y-71295088D01*
X135586250Y-71463938D01*
X135590230Y-71467242D01*
X135594981Y-71471187D01*
X135634616Y-71530090D01*
X135636113Y-71601071D01*
X135598997Y-71661593D01*
X135558725Y-71686112D01*
X135502823Y-71707069D01*
X135443295Y-71729385D01*
X135326739Y-71816739D01*
X135239385Y-71933295D01*
X135188255Y-72069684D01*
X135181500Y-72131866D01*
X135181500Y-73928134D01*
X135188255Y-73990316D01*
X135239385Y-74126705D01*
X135326739Y-74243261D01*
X135443295Y-74330615D01*
X135579684Y-74381745D01*
X135641866Y-74388500D01*
X137438134Y-74388500D01*
X137500316Y-74381745D01*
X137636705Y-74330615D01*
X137753261Y-74243261D01*
X137840615Y-74126705D01*
X137862799Y-74067529D01*
X137884598Y-74009382D01*
X137927240Y-73952618D01*
X137993802Y-73927918D01*
X138063150Y-73943126D01*
X138097817Y-73971114D01*
X138126250Y-74003938D01*
X138257974Y-74113297D01*
X138288123Y-74138327D01*
X138298126Y-74146632D01*
X138491000Y-74259338D01*
X138699692Y-74339030D01*
X138704760Y-74340061D01*
X138704763Y-74340062D01*
X138797970Y-74359025D01*
X138918597Y-74383567D01*
X138923772Y-74383757D01*
X138923774Y-74383757D01*
X139136673Y-74391564D01*
X139136677Y-74391564D01*
X139141837Y-74391753D01*
X139146957Y-74391097D01*
X139146959Y-74391097D01*
X139358288Y-74364025D01*
X139358289Y-74364025D01*
X139363416Y-74363368D01*
X139380082Y-74358368D01*
X139572429Y-74300661D01*
X139572434Y-74300659D01*
X139577384Y-74299174D01*
X139777994Y-74200896D01*
X139959860Y-74071173D01*
X140118096Y-73913489D01*
X140175222Y-73833990D01*
X140248453Y-73732077D01*
X140249776Y-73733028D01*
X140296645Y-73689857D01*
X140366580Y-73677625D01*
X140432026Y-73705144D01*
X140459875Y-73736994D01*
X140519987Y-73835088D01*
X140666250Y-74003938D01*
X140797974Y-74113297D01*
X140828123Y-74138327D01*
X140838126Y-74146632D01*
X141031000Y-74259338D01*
X141239692Y-74339030D01*
X141244760Y-74340061D01*
X141244763Y-74340062D01*
X141337970Y-74359025D01*
X141458597Y-74383567D01*
X141463772Y-74383757D01*
X141463774Y-74383757D01*
X141676673Y-74391564D01*
X141676677Y-74391564D01*
X141681837Y-74391753D01*
X141686957Y-74391097D01*
X141686959Y-74391097D01*
X141898288Y-74364025D01*
X141898289Y-74364025D01*
X141903416Y-74363368D01*
X141920082Y-74358368D01*
X142112429Y-74300661D01*
X142112434Y-74300659D01*
X142117384Y-74299174D01*
X142317994Y-74200896D01*
X142499860Y-74071173D01*
X142658096Y-73913489D01*
X142715222Y-73833990D01*
X142785435Y-73736277D01*
X142788453Y-73732077D01*
X142809320Y-73689857D01*
X142885136Y-73536453D01*
X142885137Y-73536451D01*
X142887430Y-73531811D01*
X142930997Y-73388415D01*
X142950865Y-73323023D01*
X142950865Y-73323021D01*
X142952370Y-73318069D01*
X142981529Y-73096590D01*
X142983156Y-73030000D01*
X142964852Y-72807361D01*
X142910431Y-72590702D01*
X142821354Y-72385840D01*
X142708622Y-72211583D01*
X142702822Y-72202617D01*
X142702820Y-72202614D01*
X142700014Y-72198277D01*
X142549670Y-72033051D01*
X142545619Y-72029852D01*
X142545615Y-72029848D01*
X142378414Y-71897800D01*
X142378410Y-71897798D01*
X142374359Y-71894598D01*
X142365302Y-71889598D01*
X142337259Y-71874118D01*
X142332569Y-71871529D01*
X142282598Y-71821097D01*
X142267826Y-71751654D01*
X142292942Y-71685248D01*
X142320294Y-71658641D01*
X142495328Y-71533792D01*
X142503200Y-71527139D01*
X142654052Y-71376812D01*
X142660730Y-71368965D01*
X142785003Y-71196020D01*
X142790313Y-71187183D01*
X142884670Y-70996267D01*
X142888469Y-70986672D01*
X142950377Y-70782910D01*
X142952555Y-70772837D01*
X142953986Y-70761962D01*
X142951775Y-70747778D01*
X142938617Y-70744000D01*
X141492000Y-70744000D01*
X141423879Y-70723998D01*
X141377386Y-70670342D01*
X141366000Y-70618000D01*
X141366000Y-70362000D01*
X141386002Y-70293879D01*
X141439658Y-70247386D01*
X141492000Y-70236000D01*
X142938344Y-70236000D01*
X142951875Y-70232027D01*
X142953180Y-70222947D01*
X142911214Y-70055875D01*
X142907894Y-70046124D01*
X142822972Y-69850814D01*
X142818105Y-69841739D01*
X142702426Y-69662926D01*
X142696136Y-69654757D01*
X142552806Y-69497240D01*
X142545273Y-69490215D01*
X142378139Y-69358222D01*
X142369552Y-69352517D01*
X142183117Y-69249599D01*
X142173705Y-69245369D01*
X141972959Y-69174280D01*
X141962988Y-69171646D01*
X141889448Y-69158547D01*
X141825891Y-69126909D01*
X141789527Y-69065932D01*
X141791904Y-68994975D01*
X141832265Y-68936567D01*
X141897797Y-68909252D01*
X141911544Y-68908500D01*
X167750633Y-68908500D01*
X167770018Y-68910000D01*
X167784851Y-68912310D01*
X167784855Y-68912310D01*
X167793724Y-68913691D01*
X167802628Y-68912527D01*
X167811599Y-68912636D01*
X167811589Y-68913451D01*
X167833100Y-68913743D01*
X167870366Y-68919645D01*
X167907859Y-68931827D01*
X167953560Y-68955113D01*
X167985452Y-68978285D01*
X168021715Y-69014548D01*
X168044887Y-69046440D01*
X168068173Y-69092141D01*
X168080354Y-69129631D01*
X168086119Y-69166025D01*
X168087551Y-69185750D01*
X168086309Y-69193724D01*
X168087474Y-69202632D01*
X168090436Y-69225283D01*
X168091500Y-69241621D01*
X168091500Y-97950633D01*
X168090000Y-97970018D01*
X168087690Y-97984851D01*
X168087690Y-97984855D01*
X168086309Y-97993724D01*
X168087473Y-98002628D01*
X168087364Y-98011599D01*
X168086549Y-98011589D01*
X168086257Y-98033100D01*
X168080355Y-98070366D01*
X168068173Y-98107859D01*
X168044887Y-98153560D01*
X168021715Y-98185452D01*
X167985452Y-98221715D01*
X167953560Y-98244887D01*
X167907859Y-98268173D01*
X167870369Y-98280354D01*
X167833975Y-98286119D01*
X167814250Y-98287551D01*
X167806276Y-98286309D01*
X167774714Y-98290436D01*
X167758379Y-98291500D01*
X100049367Y-98291500D01*
X100029982Y-98290000D01*
X100015149Y-98287690D01*
X100015145Y-98287690D01*
X100006276Y-98286309D01*
X99997372Y-98287473D01*
X99988401Y-98287364D01*
X99988411Y-98286549D01*
X99966900Y-98286257D01*
X99929634Y-98280355D01*
X99892141Y-98268173D01*
X99846440Y-98244887D01*
X99814548Y-98221715D01*
X99778285Y-98185452D01*
X99755113Y-98153560D01*
X99731827Y-98107859D01*
X99719645Y-98070366D01*
X99714661Y-98038897D01*
X99713769Y-98012554D01*
X99713576Y-98012552D01*
X99713627Y-98008357D01*
X99713729Y-98000000D01*
X99709773Y-97972376D01*
X99708500Y-97954514D01*
X99708500Y-88646000D01*
X102210496Y-88646000D01*
X102211186Y-88652565D01*
X102228863Y-88820749D01*
X102230458Y-88835928D01*
X102289473Y-89017556D01*
X102292776Y-89023278D01*
X102292777Y-89023279D01*
X102305392Y-89045128D01*
X102384960Y-89182944D01*
X102512747Y-89324866D01*
X102583398Y-89376197D01*
X102654982Y-89428206D01*
X102667248Y-89437118D01*
X102673276Y-89439802D01*
X102673278Y-89439803D01*
X102821695Y-89505882D01*
X102841712Y-89514794D01*
X102935113Y-89534647D01*
X103022056Y-89553128D01*
X103022061Y-89553128D01*
X103028513Y-89554500D01*
X103219487Y-89554500D01*
X103225939Y-89553128D01*
X103225944Y-89553128D01*
X103312887Y-89534647D01*
X103406288Y-89514794D01*
X103426305Y-89505882D01*
X103574722Y-89439803D01*
X103574724Y-89439802D01*
X103580752Y-89437118D01*
X103593019Y-89428206D01*
X103664602Y-89376197D01*
X103735253Y-89324866D01*
X103863040Y-89182944D01*
X103942608Y-89045128D01*
X103955223Y-89023279D01*
X103955224Y-89023278D01*
X103958527Y-89017556D01*
X104017542Y-88835928D01*
X104019138Y-88820749D01*
X104036814Y-88652565D01*
X104037504Y-88646000D01*
X104031947Y-88593124D01*
X104018232Y-88462635D01*
X104018232Y-88462633D01*
X104017542Y-88456072D01*
X103958527Y-88274444D01*
X103944349Y-88249886D01*
X103893160Y-88161226D01*
X103863040Y-88109056D01*
X103839623Y-88083049D01*
X103764864Y-88000020D01*
X103734146Y-87936013D01*
X103732500Y-87915710D01*
X103732500Y-80314239D01*
X103752502Y-80246118D01*
X103769405Y-80225144D01*
X107657144Y-76337405D01*
X107719456Y-76303379D01*
X107746239Y-76300500D01*
X110874634Y-76300500D01*
X110942755Y-76320502D01*
X110989248Y-76374158D01*
X110999352Y-76444432D01*
X110983753Y-76489500D01*
X110934076Y-76575544D01*
X110925473Y-76590444D01*
X110866458Y-76772072D01*
X110865768Y-76778633D01*
X110865768Y-76778635D01*
X110853479Y-76895561D01*
X110846496Y-76962000D01*
X110847186Y-76968565D01*
X110865433Y-77142172D01*
X110866458Y-77151928D01*
X110925473Y-77333556D01*
X111020960Y-77498944D01*
X111025378Y-77503851D01*
X111025379Y-77503852D01*
X111128226Y-77618075D01*
X111148747Y-77640866D01*
X111196542Y-77675591D01*
X111295549Y-77747524D01*
X111303248Y-77753118D01*
X111309276Y-77755802D01*
X111309278Y-77755803D01*
X111471681Y-77828109D01*
X111477712Y-77830794D01*
X111542203Y-77844502D01*
X111658056Y-77869128D01*
X111658061Y-77869128D01*
X111664513Y-77870500D01*
X111720406Y-77870500D01*
X111788527Y-77890502D01*
X111809501Y-77907405D01*
X114939343Y-81037247D01*
X114946887Y-81045537D01*
X114951000Y-81052018D01*
X114956777Y-81057443D01*
X115000667Y-81098658D01*
X115003509Y-81101413D01*
X115023231Y-81121135D01*
X115026355Y-81123558D01*
X115026359Y-81123562D01*
X115026424Y-81123612D01*
X115035445Y-81131317D01*
X115067679Y-81161586D01*
X115074627Y-81165405D01*
X115074629Y-81165407D01*
X115085432Y-81171346D01*
X115101959Y-81182202D01*
X115111698Y-81189757D01*
X115111700Y-81189758D01*
X115117960Y-81194614D01*
X115158540Y-81212174D01*
X115169188Y-81217391D01*
X115193976Y-81231018D01*
X115207940Y-81238695D01*
X115215616Y-81240666D01*
X115215619Y-81240667D01*
X115227562Y-81243733D01*
X115246267Y-81250137D01*
X115264855Y-81258181D01*
X115272678Y-81259420D01*
X115272688Y-81259423D01*
X115308524Y-81265099D01*
X115320144Y-81267505D01*
X115351959Y-81275673D01*
X115362970Y-81278500D01*
X115383224Y-81278500D01*
X115402934Y-81280051D01*
X115422943Y-81283220D01*
X115430835Y-81282474D01*
X115449580Y-81280702D01*
X115466962Y-81279059D01*
X115478819Y-81278500D01*
X124762233Y-81278500D01*
X124773416Y-81279027D01*
X124780909Y-81280702D01*
X124788835Y-81280453D01*
X124788836Y-81280453D01*
X124848986Y-81278562D01*
X124852945Y-81278500D01*
X124880856Y-81278500D01*
X124884791Y-81278003D01*
X124884856Y-81277995D01*
X124896693Y-81277062D01*
X124928951Y-81276048D01*
X124932970Y-81275922D01*
X124940889Y-81275673D01*
X124960343Y-81270021D01*
X124979700Y-81266013D01*
X124991930Y-81264468D01*
X124991931Y-81264468D01*
X124999797Y-81263474D01*
X125007168Y-81260555D01*
X125007170Y-81260555D01*
X125040912Y-81247196D01*
X125052142Y-81243351D01*
X125086983Y-81233229D01*
X125086984Y-81233229D01*
X125094593Y-81231018D01*
X125101412Y-81226985D01*
X125101417Y-81226983D01*
X125112028Y-81220707D01*
X125129776Y-81212012D01*
X125148617Y-81204552D01*
X125155658Y-81199437D01*
X125184387Y-81178564D01*
X125194307Y-81172048D01*
X125225535Y-81153580D01*
X125225538Y-81153578D01*
X125232362Y-81149542D01*
X125246683Y-81135221D01*
X125261717Y-81122380D01*
X125263431Y-81121135D01*
X125278107Y-81110472D01*
X125283157Y-81104368D01*
X125283162Y-81104363D01*
X125306293Y-81076402D01*
X125314283Y-81067621D01*
X125934501Y-80447404D01*
X125996813Y-80413379D01*
X126023596Y-80410500D01*
X126079487Y-80410500D01*
X126085939Y-80409128D01*
X126085944Y-80409128D01*
X126172888Y-80390647D01*
X126266288Y-80370794D01*
X126272319Y-80368109D01*
X126434722Y-80295803D01*
X126434724Y-80295802D01*
X126440752Y-80293118D01*
X126471794Y-80270565D01*
X126534310Y-80225144D01*
X126595253Y-80180866D01*
X126599675Y-80175955D01*
X126718621Y-80043852D01*
X126718622Y-80043851D01*
X126723040Y-80038944D01*
X126818527Y-79873556D01*
X126877542Y-79691928D01*
X126886372Y-79607921D01*
X126896814Y-79508565D01*
X126897504Y-79502000D01*
X126877542Y-79312072D01*
X126818527Y-79130444D01*
X126723040Y-78965056D01*
X126595253Y-78823134D01*
X126440752Y-78710882D01*
X126434724Y-78708198D01*
X126434722Y-78708197D01*
X126272319Y-78635891D01*
X126272318Y-78635891D01*
X126266288Y-78633206D01*
X126172887Y-78613353D01*
X126085944Y-78594872D01*
X126085939Y-78594872D01*
X126079487Y-78593500D01*
X125888513Y-78593500D01*
X125882061Y-78594872D01*
X125882056Y-78594872D01*
X125795113Y-78613353D01*
X125701712Y-78633206D01*
X125695682Y-78635891D01*
X125695681Y-78635891D01*
X125533278Y-78708197D01*
X125533276Y-78708198D01*
X125527248Y-78710882D01*
X125372747Y-78823134D01*
X125244960Y-78965056D01*
X125149473Y-79130444D01*
X125090458Y-79312072D01*
X125089768Y-79318633D01*
X125089768Y-79318635D01*
X125073093Y-79477292D01*
X125046080Y-79542949D01*
X125036878Y-79553218D01*
X124615499Y-79974596D01*
X124553187Y-80008621D01*
X124526404Y-80011500D01*
X115757594Y-80011500D01*
X115689473Y-79991498D01*
X115668499Y-79974595D01*
X112707122Y-77013217D01*
X112673096Y-76950905D01*
X112670907Y-76937292D01*
X112670727Y-76935574D01*
X112661149Y-76844444D01*
X112654232Y-76778635D01*
X112654232Y-76778633D01*
X112653542Y-76772072D01*
X112594527Y-76590444D01*
X112585925Y-76575544D01*
X112536247Y-76489500D01*
X112519509Y-76420505D01*
X112542729Y-76353413D01*
X112598537Y-76309526D01*
X112645366Y-76300500D01*
X120091761Y-76300500D01*
X120159882Y-76320502D01*
X120180856Y-76337405D01*
X120693685Y-76850234D01*
X120704552Y-76862625D01*
X120724013Y-76887987D01*
X120730563Y-76893013D01*
X120755921Y-76912471D01*
X120755937Y-76912485D01*
X120805305Y-76950366D01*
X120851124Y-76985524D01*
X120999149Y-77046838D01*
X121007336Y-77047916D01*
X121007337Y-77047916D01*
X121018542Y-77049391D01*
X121049738Y-77053498D01*
X121118115Y-77062500D01*
X121118118Y-77062500D01*
X121118126Y-77062501D01*
X121149811Y-77066672D01*
X121158000Y-77067750D01*
X121166189Y-77066672D01*
X121189693Y-77063578D01*
X121206138Y-77062500D01*
X123903864Y-77062500D01*
X123920307Y-77063578D01*
X123952000Y-77067750D01*
X123960189Y-77066672D01*
X123991874Y-77062501D01*
X123991884Y-77062500D01*
X123991885Y-77062500D01*
X123991901Y-77062498D01*
X124091457Y-77049391D01*
X124102664Y-77047916D01*
X124102666Y-77047915D01*
X124110851Y-77046838D01*
X124258876Y-76985524D01*
X124265430Y-76980495D01*
X124354069Y-76912480D01*
X124354075Y-76912474D01*
X124354079Y-76912471D01*
X124385987Y-76887987D01*
X124391869Y-76880322D01*
X124405452Y-76862621D01*
X124416319Y-76850230D01*
X124629144Y-76637405D01*
X124691456Y-76603379D01*
X124718239Y-76600500D01*
X124809487Y-76600500D01*
X124815939Y-76599128D01*
X124815944Y-76599128D01*
X124902887Y-76580647D01*
X124996288Y-76560794D01*
X125032964Y-76544465D01*
X125164722Y-76485803D01*
X125164724Y-76485802D01*
X125170752Y-76483118D01*
X125184921Y-76472824D01*
X125283118Y-76401479D01*
X125325253Y-76370866D01*
X125354227Y-76338687D01*
X125448621Y-76233852D01*
X125448622Y-76233851D01*
X125453040Y-76228944D01*
X125526364Y-76101944D01*
X125545223Y-76069279D01*
X125545224Y-76069278D01*
X125548527Y-76063556D01*
X125607542Y-75881928D01*
X125608752Y-75870421D01*
X125626814Y-75698565D01*
X125627504Y-75692000D01*
X125616280Y-75585206D01*
X125608232Y-75508635D01*
X125608232Y-75508633D01*
X125607542Y-75502072D01*
X125548527Y-75320444D01*
X125534282Y-75295770D01*
X125456341Y-75160774D01*
X125453040Y-75155056D01*
X125325253Y-75013134D01*
X125170752Y-74900882D01*
X125164724Y-74898198D01*
X125164722Y-74898197D01*
X125002319Y-74825891D01*
X125002318Y-74825891D01*
X124996288Y-74823206D01*
X124902887Y-74803353D01*
X124815944Y-74784872D01*
X124815939Y-74784872D01*
X124809487Y-74783500D01*
X124618513Y-74783500D01*
X124612061Y-74784872D01*
X124612056Y-74784872D01*
X124525113Y-74803353D01*
X124431712Y-74823206D01*
X124425682Y-74825891D01*
X124425681Y-74825891D01*
X124263278Y-74898197D01*
X124263276Y-74898198D01*
X124257248Y-74900882D01*
X124102747Y-75013134D01*
X123974960Y-75155056D01*
X123971659Y-75160774D01*
X123893719Y-75295770D01*
X123879473Y-75320444D01*
X123820458Y-75502072D01*
X123819768Y-75508633D01*
X123819768Y-75508635D01*
X123811720Y-75585206D01*
X123800496Y-75692000D01*
X123800684Y-75693786D01*
X123781184Y-75760196D01*
X123764281Y-75781170D01*
X123736856Y-75808595D01*
X123674544Y-75842621D01*
X123647761Y-75845500D01*
X121462239Y-75845500D01*
X121394118Y-75825498D01*
X121373144Y-75808595D01*
X120860315Y-75295766D01*
X120849448Y-75283375D01*
X120835013Y-75264563D01*
X120829987Y-75258013D01*
X120798075Y-75233526D01*
X120798072Y-75233523D01*
X120754031Y-75199729D01*
X120709429Y-75165504D01*
X120709427Y-75165503D01*
X120702876Y-75160476D01*
X120554851Y-75099162D01*
X120546664Y-75098084D01*
X120546663Y-75098084D01*
X120535458Y-75096609D01*
X120504262Y-75092502D01*
X120435885Y-75083500D01*
X120435882Y-75083500D01*
X120435874Y-75083499D01*
X120404189Y-75079328D01*
X120396000Y-75078250D01*
X120364307Y-75082422D01*
X120347864Y-75083500D01*
X107490136Y-75083500D01*
X107473693Y-75082422D01*
X107442000Y-75078250D01*
X107433811Y-75079328D01*
X107402126Y-75083499D01*
X107402117Y-75083500D01*
X107402115Y-75083500D01*
X107402109Y-75083501D01*
X107402107Y-75083501D01*
X107302543Y-75096609D01*
X107291336Y-75098084D01*
X107291334Y-75098085D01*
X107283149Y-75099162D01*
X107135124Y-75160476D01*
X107128573Y-75165503D01*
X107128571Y-75165504D01*
X107083969Y-75199729D01*
X107039928Y-75233523D01*
X107039925Y-75233526D01*
X107008013Y-75258013D01*
X107002983Y-75264568D01*
X106988548Y-75283379D01*
X106977681Y-75295770D01*
X102727766Y-79545685D01*
X102715375Y-79556552D01*
X102690013Y-79576013D01*
X102665526Y-79607925D01*
X102665523Y-79607928D01*
X102592476Y-79703124D01*
X102531162Y-79851149D01*
X102531162Y-79851150D01*
X102529414Y-79864426D01*
X102524898Y-79898729D01*
X102515500Y-79970115D01*
X102515500Y-79970120D01*
X102510250Y-80010000D01*
X102511328Y-80018188D01*
X102514422Y-80041690D01*
X102515500Y-80058136D01*
X102515500Y-87915710D01*
X102495498Y-87983831D01*
X102483136Y-88000020D01*
X102408377Y-88083049D01*
X102384960Y-88109056D01*
X102354840Y-88161226D01*
X102303652Y-88249886D01*
X102289473Y-88274444D01*
X102230458Y-88456072D01*
X102229768Y-88462633D01*
X102229768Y-88462635D01*
X102216053Y-88593124D01*
X102210496Y-88646000D01*
X99708500Y-88646000D01*
X99708500Y-77477064D01*
X100307707Y-77477064D01*
X100336825Y-77669599D01*
X100339028Y-77675585D01*
X100339029Y-77675591D01*
X100401860Y-77846360D01*
X100401862Y-77846365D01*
X100404063Y-77852346D01*
X100506674Y-78017840D01*
X100640466Y-78159322D01*
X100799975Y-78271011D01*
X100805838Y-78273548D01*
X100972825Y-78345810D01*
X100972829Y-78345811D01*
X100978684Y-78348345D01*
X100984931Y-78349650D01*
X100984934Y-78349651D01*
X101164557Y-78387176D01*
X101164562Y-78387177D01*
X101169293Y-78388165D01*
X101175685Y-78388500D01*
X101318663Y-78388500D01*
X101387951Y-78381462D01*
X101457378Y-78374410D01*
X101457379Y-78374410D01*
X101463727Y-78373765D01*
X101544843Y-78348345D01*
X101643451Y-78317444D01*
X101643456Y-78317442D01*
X101649541Y-78315535D01*
X101754712Y-78257237D01*
X101814271Y-78224223D01*
X101814274Y-78224221D01*
X101819850Y-78221130D01*
X101824691Y-78216981D01*
X101824695Y-78216978D01*
X101962855Y-78098560D01*
X101967698Y-78094409D01*
X101980039Y-78078500D01*
X102083131Y-77945594D01*
X102087046Y-77940547D01*
X102095657Y-77923049D01*
X102170200Y-77771556D01*
X102173018Y-77765829D01*
X102176329Y-77753118D01*
X102220492Y-77583575D01*
X102220492Y-77583572D01*
X102222102Y-77577393D01*
X102227694Y-77470683D01*
X102231959Y-77389317D01*
X102231959Y-77389313D01*
X102232293Y-77382936D01*
X102203175Y-77190401D01*
X102200972Y-77184415D01*
X102200971Y-77184409D01*
X102138140Y-77013640D01*
X102138138Y-77013635D01*
X102135937Y-77007654D01*
X102052184Y-76872574D01*
X102036688Y-76847582D01*
X102036687Y-76847581D01*
X102033326Y-76842160D01*
X102017625Y-76825556D01*
X101903919Y-76705315D01*
X101899534Y-76700678D01*
X101868655Y-76679056D01*
X101798638Y-76630030D01*
X101740025Y-76588989D01*
X101679672Y-76562872D01*
X101567175Y-76514190D01*
X101567171Y-76514189D01*
X101561316Y-76511655D01*
X101555069Y-76510350D01*
X101555066Y-76510349D01*
X101375443Y-76472824D01*
X101375438Y-76472823D01*
X101370707Y-76471835D01*
X101364315Y-76471500D01*
X101221337Y-76471500D01*
X101152049Y-76478538D01*
X101082622Y-76485590D01*
X101082621Y-76485590D01*
X101076273Y-76486235D01*
X101019939Y-76503889D01*
X100896549Y-76542556D01*
X100896544Y-76542558D01*
X100890459Y-76544465D01*
X100834392Y-76575544D01*
X100725729Y-76635777D01*
X100725726Y-76635779D01*
X100720150Y-76638870D01*
X100715309Y-76643019D01*
X100715305Y-76643022D01*
X100577145Y-76761440D01*
X100572302Y-76765591D01*
X100568391Y-76770633D01*
X100568390Y-76770634D01*
X100525788Y-76825556D01*
X100452954Y-76919453D01*
X100450138Y-76925176D01*
X100450136Y-76925179D01*
X100372313Y-77083337D01*
X100366982Y-77094171D01*
X100365373Y-77100349D01*
X100365372Y-77100351D01*
X100319768Y-77275429D01*
X100317898Y-77282607D01*
X100317564Y-77288986D01*
X100310673Y-77420475D01*
X100307707Y-77477064D01*
X99708500Y-77477064D01*
X99708500Y-74158344D01*
X111897016Y-74158344D01*
X111906898Y-74170834D01*
X111950279Y-74199820D01*
X111960389Y-74205310D01*
X112145318Y-74284762D01*
X112156261Y-74288317D01*
X112352567Y-74332737D01*
X112363975Y-74334239D01*
X112565096Y-74342140D01*
X112576580Y-74341538D01*
X112775774Y-74312657D01*
X112786957Y-74309972D01*
X112977547Y-74245276D01*
X112988060Y-74240595D01*
X113114766Y-74169635D01*
X113124631Y-74159557D01*
X113124164Y-74158344D01*
X116747016Y-74158344D01*
X116756898Y-74170834D01*
X116800279Y-74199820D01*
X116810389Y-74205310D01*
X116995318Y-74284762D01*
X117006261Y-74288317D01*
X117202567Y-74332737D01*
X117213975Y-74334239D01*
X117415096Y-74342140D01*
X117426580Y-74341538D01*
X117625774Y-74312657D01*
X117636957Y-74309972D01*
X117827547Y-74245276D01*
X117838060Y-74240595D01*
X117964766Y-74169635D01*
X117974631Y-74159557D01*
X117971675Y-74151885D01*
X117372812Y-73553022D01*
X117358868Y-73545408D01*
X117357035Y-73545539D01*
X117350420Y-73549790D01*
X116753212Y-74146998D01*
X116747016Y-74158344D01*
X113124164Y-74158344D01*
X113121675Y-74151885D01*
X112522812Y-73553022D01*
X112508868Y-73545408D01*
X112507035Y-73545539D01*
X112500420Y-73549790D01*
X111903212Y-74146998D01*
X111897016Y-74158344D01*
X99708500Y-74158344D01*
X99708500Y-72477064D01*
X100307707Y-72477064D01*
X100336825Y-72669599D01*
X100339028Y-72675585D01*
X100339029Y-72675591D01*
X100401860Y-72846360D01*
X100401862Y-72846365D01*
X100404063Y-72852346D01*
X100407425Y-72857768D01*
X100472984Y-72963503D01*
X100506674Y-73017840D01*
X100511055Y-73022473D01*
X100511056Y-73022474D01*
X100574312Y-73089366D01*
X100640466Y-73159322D01*
X100799975Y-73271011D01*
X100805838Y-73273548D01*
X100972825Y-73345810D01*
X100972829Y-73345811D01*
X100978684Y-73348345D01*
X100984931Y-73349650D01*
X100984934Y-73349651D01*
X101164557Y-73387176D01*
X101164562Y-73387177D01*
X101169293Y-73388165D01*
X101175685Y-73388500D01*
X101318663Y-73388500D01*
X101387951Y-73381462D01*
X101457378Y-73374410D01*
X101457379Y-73374410D01*
X101463727Y-73373765D01*
X101544843Y-73348345D01*
X101643451Y-73317444D01*
X101643456Y-73317442D01*
X101649541Y-73315535D01*
X101789133Y-73238157D01*
X101814271Y-73224223D01*
X101814274Y-73224221D01*
X101819850Y-73221130D01*
X101824691Y-73216981D01*
X101824695Y-73216978D01*
X101895462Y-73156323D01*
X111347816Y-73156323D01*
X111360979Y-73357159D01*
X111362780Y-73368529D01*
X111412323Y-73563604D01*
X111416164Y-73574451D01*
X111500429Y-73757238D01*
X111506178Y-73767195D01*
X111519912Y-73786628D01*
X111530501Y-73795016D01*
X111543802Y-73787988D01*
X112137978Y-73193812D01*
X112144356Y-73182132D01*
X112874408Y-73182132D01*
X112874539Y-73183965D01*
X112878790Y-73190580D01*
X113476971Y-73788761D01*
X113489351Y-73795521D01*
X113495931Y-73790595D01*
X113569595Y-73659060D01*
X113574276Y-73648547D01*
X113638972Y-73457957D01*
X113641657Y-73446774D01*
X113670834Y-73245539D01*
X113671464Y-73238157D01*
X113672864Y-73184704D01*
X113672621Y-73177305D01*
X113670693Y-73156323D01*
X116197816Y-73156323D01*
X116210979Y-73357159D01*
X116212780Y-73368529D01*
X116262323Y-73563604D01*
X116266164Y-73574451D01*
X116350429Y-73757238D01*
X116356178Y-73767195D01*
X116369912Y-73786628D01*
X116380501Y-73795016D01*
X116393802Y-73787988D01*
X116987978Y-73193812D01*
X116994356Y-73182132D01*
X117724408Y-73182132D01*
X117724539Y-73183965D01*
X117728790Y-73190580D01*
X118326971Y-73788761D01*
X118339351Y-73795521D01*
X118345931Y-73790595D01*
X118419595Y-73659060D01*
X118424276Y-73648547D01*
X118488972Y-73457957D01*
X118491657Y-73446774D01*
X118520834Y-73245539D01*
X118521464Y-73238157D01*
X118522864Y-73184704D01*
X118522621Y-73177305D01*
X118504016Y-72974824D01*
X118501918Y-72963503D01*
X118447287Y-72769797D01*
X118443163Y-72759050D01*
X118354141Y-72578534D01*
X118350617Y-72572784D01*
X118340595Y-72565262D01*
X118328176Y-72572034D01*
X117732022Y-73168188D01*
X117724408Y-73182132D01*
X116994356Y-73182132D01*
X116995592Y-73179868D01*
X116995461Y-73178035D01*
X116991210Y-73171420D01*
X116391520Y-72571730D01*
X116379140Y-72564970D01*
X116373174Y-72569436D01*
X116288257Y-72730836D01*
X116283848Y-72741479D01*
X116224167Y-72933684D01*
X116221773Y-72944946D01*
X116198117Y-73144821D01*
X116197816Y-73156323D01*
X113670693Y-73156323D01*
X113654016Y-72974824D01*
X113651918Y-72963503D01*
X113597287Y-72769797D01*
X113593163Y-72759050D01*
X113504141Y-72578534D01*
X113500617Y-72572784D01*
X113490595Y-72565262D01*
X113478176Y-72572034D01*
X112882022Y-73168188D01*
X112874408Y-73182132D01*
X112144356Y-73182132D01*
X112145592Y-73179868D01*
X112145461Y-73178035D01*
X112141210Y-73171420D01*
X111541520Y-72571730D01*
X111529140Y-72564970D01*
X111523174Y-72569436D01*
X111438257Y-72730836D01*
X111433848Y-72741479D01*
X111374167Y-72933684D01*
X111371773Y-72944946D01*
X111348117Y-73144821D01*
X111347816Y-73156323D01*
X101895462Y-73156323D01*
X101962855Y-73098560D01*
X101967698Y-73094409D01*
X102087046Y-72940547D01*
X102127779Y-72857768D01*
X102170200Y-72771556D01*
X102173018Y-72765829D01*
X102182133Y-72730836D01*
X102220492Y-72583575D01*
X102220492Y-72583572D01*
X102222102Y-72577393D01*
X102232293Y-72382936D01*
X102206934Y-72215257D01*
X102205110Y-72203196D01*
X111896307Y-72203196D01*
X111899793Y-72211583D01*
X112497188Y-72808978D01*
X112511132Y-72816592D01*
X112512965Y-72816461D01*
X112519580Y-72812210D01*
X113116533Y-72215257D01*
X113123119Y-72203196D01*
X116746307Y-72203196D01*
X116749793Y-72211583D01*
X117347188Y-72808978D01*
X117361132Y-72816592D01*
X117362965Y-72816461D01*
X117369580Y-72812210D01*
X117966533Y-72215257D01*
X117973293Y-72202877D01*
X117967263Y-72194822D01*
X117892857Y-72147875D01*
X117882609Y-72142654D01*
X117695663Y-72068070D01*
X117684635Y-72064803D01*
X117487230Y-72025537D01*
X117475784Y-72024334D01*
X117274537Y-72021700D01*
X117263057Y-72022603D01*
X117064701Y-72056687D01*
X117053581Y-72059667D01*
X116864748Y-72129331D01*
X116854370Y-72134281D01*
X116755906Y-72192861D01*
X116746307Y-72203196D01*
X113123119Y-72203196D01*
X113123293Y-72202877D01*
X113117263Y-72194822D01*
X113042857Y-72147875D01*
X113032609Y-72142654D01*
X112845663Y-72068070D01*
X112834635Y-72064803D01*
X112637230Y-72025537D01*
X112625784Y-72024334D01*
X112424537Y-72021700D01*
X112413057Y-72022603D01*
X112214701Y-72056687D01*
X112203581Y-72059667D01*
X112014748Y-72129331D01*
X112004370Y-72134281D01*
X111905906Y-72192861D01*
X111896307Y-72203196D01*
X102205110Y-72203196D01*
X102204130Y-72196715D01*
X102204130Y-72196714D01*
X102203175Y-72190401D01*
X102200972Y-72184415D01*
X102200971Y-72184409D01*
X102138140Y-72013640D01*
X102138138Y-72013635D01*
X102135937Y-72007654D01*
X102050435Y-71869754D01*
X102036688Y-71847582D01*
X102036687Y-71847581D01*
X102033326Y-71842160D01*
X102028134Y-71836669D01*
X101903919Y-71705315D01*
X101899534Y-71700678D01*
X101892628Y-71695842D01*
X101765222Y-71606632D01*
X101740025Y-71588989D01*
X101692013Y-71568212D01*
X101567175Y-71514190D01*
X101567171Y-71514189D01*
X101561316Y-71511655D01*
X101555069Y-71510350D01*
X101555066Y-71510349D01*
X101375443Y-71472824D01*
X101375438Y-71472823D01*
X101370707Y-71471835D01*
X101364315Y-71471500D01*
X101221337Y-71471500D01*
X101160033Y-71477727D01*
X101082622Y-71485590D01*
X101082621Y-71485590D01*
X101076273Y-71486235D01*
X101019939Y-71503889D01*
X100896549Y-71542556D01*
X100896544Y-71542558D01*
X100890459Y-71544465D01*
X100814713Y-71586452D01*
X100725729Y-71635777D01*
X100725726Y-71635779D01*
X100720150Y-71638870D01*
X100715309Y-71643019D01*
X100715305Y-71643022D01*
X100588251Y-71751921D01*
X100572302Y-71765591D01*
X100568391Y-71770633D01*
X100568390Y-71770634D01*
X100524116Y-71827712D01*
X100452954Y-71919453D01*
X100450138Y-71925176D01*
X100450136Y-71925179D01*
X100390073Y-72047243D01*
X100366982Y-72094171D01*
X100365373Y-72100349D01*
X100365372Y-72100351D01*
X100343477Y-72184409D01*
X100317898Y-72282607D01*
X100317564Y-72288986D01*
X100312648Y-72382792D01*
X100307707Y-72477064D01*
X99708500Y-72477064D01*
X99708500Y-70771405D01*
X110153508Y-70771405D01*
X110165984Y-70907176D01*
X110168082Y-70918497D01*
X110222713Y-71112203D01*
X110226837Y-71122950D01*
X110315859Y-71303466D01*
X110321869Y-71313273D01*
X110442299Y-71474549D01*
X110449989Y-71483089D01*
X110597794Y-71619720D01*
X110606919Y-71626721D01*
X110777144Y-71734125D01*
X110787391Y-71739346D01*
X110974332Y-71813928D01*
X110985369Y-71817197D01*
X111038230Y-71827712D01*
X111051106Y-71826560D01*
X111055067Y-71814294D01*
X111564000Y-71814294D01*
X111567806Y-71827256D01*
X111582722Y-71829192D01*
X111605300Y-71825313D01*
X111616417Y-71822334D01*
X111805252Y-71752669D01*
X111815630Y-71747719D01*
X111988606Y-71644809D01*
X111997915Y-71638045D01*
X112149243Y-71505335D01*
X112157153Y-71497000D01*
X112281764Y-71338931D01*
X112288032Y-71329280D01*
X112381743Y-71151164D01*
X112386152Y-71140521D01*
X112445833Y-70948316D01*
X112448227Y-70937054D01*
X112467563Y-70773678D01*
X112467664Y-70771971D01*
X112467498Y-70771405D01*
X117403508Y-70771405D01*
X117415984Y-70907176D01*
X117418082Y-70918497D01*
X117472713Y-71112203D01*
X117476837Y-71122950D01*
X117565859Y-71303466D01*
X117571869Y-71313273D01*
X117692299Y-71474549D01*
X117699989Y-71483089D01*
X117847794Y-71619720D01*
X117856919Y-71626721D01*
X118027144Y-71734125D01*
X118037391Y-71739346D01*
X118224332Y-71813928D01*
X118235369Y-71817197D01*
X118288230Y-71827712D01*
X118301106Y-71826560D01*
X118305067Y-71814294D01*
X118814000Y-71814294D01*
X118817806Y-71827256D01*
X118832722Y-71829192D01*
X118855300Y-71825313D01*
X118866417Y-71822334D01*
X119055252Y-71752669D01*
X119065630Y-71747719D01*
X119238606Y-71644809D01*
X119247915Y-71638045D01*
X119399243Y-71505335D01*
X119407153Y-71497000D01*
X119531764Y-71338931D01*
X119538032Y-71329280D01*
X119631743Y-71151164D01*
X119636152Y-71140521D01*
X119695833Y-70948316D01*
X119698227Y-70937054D01*
X119717563Y-70773678D01*
X119717664Y-70771971D01*
X119713525Y-70757876D01*
X119712135Y-70756671D01*
X119704452Y-70755000D01*
X118832115Y-70755000D01*
X118816876Y-70759475D01*
X118815671Y-70760865D01*
X118814000Y-70768548D01*
X118814000Y-71814294D01*
X118305067Y-71814294D01*
X118306000Y-71811404D01*
X118306000Y-70773115D01*
X118301525Y-70757876D01*
X118300135Y-70756671D01*
X118292452Y-70755000D01*
X117420116Y-70755000D01*
X117405571Y-70759271D01*
X117403508Y-70771405D01*
X112467498Y-70771405D01*
X112463525Y-70757876D01*
X112462135Y-70756671D01*
X112454452Y-70755000D01*
X111582115Y-70755000D01*
X111566876Y-70759475D01*
X111565671Y-70760865D01*
X111564000Y-70768548D01*
X111564000Y-71814294D01*
X111055067Y-71814294D01*
X111056000Y-71811404D01*
X111056000Y-70773115D01*
X111051525Y-70757876D01*
X111050135Y-70756671D01*
X111042452Y-70755000D01*
X110170116Y-70755000D01*
X110155571Y-70759271D01*
X110153508Y-70771405D01*
X99708500Y-70771405D01*
X99708500Y-69253250D01*
X99710246Y-69232345D01*
X99712770Y-69217344D01*
X99712770Y-69217341D01*
X99713576Y-69212552D01*
X99713729Y-69200000D01*
X99713038Y-69195177D01*
X99712852Y-69192320D01*
X99714136Y-69164417D01*
X99719645Y-69129631D01*
X99731827Y-69092141D01*
X99755113Y-69046440D01*
X99778285Y-69014548D01*
X99814548Y-68978285D01*
X99846440Y-68955113D01*
X99892141Y-68931827D01*
X99929631Y-68919646D01*
X99966025Y-68913881D01*
X99985750Y-68912449D01*
X99993724Y-68913691D01*
X100025286Y-68909564D01*
X100041621Y-68908500D01*
X111098157Y-68908500D01*
X111166278Y-68928502D01*
G37*
G04 #@! TD.AperFunction*
M02*
