%TF.GenerationSoftware,KiCad,Pcbnew,(6.0.10)*%
%TF.CreationDate,2023-01-18T01:33:54+01:00*%
%TF.ProjectId,hwpuzzle,68777075-7a7a-46c6-952e-6b696361645f,0.1*%
%TF.SameCoordinates,Original*%
%TF.FileFunction,Drillmap*%
%TF.FilePolarity,Positive*%
%FSLAX45Y45*%
G04 Gerber Fmt 4.5, Leading zero omitted, Abs format (unit mm)*
G04 Created by KiCad (PCBNEW (6.0.10)) date 2023-01-18 01:33:54*
%MOMM*%
%LPD*%
G01*
G04 APERTURE LIST*
%ADD10C,0.100000*%
%ADD11C,0.200000*%
%ADD12C,0.040000*%
%ADD13C,0.070000*%
G04 APERTURE END LIST*
D10*
X10000000Y-6840000D02*
X16780000Y-6840000D01*
X9920000Y-9800000D02*
X9920000Y-6920000D01*
X16780000Y-9880000D02*
X10000000Y-9880000D01*
X16860000Y-6920000D02*
X16860000Y-9800000D01*
X16860000Y-6920000D02*
G75*
G03*
X16780000Y-6840000I-80000J0D01*
G01*
X16780000Y-9880000D02*
G75*
G03*
X16860000Y-9800000I0J80000D01*
G01*
X9920000Y-9800000D02*
G75*
G03*
X10000000Y-9880000I80000J0D01*
G01*
X10000000Y-6840000D02*
G75*
G03*
X9920000Y-6920000I0J-80000D01*
G01*
D11*
D12*
X10292400Y-8844600D02*
X10332400Y-8884600D01*
X10332400Y-8844600D02*
X10292400Y-8884600D01*
X10495600Y-8006400D02*
X10535600Y-8046400D01*
X10535600Y-8006400D02*
X10495600Y-8046400D01*
X10673400Y-8768400D02*
X10713400Y-8808400D01*
X10713400Y-8768400D02*
X10673400Y-8808400D01*
X10800400Y-8438200D02*
X10840400Y-8478200D01*
X10840400Y-8438200D02*
X10800400Y-8478200D01*
X10927400Y-8057200D02*
X10967400Y-8097200D01*
X10967400Y-8057200D02*
X10927400Y-8097200D01*
X10952800Y-8971600D02*
X10992800Y-9011600D01*
X10992800Y-8971600D02*
X10952800Y-9011600D01*
X11156000Y-7676200D02*
X11196000Y-7716200D01*
X11196000Y-7676200D02*
X11156000Y-7716200D01*
X11816400Y-9632000D02*
X11856400Y-9672000D01*
X11856400Y-9632000D02*
X11816400Y-9672000D01*
X11841800Y-8412800D02*
X11881800Y-8452800D01*
X11881800Y-8412800D02*
X11841800Y-8452800D01*
X11892600Y-7650800D02*
X11932600Y-7690800D01*
X11932600Y-7650800D02*
X11892600Y-7690800D01*
X12146600Y-9047800D02*
X12186600Y-9087800D01*
X12186600Y-9047800D02*
X12146600Y-9087800D01*
X12172000Y-8539800D02*
X12212000Y-8579800D01*
X12212000Y-8539800D02*
X12172000Y-8579800D01*
X12222800Y-8793800D02*
X12262800Y-8833800D01*
X12262800Y-8793800D02*
X12222800Y-8833800D01*
X12273600Y-7269800D02*
X12313600Y-7309800D01*
X12313600Y-7269800D02*
X12273600Y-7309800D01*
X12349800Y-8171500D02*
X12389800Y-8211500D01*
X12389800Y-8171500D02*
X12349800Y-8211500D01*
X12375200Y-8692200D02*
X12415200Y-8732200D01*
X12415200Y-8692200D02*
X12375200Y-8732200D01*
X12451400Y-7549200D02*
X12491400Y-7589200D01*
X12491400Y-7549200D02*
X12451400Y-7589200D01*
X12553000Y-9047800D02*
X12593000Y-9087800D01*
X12593000Y-9047800D02*
X12553000Y-9087800D01*
X12578400Y-7930200D02*
X12618400Y-7970200D01*
X12618400Y-7930200D02*
X12578400Y-7970200D01*
X12629200Y-8793800D02*
X12669200Y-8833800D01*
X12669200Y-8793800D02*
X12629200Y-8833800D01*
X12654600Y-8158800D02*
X12694600Y-8198800D01*
X12694600Y-8158800D02*
X12654600Y-8198800D01*
X12705400Y-8986950D02*
X12745400Y-9026950D01*
X12745400Y-8986950D02*
X12705400Y-9026950D01*
X12781600Y-8006400D02*
X12821600Y-8046400D01*
X12821600Y-8006400D02*
X12781600Y-8046400D01*
X12781600Y-8489000D02*
X12821600Y-8529000D01*
X12821600Y-8489000D02*
X12781600Y-8529000D01*
X12857800Y-8743000D02*
X12897800Y-8783000D01*
X12897800Y-8743000D02*
X12857800Y-8783000D01*
X12883200Y-9149400D02*
X12923200Y-9189400D01*
X12923200Y-9149400D02*
X12883200Y-9189400D01*
X12934000Y-8463600D02*
X12974000Y-8503600D01*
X12974000Y-8463600D02*
X12934000Y-8503600D01*
X12959400Y-7549200D02*
X12999400Y-7589200D01*
X12999400Y-7549200D02*
X12959400Y-7589200D01*
X13022900Y-7930200D02*
X13062900Y-7970200D01*
X13062900Y-7930200D02*
X13022900Y-7970200D01*
X13086400Y-8743000D02*
X13126400Y-8783000D01*
X13126400Y-8743000D02*
X13086400Y-8783000D01*
X13086400Y-9276400D02*
X13126400Y-9316400D01*
X13126400Y-9276400D02*
X13086400Y-9316400D01*
X13111800Y-8514400D02*
X13151800Y-8554400D01*
X13151800Y-8514400D02*
X13111800Y-8554400D01*
X13137200Y-7701600D02*
X13177200Y-7741600D01*
X13177200Y-7701600D02*
X13137200Y-7741600D01*
X13137200Y-8362000D02*
X13177200Y-8402000D01*
X13177200Y-8362000D02*
X13137200Y-8402000D01*
X13162600Y-8641400D02*
X13202600Y-8681400D01*
X13202600Y-8641400D02*
X13162600Y-8681400D01*
X13391200Y-8565200D02*
X13431200Y-8605200D01*
X13431200Y-8565200D02*
X13391200Y-8605200D01*
X13442000Y-8463600D02*
X13482000Y-8503600D01*
X13482000Y-8463600D02*
X13442000Y-8503600D01*
X13645200Y-8946200D02*
X13685200Y-8986200D01*
X13685200Y-8946200D02*
X13645200Y-8986200D01*
X13645200Y-9378000D02*
X13685200Y-9418000D01*
X13685200Y-9378000D02*
X13645200Y-9418000D01*
X13670600Y-8616000D02*
X13710600Y-8656000D01*
X13710600Y-8616000D02*
X13670600Y-8656000D01*
X13696000Y-8209600D02*
X13736000Y-8249600D01*
X13736000Y-8209600D02*
X13696000Y-8249600D01*
X13721400Y-7600000D02*
X13761400Y-7640000D01*
X13761400Y-7600000D02*
X13721400Y-7640000D01*
X13746800Y-8997000D02*
X13786800Y-9037000D01*
X13786800Y-8997000D02*
X13746800Y-9037000D01*
X13772200Y-9454200D02*
X13812200Y-9494200D01*
X13812200Y-9454200D02*
X13772200Y-9494200D01*
X13873800Y-9073200D02*
X13913800Y-9113200D01*
X13913800Y-9073200D02*
X13873800Y-9113200D01*
X13911900Y-8616000D02*
X13951900Y-8656000D01*
X13951900Y-8616000D02*
X13911900Y-8656000D01*
X13924600Y-8133400D02*
X13964600Y-8173400D01*
X13964600Y-8133400D02*
X13924600Y-8173400D01*
X13950000Y-8463600D02*
X13990000Y-8503600D01*
X13990000Y-8463600D02*
X13950000Y-8503600D01*
X14115100Y-8044500D02*
X14155100Y-8084500D01*
X14155100Y-8044500D02*
X14115100Y-8084500D01*
X14191300Y-7536500D02*
X14231300Y-7576500D01*
X14231300Y-7536500D02*
X14191300Y-7576500D01*
X14254800Y-9352600D02*
X14294800Y-9392600D01*
X14294800Y-9352600D02*
X14254800Y-9392600D01*
X14381800Y-7625400D02*
X14421800Y-7665400D01*
X14421800Y-7625400D02*
X14381800Y-7665400D01*
X14381800Y-9136700D02*
X14421800Y-9176700D01*
X14421800Y-9136700D02*
X14381800Y-9176700D01*
X14508800Y-9581200D02*
X14548800Y-9621200D01*
X14548800Y-9581200D02*
X14508800Y-9621200D01*
X14572300Y-9009700D02*
X14612300Y-9049700D01*
X14612300Y-9009700D02*
X14572300Y-9049700D01*
X14585000Y-7727000D02*
X14625000Y-7767000D01*
X14625000Y-7727000D02*
X14585000Y-7767000D01*
X14635800Y-8870000D02*
X14675800Y-8910000D01*
X14675800Y-8870000D02*
X14635800Y-8910000D01*
X14788200Y-9136700D02*
X14828200Y-9176700D01*
X14828200Y-9136700D02*
X14788200Y-9176700D01*
X14953300Y-9009700D02*
X14993300Y-9049700D01*
X14993300Y-9009700D02*
X14953300Y-9049700D01*
X14966000Y-8260400D02*
X15006000Y-8300400D01*
X15006000Y-8260400D02*
X14966000Y-8300400D01*
X15575600Y-7930200D02*
X15615600Y-7970200D01*
X15615600Y-7930200D02*
X15575600Y-7970200D01*
X16032800Y-8057200D02*
X16072800Y-8097200D01*
X16072800Y-8057200D02*
X16032800Y-8097200D01*
X16515400Y-8870000D02*
X16555400Y-8910000D01*
X16555400Y-8870000D02*
X16515400Y-8910000D01*
D13*
X11166000Y-7050100D02*
G75*
G03*
X11166000Y-7050100I-35000J0D01*
G01*
D11*
X11096000Y-7030100D02*
X11096000Y-7070100D01*
X11166000Y-7030100D02*
X11166000Y-7070100D01*
X11096000Y-7070100D02*
G75*
G03*
X11166000Y-7070100I35000J0D01*
G01*
X11166000Y-7030100D02*
G75*
G03*
X11096000Y-7030100I-35000J0D01*
G01*
D13*
X11286000Y-7318100D02*
G75*
G03*
X11286000Y-7318100I-35000J0D01*
G01*
X11771000Y-7318100D02*
G75*
G03*
X11771000Y-7318100I-35000J0D01*
G01*
X11891000Y-7050100D02*
G75*
G03*
X11891000Y-7050100I-35000J0D01*
G01*
D11*
X11821000Y-7030100D02*
X11821000Y-7070100D01*
X11891000Y-7030100D02*
X11891000Y-7070100D01*
X11821000Y-7070100D02*
G75*
G03*
X11891000Y-7070100I35000J0D01*
G01*
X11891000Y-7030100D02*
G75*
G03*
X11821000Y-7030100I-35000J0D01*
G01*
D10*
X12573000Y-6998500D02*
X12573000Y-7098500D01*
X12523000Y-7048500D02*
X12623000Y-7048500D01*
X12573000Y-7252500D02*
X12573000Y-7352500D01*
X12523000Y-7302500D02*
X12623000Y-7302500D01*
X12827000Y-6998500D02*
X12827000Y-7098500D01*
X12777000Y-7048500D02*
X12877000Y-7048500D01*
X12827000Y-7252500D02*
X12827000Y-7352500D01*
X12777000Y-7302500D02*
X12877000Y-7302500D01*
X13081000Y-6998500D02*
X13081000Y-7098500D01*
X13031000Y-7048500D02*
X13131000Y-7048500D01*
X13081000Y-7252500D02*
X13081000Y-7352500D01*
X13031000Y-7302500D02*
X13131000Y-7302500D01*
X13654000Y-6999000D02*
X13654000Y-7099000D01*
X13604000Y-7049000D02*
X13704000Y-7049000D01*
X13654000Y-7253000D02*
X13654000Y-7353000D01*
X13604000Y-7303000D02*
X13704000Y-7303000D01*
X13908000Y-6999000D02*
X13908000Y-7099000D01*
X13858000Y-7049000D02*
X13958000Y-7049000D01*
X13908000Y-7253000D02*
X13908000Y-7353000D01*
X13858000Y-7303000D02*
X13958000Y-7303000D01*
X14162000Y-6999000D02*
X14162000Y-7099000D01*
X14112000Y-7049000D02*
X14212000Y-7049000D01*
X14162000Y-7253000D02*
X14162000Y-7353000D01*
X14112000Y-7303000D02*
X14212000Y-7303000D01*
D11*
X10172619Y-10195476D02*
X10172619Y-9995476D01*
X10220238Y-9995476D01*
X10248810Y-10005000D01*
X10267857Y-10024048D01*
X10277381Y-10043095D01*
X10286905Y-10081190D01*
X10286905Y-10109762D01*
X10277381Y-10147857D01*
X10267857Y-10166905D01*
X10248810Y-10185952D01*
X10220238Y-10195476D01*
X10172619Y-10195476D01*
X10372619Y-10195476D02*
X10372619Y-10062143D01*
X10372619Y-10100238D02*
X10382143Y-10081190D01*
X10391667Y-10071667D01*
X10410714Y-10062143D01*
X10429762Y-10062143D01*
X10496429Y-10195476D02*
X10496429Y-10062143D01*
X10496429Y-9995476D02*
X10486905Y-10005000D01*
X10496429Y-10014524D01*
X10505952Y-10005000D01*
X10496429Y-9995476D01*
X10496429Y-10014524D01*
X10620238Y-10195476D02*
X10601190Y-10185952D01*
X10591667Y-10166905D01*
X10591667Y-9995476D01*
X10725000Y-10195476D02*
X10705952Y-10185952D01*
X10696429Y-10166905D01*
X10696429Y-9995476D01*
X10953571Y-10195476D02*
X10953571Y-9995476D01*
X11020238Y-10138333D01*
X11086905Y-9995476D01*
X11086905Y-10195476D01*
X11267857Y-10195476D02*
X11267857Y-10090714D01*
X11258333Y-10071667D01*
X11239286Y-10062143D01*
X11201190Y-10062143D01*
X11182143Y-10071667D01*
X11267857Y-10185952D02*
X11248809Y-10195476D01*
X11201190Y-10195476D01*
X11182143Y-10185952D01*
X11172619Y-10166905D01*
X11172619Y-10147857D01*
X11182143Y-10128810D01*
X11201190Y-10119286D01*
X11248809Y-10119286D01*
X11267857Y-10109762D01*
X11363095Y-10062143D02*
X11363095Y-10262143D01*
X11363095Y-10071667D02*
X11382143Y-10062143D01*
X11420238Y-10062143D01*
X11439286Y-10071667D01*
X11448809Y-10081190D01*
X11458333Y-10100238D01*
X11458333Y-10157381D01*
X11448809Y-10176429D01*
X11439286Y-10185952D01*
X11420238Y-10195476D01*
X11382143Y-10195476D01*
X11363095Y-10185952D01*
X11544048Y-10176429D02*
X11553571Y-10185952D01*
X11544048Y-10195476D01*
X11534524Y-10185952D01*
X11544048Y-10176429D01*
X11544048Y-10195476D01*
X11544048Y-10071667D02*
X11553571Y-10081190D01*
X11544048Y-10090714D01*
X11534524Y-10081190D01*
X11544048Y-10071667D01*
X11544048Y-10090714D01*
D12*
X9875000Y-10505000D02*
X9915000Y-10545000D01*
X9915000Y-10505000D02*
X9875000Y-10545000D01*
D11*
X10210714Y-10415476D02*
X10229762Y-10415476D01*
X10248810Y-10425000D01*
X10258333Y-10434524D01*
X10267857Y-10453571D01*
X10277381Y-10491667D01*
X10277381Y-10539286D01*
X10267857Y-10577381D01*
X10258333Y-10596429D01*
X10248810Y-10605952D01*
X10229762Y-10615476D01*
X10210714Y-10615476D01*
X10191667Y-10605952D01*
X10182143Y-10596429D01*
X10172619Y-10577381D01*
X10163095Y-10539286D01*
X10163095Y-10491667D01*
X10172619Y-10453571D01*
X10182143Y-10434524D01*
X10191667Y-10425000D01*
X10210714Y-10415476D01*
X10363095Y-10596429D02*
X10372619Y-10605952D01*
X10363095Y-10615476D01*
X10353571Y-10605952D01*
X10363095Y-10596429D01*
X10363095Y-10615476D01*
X10544048Y-10482143D02*
X10544048Y-10615476D01*
X10496429Y-10405952D02*
X10448810Y-10548810D01*
X10572619Y-10548810D01*
X10686905Y-10415476D02*
X10705952Y-10415476D01*
X10725000Y-10425000D01*
X10734524Y-10434524D01*
X10744048Y-10453571D01*
X10753571Y-10491667D01*
X10753571Y-10539286D01*
X10744048Y-10577381D01*
X10734524Y-10596429D01*
X10725000Y-10605952D01*
X10705952Y-10615476D01*
X10686905Y-10615476D01*
X10667857Y-10605952D01*
X10658333Y-10596429D01*
X10648810Y-10577381D01*
X10639286Y-10539286D01*
X10639286Y-10491667D01*
X10648810Y-10453571D01*
X10658333Y-10434524D01*
X10667857Y-10425000D01*
X10686905Y-10415476D01*
X10877381Y-10415476D02*
X10896429Y-10415476D01*
X10915476Y-10425000D01*
X10925000Y-10434524D01*
X10934524Y-10453571D01*
X10944048Y-10491667D01*
X10944048Y-10539286D01*
X10934524Y-10577381D01*
X10925000Y-10596429D01*
X10915476Y-10605952D01*
X10896429Y-10615476D01*
X10877381Y-10615476D01*
X10858333Y-10605952D01*
X10848810Y-10596429D01*
X10839286Y-10577381D01*
X10829762Y-10539286D01*
X10829762Y-10491667D01*
X10839286Y-10453571D01*
X10848810Y-10434524D01*
X10858333Y-10425000D01*
X10877381Y-10415476D01*
X11029762Y-10615476D02*
X11029762Y-10482143D01*
X11029762Y-10501190D02*
X11039286Y-10491667D01*
X11058333Y-10482143D01*
X11086905Y-10482143D01*
X11105952Y-10491667D01*
X11115476Y-10510714D01*
X11115476Y-10615476D01*
X11115476Y-10510714D02*
X11125000Y-10491667D01*
X11144048Y-10482143D01*
X11172619Y-10482143D01*
X11191667Y-10491667D01*
X11201190Y-10510714D01*
X11201190Y-10615476D01*
X11296428Y-10615476D02*
X11296428Y-10482143D01*
X11296428Y-10501190D02*
X11305952Y-10491667D01*
X11325000Y-10482143D01*
X11353571Y-10482143D01*
X11372619Y-10491667D01*
X11382143Y-10510714D01*
X11382143Y-10615476D01*
X11382143Y-10510714D02*
X11391667Y-10491667D01*
X11410714Y-10482143D01*
X11439286Y-10482143D01*
X11458333Y-10491667D01*
X11467857Y-10510714D01*
X11467857Y-10615476D01*
X11858333Y-10405952D02*
X11686905Y-10663095D01*
X12115476Y-10415476D02*
X12134524Y-10415476D01*
X12153571Y-10425000D01*
X12163095Y-10434524D01*
X12172619Y-10453571D01*
X12182143Y-10491667D01*
X12182143Y-10539286D01*
X12172619Y-10577381D01*
X12163095Y-10596429D01*
X12153571Y-10605952D01*
X12134524Y-10615476D01*
X12115476Y-10615476D01*
X12096428Y-10605952D01*
X12086905Y-10596429D01*
X12077381Y-10577381D01*
X12067857Y-10539286D01*
X12067857Y-10491667D01*
X12077381Y-10453571D01*
X12086905Y-10434524D01*
X12096428Y-10425000D01*
X12115476Y-10415476D01*
X12267857Y-10596429D02*
X12277381Y-10605952D01*
X12267857Y-10615476D01*
X12258333Y-10605952D01*
X12267857Y-10596429D01*
X12267857Y-10615476D01*
X12401190Y-10415476D02*
X12420238Y-10415476D01*
X12439286Y-10425000D01*
X12448809Y-10434524D01*
X12458333Y-10453571D01*
X12467857Y-10491667D01*
X12467857Y-10539286D01*
X12458333Y-10577381D01*
X12448809Y-10596429D01*
X12439286Y-10605952D01*
X12420238Y-10615476D01*
X12401190Y-10615476D01*
X12382143Y-10605952D01*
X12372619Y-10596429D01*
X12363095Y-10577381D01*
X12353571Y-10539286D01*
X12353571Y-10491667D01*
X12363095Y-10453571D01*
X12372619Y-10434524D01*
X12382143Y-10425000D01*
X12401190Y-10415476D01*
X12658333Y-10615476D02*
X12544048Y-10615476D01*
X12601190Y-10615476D02*
X12601190Y-10415476D01*
X12582143Y-10444048D01*
X12563095Y-10463095D01*
X12544048Y-10472619D01*
X12839286Y-10415476D02*
X12744048Y-10415476D01*
X12734524Y-10510714D01*
X12744048Y-10501190D01*
X12763095Y-10491667D01*
X12810714Y-10491667D01*
X12829762Y-10501190D01*
X12839286Y-10510714D01*
X12848809Y-10529762D01*
X12848809Y-10577381D01*
X12839286Y-10596429D01*
X12829762Y-10605952D01*
X12810714Y-10615476D01*
X12763095Y-10615476D01*
X12744048Y-10605952D01*
X12734524Y-10596429D01*
X12915476Y-10415476D02*
X13048809Y-10415476D01*
X12963095Y-10615476D01*
X13115476Y-10415476D02*
X13115476Y-10453571D01*
X13191667Y-10415476D02*
X13191667Y-10453571D01*
X13486905Y-10691667D02*
X13477381Y-10682143D01*
X13458333Y-10653571D01*
X13448809Y-10634524D01*
X13439286Y-10605952D01*
X13429762Y-10558333D01*
X13429762Y-10520238D01*
X13439286Y-10472619D01*
X13448809Y-10444048D01*
X13458333Y-10425000D01*
X13477381Y-10396429D01*
X13486905Y-10386905D01*
X13648809Y-10415476D02*
X13610714Y-10415476D01*
X13591667Y-10425000D01*
X13582143Y-10434524D01*
X13563095Y-10463095D01*
X13553571Y-10501190D01*
X13553571Y-10577381D01*
X13563095Y-10596429D01*
X13572619Y-10605952D01*
X13591667Y-10615476D01*
X13629762Y-10615476D01*
X13648809Y-10605952D01*
X13658333Y-10596429D01*
X13667857Y-10577381D01*
X13667857Y-10529762D01*
X13658333Y-10510714D01*
X13648809Y-10501190D01*
X13629762Y-10491667D01*
X13591667Y-10491667D01*
X13572619Y-10501190D01*
X13563095Y-10510714D01*
X13553571Y-10529762D01*
X13734524Y-10415476D02*
X13858333Y-10415476D01*
X13791667Y-10491667D01*
X13820238Y-10491667D01*
X13839286Y-10501190D01*
X13848809Y-10510714D01*
X13858333Y-10529762D01*
X13858333Y-10577381D01*
X13848809Y-10596429D01*
X13839286Y-10605952D01*
X13820238Y-10615476D01*
X13763095Y-10615476D01*
X13744048Y-10605952D01*
X13734524Y-10596429D01*
X14096428Y-10615476D02*
X14096428Y-10415476D01*
X14182143Y-10615476D02*
X14182143Y-10510714D01*
X14172619Y-10491667D01*
X14153571Y-10482143D01*
X14125000Y-10482143D01*
X14105952Y-10491667D01*
X14096428Y-10501190D01*
X14305952Y-10615476D02*
X14286905Y-10605952D01*
X14277381Y-10596429D01*
X14267857Y-10577381D01*
X14267857Y-10520238D01*
X14277381Y-10501190D01*
X14286905Y-10491667D01*
X14305952Y-10482143D01*
X14334524Y-10482143D01*
X14353571Y-10491667D01*
X14363095Y-10501190D01*
X14372619Y-10520238D01*
X14372619Y-10577381D01*
X14363095Y-10596429D01*
X14353571Y-10605952D01*
X14334524Y-10615476D01*
X14305952Y-10615476D01*
X14486905Y-10615476D02*
X14467857Y-10605952D01*
X14458333Y-10586905D01*
X14458333Y-10415476D01*
X14639286Y-10605952D02*
X14620238Y-10615476D01*
X14582143Y-10615476D01*
X14563095Y-10605952D01*
X14553571Y-10586905D01*
X14553571Y-10510714D01*
X14563095Y-10491667D01*
X14582143Y-10482143D01*
X14620238Y-10482143D01*
X14639286Y-10491667D01*
X14648809Y-10510714D01*
X14648809Y-10529762D01*
X14553571Y-10548810D01*
X14725000Y-10605952D02*
X14744048Y-10615476D01*
X14782143Y-10615476D01*
X14801190Y-10605952D01*
X14810714Y-10586905D01*
X14810714Y-10577381D01*
X14801190Y-10558333D01*
X14782143Y-10548810D01*
X14753571Y-10548810D01*
X14734524Y-10539286D01*
X14725000Y-10520238D01*
X14725000Y-10510714D01*
X14734524Y-10491667D01*
X14753571Y-10482143D01*
X14782143Y-10482143D01*
X14801190Y-10491667D01*
X14877381Y-10691667D02*
X14886905Y-10682143D01*
X14905952Y-10653571D01*
X14915476Y-10634524D01*
X14925000Y-10605952D01*
X14934524Y-10558333D01*
X14934524Y-10520238D01*
X14925000Y-10472619D01*
X14915476Y-10444048D01*
X14905952Y-10425000D01*
X14886905Y-10396429D01*
X14877381Y-10386905D01*
D13*
X9915000Y-10789000D02*
G75*
G03*
X9915000Y-10789000I-35000J0D01*
G01*
D11*
X10210714Y-10679476D02*
X10229762Y-10679476D01*
X10248810Y-10689000D01*
X10258333Y-10698524D01*
X10267857Y-10717571D01*
X10277381Y-10755667D01*
X10277381Y-10803286D01*
X10267857Y-10841381D01*
X10258333Y-10860429D01*
X10248810Y-10869952D01*
X10229762Y-10879476D01*
X10210714Y-10879476D01*
X10191667Y-10869952D01*
X10182143Y-10860429D01*
X10172619Y-10841381D01*
X10163095Y-10803286D01*
X10163095Y-10755667D01*
X10172619Y-10717571D01*
X10182143Y-10698524D01*
X10191667Y-10689000D01*
X10210714Y-10679476D01*
X10363095Y-10860429D02*
X10372619Y-10869952D01*
X10363095Y-10879476D01*
X10353571Y-10869952D01*
X10363095Y-10860429D01*
X10363095Y-10879476D01*
X10439286Y-10679476D02*
X10572619Y-10679476D01*
X10486905Y-10879476D01*
X10686905Y-10679476D02*
X10705952Y-10679476D01*
X10725000Y-10689000D01*
X10734524Y-10698524D01*
X10744048Y-10717571D01*
X10753571Y-10755667D01*
X10753571Y-10803286D01*
X10744048Y-10841381D01*
X10734524Y-10860429D01*
X10725000Y-10869952D01*
X10705952Y-10879476D01*
X10686905Y-10879476D01*
X10667857Y-10869952D01*
X10658333Y-10860429D01*
X10648810Y-10841381D01*
X10639286Y-10803286D01*
X10639286Y-10755667D01*
X10648810Y-10717571D01*
X10658333Y-10698524D01*
X10667857Y-10689000D01*
X10686905Y-10679476D01*
X10877381Y-10679476D02*
X10896429Y-10679476D01*
X10915476Y-10689000D01*
X10925000Y-10698524D01*
X10934524Y-10717571D01*
X10944048Y-10755667D01*
X10944048Y-10803286D01*
X10934524Y-10841381D01*
X10925000Y-10860429D01*
X10915476Y-10869952D01*
X10896429Y-10879476D01*
X10877381Y-10879476D01*
X10858333Y-10869952D01*
X10848810Y-10860429D01*
X10839286Y-10841381D01*
X10829762Y-10803286D01*
X10829762Y-10755667D01*
X10839286Y-10717571D01*
X10848810Y-10698524D01*
X10858333Y-10689000D01*
X10877381Y-10679476D01*
X11029762Y-10879476D02*
X11029762Y-10746143D01*
X11029762Y-10765190D02*
X11039286Y-10755667D01*
X11058333Y-10746143D01*
X11086905Y-10746143D01*
X11105952Y-10755667D01*
X11115476Y-10774714D01*
X11115476Y-10879476D01*
X11115476Y-10774714D02*
X11125000Y-10755667D01*
X11144048Y-10746143D01*
X11172619Y-10746143D01*
X11191667Y-10755667D01*
X11201190Y-10774714D01*
X11201190Y-10879476D01*
X11296428Y-10879476D02*
X11296428Y-10746143D01*
X11296428Y-10765190D02*
X11305952Y-10755667D01*
X11325000Y-10746143D01*
X11353571Y-10746143D01*
X11372619Y-10755667D01*
X11382143Y-10774714D01*
X11382143Y-10879476D01*
X11382143Y-10774714D02*
X11391667Y-10755667D01*
X11410714Y-10746143D01*
X11439286Y-10746143D01*
X11458333Y-10755667D01*
X11467857Y-10774714D01*
X11467857Y-10879476D01*
X11858333Y-10669952D02*
X11686905Y-10927095D01*
X12115476Y-10679476D02*
X12134524Y-10679476D01*
X12153571Y-10689000D01*
X12163095Y-10698524D01*
X12172619Y-10717571D01*
X12182143Y-10755667D01*
X12182143Y-10803286D01*
X12172619Y-10841381D01*
X12163095Y-10860429D01*
X12153571Y-10869952D01*
X12134524Y-10879476D01*
X12115476Y-10879476D01*
X12096428Y-10869952D01*
X12086905Y-10860429D01*
X12077381Y-10841381D01*
X12067857Y-10803286D01*
X12067857Y-10755667D01*
X12077381Y-10717571D01*
X12086905Y-10698524D01*
X12096428Y-10689000D01*
X12115476Y-10679476D01*
X12267857Y-10860429D02*
X12277381Y-10869952D01*
X12267857Y-10879476D01*
X12258333Y-10869952D01*
X12267857Y-10860429D01*
X12267857Y-10879476D01*
X12401190Y-10679476D02*
X12420238Y-10679476D01*
X12439286Y-10689000D01*
X12448809Y-10698524D01*
X12458333Y-10717571D01*
X12467857Y-10755667D01*
X12467857Y-10803286D01*
X12458333Y-10841381D01*
X12448809Y-10860429D01*
X12439286Y-10869952D01*
X12420238Y-10879476D01*
X12401190Y-10879476D01*
X12382143Y-10869952D01*
X12372619Y-10860429D01*
X12363095Y-10841381D01*
X12353571Y-10803286D01*
X12353571Y-10755667D01*
X12363095Y-10717571D01*
X12372619Y-10698524D01*
X12382143Y-10689000D01*
X12401190Y-10679476D01*
X12544048Y-10698524D02*
X12553571Y-10689000D01*
X12572619Y-10679476D01*
X12620238Y-10679476D01*
X12639286Y-10689000D01*
X12648809Y-10698524D01*
X12658333Y-10717571D01*
X12658333Y-10736619D01*
X12648809Y-10765190D01*
X12534524Y-10879476D01*
X12658333Y-10879476D01*
X12725000Y-10679476D02*
X12858333Y-10679476D01*
X12772619Y-10879476D01*
X13020238Y-10679476D02*
X12982143Y-10679476D01*
X12963095Y-10689000D01*
X12953571Y-10698524D01*
X12934524Y-10727095D01*
X12925000Y-10765190D01*
X12925000Y-10841381D01*
X12934524Y-10860429D01*
X12944048Y-10869952D01*
X12963095Y-10879476D01*
X13001190Y-10879476D01*
X13020238Y-10869952D01*
X13029762Y-10860429D01*
X13039286Y-10841381D01*
X13039286Y-10793762D01*
X13029762Y-10774714D01*
X13020238Y-10765190D01*
X13001190Y-10755667D01*
X12963095Y-10755667D01*
X12944048Y-10765190D01*
X12934524Y-10774714D01*
X12925000Y-10793762D01*
X13115476Y-10679476D02*
X13115476Y-10717571D01*
X13191667Y-10679476D02*
X13191667Y-10717571D01*
X13486905Y-10955667D02*
X13477381Y-10946143D01*
X13458333Y-10917571D01*
X13448809Y-10898524D01*
X13439286Y-10869952D01*
X13429762Y-10822333D01*
X13429762Y-10784238D01*
X13439286Y-10736619D01*
X13448809Y-10708048D01*
X13458333Y-10689000D01*
X13477381Y-10660429D01*
X13486905Y-10650905D01*
X13553571Y-10698524D02*
X13563095Y-10689000D01*
X13582143Y-10679476D01*
X13629762Y-10679476D01*
X13648809Y-10689000D01*
X13658333Y-10698524D01*
X13667857Y-10717571D01*
X13667857Y-10736619D01*
X13658333Y-10765190D01*
X13544048Y-10879476D01*
X13667857Y-10879476D01*
X13905952Y-10879476D02*
X13905952Y-10679476D01*
X13991667Y-10879476D02*
X13991667Y-10774714D01*
X13982143Y-10755667D01*
X13963095Y-10746143D01*
X13934524Y-10746143D01*
X13915476Y-10755667D01*
X13905952Y-10765190D01*
X14115476Y-10879476D02*
X14096428Y-10869952D01*
X14086905Y-10860429D01*
X14077381Y-10841381D01*
X14077381Y-10784238D01*
X14086905Y-10765190D01*
X14096428Y-10755667D01*
X14115476Y-10746143D01*
X14144048Y-10746143D01*
X14163095Y-10755667D01*
X14172619Y-10765190D01*
X14182143Y-10784238D01*
X14182143Y-10841381D01*
X14172619Y-10860429D01*
X14163095Y-10869952D01*
X14144048Y-10879476D01*
X14115476Y-10879476D01*
X14296428Y-10879476D02*
X14277381Y-10869952D01*
X14267857Y-10850905D01*
X14267857Y-10679476D01*
X14448809Y-10869952D02*
X14429762Y-10879476D01*
X14391667Y-10879476D01*
X14372619Y-10869952D01*
X14363095Y-10850905D01*
X14363095Y-10774714D01*
X14372619Y-10755667D01*
X14391667Y-10746143D01*
X14429762Y-10746143D01*
X14448809Y-10755667D01*
X14458333Y-10774714D01*
X14458333Y-10793762D01*
X14363095Y-10812810D01*
X14534524Y-10869952D02*
X14553571Y-10879476D01*
X14591667Y-10879476D01*
X14610714Y-10869952D01*
X14620238Y-10850905D01*
X14620238Y-10841381D01*
X14610714Y-10822333D01*
X14591667Y-10812810D01*
X14563095Y-10812810D01*
X14544048Y-10803286D01*
X14534524Y-10784238D01*
X14534524Y-10774714D01*
X14544048Y-10755667D01*
X14563095Y-10746143D01*
X14591667Y-10746143D01*
X14610714Y-10755667D01*
X14858333Y-10803286D02*
X15010714Y-10803286D01*
X14934524Y-10879476D02*
X14934524Y-10727095D01*
X15248809Y-10698524D02*
X15258333Y-10689000D01*
X15277381Y-10679476D01*
X15325000Y-10679476D01*
X15344048Y-10689000D01*
X15353571Y-10698524D01*
X15363095Y-10717571D01*
X15363095Y-10736619D01*
X15353571Y-10765190D01*
X15239286Y-10879476D01*
X15363095Y-10879476D01*
X15591667Y-10869952D02*
X15610714Y-10879476D01*
X15648809Y-10879476D01*
X15667857Y-10869952D01*
X15677381Y-10850905D01*
X15677381Y-10841381D01*
X15667857Y-10822333D01*
X15648809Y-10812810D01*
X15620238Y-10812810D01*
X15601190Y-10803286D01*
X15591667Y-10784238D01*
X15591667Y-10774714D01*
X15601190Y-10755667D01*
X15620238Y-10746143D01*
X15648809Y-10746143D01*
X15667857Y-10755667D01*
X15791667Y-10879476D02*
X15772619Y-10869952D01*
X15763095Y-10850905D01*
X15763095Y-10679476D01*
X15896428Y-10879476D02*
X15877381Y-10869952D01*
X15867857Y-10860429D01*
X15858333Y-10841381D01*
X15858333Y-10784238D01*
X15867857Y-10765190D01*
X15877381Y-10755667D01*
X15896428Y-10746143D01*
X15925000Y-10746143D01*
X15944048Y-10755667D01*
X15953571Y-10765190D01*
X15963095Y-10784238D01*
X15963095Y-10841381D01*
X15953571Y-10860429D01*
X15944048Y-10869952D01*
X15925000Y-10879476D01*
X15896428Y-10879476D01*
X16020238Y-10746143D02*
X16096428Y-10746143D01*
X16048809Y-10679476D02*
X16048809Y-10850905D01*
X16058333Y-10869952D01*
X16077381Y-10879476D01*
X16096428Y-10879476D01*
X16153571Y-10869952D02*
X16172619Y-10879476D01*
X16210714Y-10879476D01*
X16229762Y-10869952D01*
X16239286Y-10850905D01*
X16239286Y-10841381D01*
X16229762Y-10822333D01*
X16210714Y-10812810D01*
X16182143Y-10812810D01*
X16163095Y-10803286D01*
X16153571Y-10784238D01*
X16153571Y-10774714D01*
X16163095Y-10755667D01*
X16182143Y-10746143D01*
X16210714Y-10746143D01*
X16229762Y-10755667D01*
X16305952Y-10955667D02*
X16315476Y-10946143D01*
X16334524Y-10917571D01*
X16344048Y-10898524D01*
X16353571Y-10869952D01*
X16363095Y-10822333D01*
X16363095Y-10784238D01*
X16353571Y-10736619D01*
X16344048Y-10708048D01*
X16334524Y-10689000D01*
X16315476Y-10660429D01*
X16305952Y-10650905D01*
D10*
X9865000Y-11003000D02*
X9865000Y-11103000D01*
X9815000Y-11053000D02*
X9915000Y-11053000D01*
D11*
X10277381Y-11143476D02*
X10163095Y-11143476D01*
X10220238Y-11143476D02*
X10220238Y-10943476D01*
X10201190Y-10972048D01*
X10182143Y-10991095D01*
X10163095Y-11000619D01*
X10363095Y-11124429D02*
X10372619Y-11133952D01*
X10363095Y-11143476D01*
X10353571Y-11133952D01*
X10363095Y-11124429D01*
X10363095Y-11143476D01*
X10496429Y-10943476D02*
X10515476Y-10943476D01*
X10534524Y-10953000D01*
X10544048Y-10962524D01*
X10553571Y-10981571D01*
X10563095Y-11019667D01*
X10563095Y-11067286D01*
X10553571Y-11105381D01*
X10544048Y-11124429D01*
X10534524Y-11133952D01*
X10515476Y-11143476D01*
X10496429Y-11143476D01*
X10477381Y-11133952D01*
X10467857Y-11124429D01*
X10458333Y-11105381D01*
X10448810Y-11067286D01*
X10448810Y-11019667D01*
X10458333Y-10981571D01*
X10467857Y-10962524D01*
X10477381Y-10953000D01*
X10496429Y-10943476D01*
X10686905Y-10943476D02*
X10705952Y-10943476D01*
X10725000Y-10953000D01*
X10734524Y-10962524D01*
X10744048Y-10981571D01*
X10753571Y-11019667D01*
X10753571Y-11067286D01*
X10744048Y-11105381D01*
X10734524Y-11124429D01*
X10725000Y-11133952D01*
X10705952Y-11143476D01*
X10686905Y-11143476D01*
X10667857Y-11133952D01*
X10658333Y-11124429D01*
X10648810Y-11105381D01*
X10639286Y-11067286D01*
X10639286Y-11019667D01*
X10648810Y-10981571D01*
X10658333Y-10962524D01*
X10667857Y-10953000D01*
X10686905Y-10943476D01*
X10877381Y-10943476D02*
X10896429Y-10943476D01*
X10915476Y-10953000D01*
X10925000Y-10962524D01*
X10934524Y-10981571D01*
X10944048Y-11019667D01*
X10944048Y-11067286D01*
X10934524Y-11105381D01*
X10925000Y-11124429D01*
X10915476Y-11133952D01*
X10896429Y-11143476D01*
X10877381Y-11143476D01*
X10858333Y-11133952D01*
X10848810Y-11124429D01*
X10839286Y-11105381D01*
X10829762Y-11067286D01*
X10829762Y-11019667D01*
X10839286Y-10981571D01*
X10848810Y-10962524D01*
X10858333Y-10953000D01*
X10877381Y-10943476D01*
X11029762Y-11143476D02*
X11029762Y-11010143D01*
X11029762Y-11029190D02*
X11039286Y-11019667D01*
X11058333Y-11010143D01*
X11086905Y-11010143D01*
X11105952Y-11019667D01*
X11115476Y-11038714D01*
X11115476Y-11143476D01*
X11115476Y-11038714D02*
X11125000Y-11019667D01*
X11144048Y-11010143D01*
X11172619Y-11010143D01*
X11191667Y-11019667D01*
X11201190Y-11038714D01*
X11201190Y-11143476D01*
X11296428Y-11143476D02*
X11296428Y-11010143D01*
X11296428Y-11029190D02*
X11305952Y-11019667D01*
X11325000Y-11010143D01*
X11353571Y-11010143D01*
X11372619Y-11019667D01*
X11382143Y-11038714D01*
X11382143Y-11143476D01*
X11382143Y-11038714D02*
X11391667Y-11019667D01*
X11410714Y-11010143D01*
X11439286Y-11010143D01*
X11458333Y-11019667D01*
X11467857Y-11038714D01*
X11467857Y-11143476D01*
X11858333Y-10933952D02*
X11686905Y-11191095D01*
X12115476Y-10943476D02*
X12134524Y-10943476D01*
X12153571Y-10953000D01*
X12163095Y-10962524D01*
X12172619Y-10981571D01*
X12182143Y-11019667D01*
X12182143Y-11067286D01*
X12172619Y-11105381D01*
X12163095Y-11124429D01*
X12153571Y-11133952D01*
X12134524Y-11143476D01*
X12115476Y-11143476D01*
X12096428Y-11133952D01*
X12086905Y-11124429D01*
X12077381Y-11105381D01*
X12067857Y-11067286D01*
X12067857Y-11019667D01*
X12077381Y-10981571D01*
X12086905Y-10962524D01*
X12096428Y-10953000D01*
X12115476Y-10943476D01*
X12267857Y-11124429D02*
X12277381Y-11133952D01*
X12267857Y-11143476D01*
X12258333Y-11133952D01*
X12267857Y-11124429D01*
X12267857Y-11143476D01*
X12401190Y-10943476D02*
X12420238Y-10943476D01*
X12439286Y-10953000D01*
X12448809Y-10962524D01*
X12458333Y-10981571D01*
X12467857Y-11019667D01*
X12467857Y-11067286D01*
X12458333Y-11105381D01*
X12448809Y-11124429D01*
X12439286Y-11133952D01*
X12420238Y-11143476D01*
X12401190Y-11143476D01*
X12382143Y-11133952D01*
X12372619Y-11124429D01*
X12363095Y-11105381D01*
X12353571Y-11067286D01*
X12353571Y-11019667D01*
X12363095Y-10981571D01*
X12372619Y-10962524D01*
X12382143Y-10953000D01*
X12401190Y-10943476D01*
X12534524Y-10943476D02*
X12658333Y-10943476D01*
X12591667Y-11019667D01*
X12620238Y-11019667D01*
X12639286Y-11029190D01*
X12648809Y-11038714D01*
X12658333Y-11057762D01*
X12658333Y-11105381D01*
X12648809Y-11124429D01*
X12639286Y-11133952D01*
X12620238Y-11143476D01*
X12563095Y-11143476D01*
X12544048Y-11133952D01*
X12534524Y-11124429D01*
X12753571Y-11143476D02*
X12791667Y-11143476D01*
X12810714Y-11133952D01*
X12820238Y-11124429D01*
X12839286Y-11095857D01*
X12848809Y-11057762D01*
X12848809Y-10981571D01*
X12839286Y-10962524D01*
X12829762Y-10953000D01*
X12810714Y-10943476D01*
X12772619Y-10943476D01*
X12753571Y-10953000D01*
X12744048Y-10962524D01*
X12734524Y-10981571D01*
X12734524Y-11029190D01*
X12744048Y-11048238D01*
X12753571Y-11057762D01*
X12772619Y-11067286D01*
X12810714Y-11067286D01*
X12829762Y-11057762D01*
X12839286Y-11048238D01*
X12848809Y-11029190D01*
X13020238Y-11010143D02*
X13020238Y-11143476D01*
X12972619Y-10933952D02*
X12925000Y-11076810D01*
X13048809Y-11076810D01*
X13115476Y-10943476D02*
X13115476Y-10981571D01*
X13191667Y-10943476D02*
X13191667Y-10981571D01*
X13486905Y-11219667D02*
X13477381Y-11210143D01*
X13458333Y-11181571D01*
X13448809Y-11162524D01*
X13439286Y-11133952D01*
X13429762Y-11086333D01*
X13429762Y-11048238D01*
X13439286Y-11000619D01*
X13448809Y-10972048D01*
X13458333Y-10953000D01*
X13477381Y-10924429D01*
X13486905Y-10914905D01*
X13667857Y-11143476D02*
X13553571Y-11143476D01*
X13610714Y-11143476D02*
X13610714Y-10943476D01*
X13591667Y-10972048D01*
X13572619Y-10991095D01*
X13553571Y-11000619D01*
X13744048Y-10962524D02*
X13753571Y-10953000D01*
X13772619Y-10943476D01*
X13820238Y-10943476D01*
X13839286Y-10953000D01*
X13848809Y-10962524D01*
X13858333Y-10981571D01*
X13858333Y-11000619D01*
X13848809Y-11029190D01*
X13734524Y-11143476D01*
X13858333Y-11143476D01*
X14096428Y-11143476D02*
X14096428Y-10943476D01*
X14182143Y-11143476D02*
X14182143Y-11038714D01*
X14172619Y-11019667D01*
X14153571Y-11010143D01*
X14125000Y-11010143D01*
X14105952Y-11019667D01*
X14096428Y-11029190D01*
X14305952Y-11143476D02*
X14286905Y-11133952D01*
X14277381Y-11124429D01*
X14267857Y-11105381D01*
X14267857Y-11048238D01*
X14277381Y-11029190D01*
X14286905Y-11019667D01*
X14305952Y-11010143D01*
X14334524Y-11010143D01*
X14353571Y-11019667D01*
X14363095Y-11029190D01*
X14372619Y-11048238D01*
X14372619Y-11105381D01*
X14363095Y-11124429D01*
X14353571Y-11133952D01*
X14334524Y-11143476D01*
X14305952Y-11143476D01*
X14486905Y-11143476D02*
X14467857Y-11133952D01*
X14458333Y-11114905D01*
X14458333Y-10943476D01*
X14639286Y-11133952D02*
X14620238Y-11143476D01*
X14582143Y-11143476D01*
X14563095Y-11133952D01*
X14553571Y-11114905D01*
X14553571Y-11038714D01*
X14563095Y-11019667D01*
X14582143Y-11010143D01*
X14620238Y-11010143D01*
X14639286Y-11019667D01*
X14648809Y-11038714D01*
X14648809Y-11057762D01*
X14553571Y-11076810D01*
X14725000Y-11133952D02*
X14744048Y-11143476D01*
X14782143Y-11143476D01*
X14801190Y-11133952D01*
X14810714Y-11114905D01*
X14810714Y-11105381D01*
X14801190Y-11086333D01*
X14782143Y-11076810D01*
X14753571Y-11076810D01*
X14734524Y-11067286D01*
X14725000Y-11048238D01*
X14725000Y-11038714D01*
X14734524Y-11019667D01*
X14753571Y-11010143D01*
X14782143Y-11010143D01*
X14801190Y-11019667D01*
X14877381Y-11219667D02*
X14886905Y-11210143D01*
X14905952Y-11181571D01*
X14915476Y-11162524D01*
X14925000Y-11133952D01*
X14934524Y-11086333D01*
X14934524Y-11048238D01*
X14925000Y-11000619D01*
X14915476Y-10972048D01*
X14905952Y-10953000D01*
X14886905Y-10924429D01*
X14877381Y-10914905D01*
M02*
