%TF.GenerationSoftware,KiCad,Pcbnew,(6.0.10)*%
%TF.CreationDate,2023-01-18T01:33:54+01:00*%
%TF.ProjectId,hwpuzzle,68777075-7a7a-46c6-952e-6b696361645f,0.1*%
%TF.SameCoordinates,Original*%
%TF.FileFunction,Drillmap*%
%TF.FilePolarity,Positive*%
%FSLAX45Y45*%
G04 Gerber Fmt 4.5, Leading zero omitted, Abs format (unit mm)*
G04 Created by KiCad (PCBNEW (6.0.10)) date 2023-01-18 01:33:54*
%MOMM*%
%LPD*%
G01*
G04 APERTURE LIST*
%ADD10C,0.100000*%
%ADD11C,0.200000*%
%ADD12C,0.090000*%
G04 APERTURE END LIST*
D10*
X10000000Y-6840000D02*
X16780000Y-6840000D01*
X9920000Y-9800000D02*
X9920000Y-6920000D01*
X16780000Y-9880000D02*
X10000000Y-9880000D01*
X16860000Y-6920000D02*
X16860000Y-9800000D01*
X16860000Y-6920000D02*
G75*
G03*
X16780000Y-6840000I-80000J0D01*
G01*
X16780000Y-9880000D02*
G75*
G03*
X16860000Y-9800000I0J80000D01*
G01*
X9920000Y-9800000D02*
G75*
G03*
X10000000Y-9880000I80000J0D01*
G01*
X10000000Y-6840000D02*
G75*
G03*
X9920000Y-6920000I0J-80000D01*
G01*
D11*
D12*
X10082000Y-7198000D02*
X10172000Y-7288000D01*
X10172000Y-7198000D02*
X10082000Y-7288000D01*
X10082000Y-7698000D02*
X10172000Y-7788000D01*
X10172000Y-7698000D02*
X10082000Y-7788000D01*
D11*
X10172619Y-10195476D02*
X10172619Y-9995476D01*
X10220238Y-9995476D01*
X10248810Y-10005000D01*
X10267857Y-10024048D01*
X10277381Y-10043095D01*
X10286905Y-10081190D01*
X10286905Y-10109762D01*
X10277381Y-10147857D01*
X10267857Y-10166905D01*
X10248810Y-10185952D01*
X10220238Y-10195476D01*
X10172619Y-10195476D01*
X10372619Y-10195476D02*
X10372619Y-10062143D01*
X10372619Y-10100238D02*
X10382143Y-10081190D01*
X10391667Y-10071667D01*
X10410714Y-10062143D01*
X10429762Y-10062143D01*
X10496429Y-10195476D02*
X10496429Y-10062143D01*
X10496429Y-9995476D02*
X10486905Y-10005000D01*
X10496429Y-10014524D01*
X10505952Y-10005000D01*
X10496429Y-9995476D01*
X10496429Y-10014524D01*
X10620238Y-10195476D02*
X10601190Y-10185952D01*
X10591667Y-10166905D01*
X10591667Y-9995476D01*
X10725000Y-10195476D02*
X10705952Y-10185952D01*
X10696429Y-10166905D01*
X10696429Y-9995476D01*
X10953571Y-10195476D02*
X10953571Y-9995476D01*
X11020238Y-10138333D01*
X11086905Y-9995476D01*
X11086905Y-10195476D01*
X11267857Y-10195476D02*
X11267857Y-10090714D01*
X11258333Y-10071667D01*
X11239286Y-10062143D01*
X11201190Y-10062143D01*
X11182143Y-10071667D01*
X11267857Y-10185952D02*
X11248809Y-10195476D01*
X11201190Y-10195476D01*
X11182143Y-10185952D01*
X11172619Y-10166905D01*
X11172619Y-10147857D01*
X11182143Y-10128810D01*
X11201190Y-10119286D01*
X11248809Y-10119286D01*
X11267857Y-10109762D01*
X11363095Y-10062143D02*
X11363095Y-10262143D01*
X11363095Y-10071667D02*
X11382143Y-10062143D01*
X11420238Y-10062143D01*
X11439286Y-10071667D01*
X11448809Y-10081190D01*
X11458333Y-10100238D01*
X11458333Y-10157381D01*
X11448809Y-10176429D01*
X11439286Y-10185952D01*
X11420238Y-10195476D01*
X11382143Y-10195476D01*
X11363095Y-10185952D01*
X11544048Y-10176429D02*
X11553571Y-10185952D01*
X11544048Y-10195476D01*
X11534524Y-10185952D01*
X11544048Y-10176429D01*
X11544048Y-10195476D01*
X11544048Y-10071667D02*
X11553571Y-10081190D01*
X11544048Y-10090714D01*
X11534524Y-10081190D01*
X11544048Y-10071667D01*
X11544048Y-10090714D01*
D12*
X9825000Y-10480000D02*
X9915000Y-10570000D01*
X9915000Y-10480000D02*
X9825000Y-10570000D01*
D11*
X10210714Y-10415476D02*
X10229762Y-10415476D01*
X10248810Y-10425000D01*
X10258333Y-10434524D01*
X10267857Y-10453571D01*
X10277381Y-10491667D01*
X10277381Y-10539286D01*
X10267857Y-10577381D01*
X10258333Y-10596429D01*
X10248810Y-10605952D01*
X10229762Y-10615476D01*
X10210714Y-10615476D01*
X10191667Y-10605952D01*
X10182143Y-10596429D01*
X10172619Y-10577381D01*
X10163095Y-10539286D01*
X10163095Y-10491667D01*
X10172619Y-10453571D01*
X10182143Y-10434524D01*
X10191667Y-10425000D01*
X10210714Y-10415476D01*
X10363095Y-10596429D02*
X10372619Y-10605952D01*
X10363095Y-10615476D01*
X10353571Y-10605952D01*
X10363095Y-10596429D01*
X10363095Y-10615476D01*
X10467857Y-10615476D02*
X10505952Y-10615476D01*
X10525000Y-10605952D01*
X10534524Y-10596429D01*
X10553571Y-10567857D01*
X10563095Y-10529762D01*
X10563095Y-10453571D01*
X10553571Y-10434524D01*
X10544048Y-10425000D01*
X10525000Y-10415476D01*
X10486905Y-10415476D01*
X10467857Y-10425000D01*
X10458333Y-10434524D01*
X10448810Y-10453571D01*
X10448810Y-10501190D01*
X10458333Y-10520238D01*
X10467857Y-10529762D01*
X10486905Y-10539286D01*
X10525000Y-10539286D01*
X10544048Y-10529762D01*
X10553571Y-10520238D01*
X10563095Y-10501190D01*
X10686905Y-10415476D02*
X10705952Y-10415476D01*
X10725000Y-10425000D01*
X10734524Y-10434524D01*
X10744048Y-10453571D01*
X10753571Y-10491667D01*
X10753571Y-10539286D01*
X10744048Y-10577381D01*
X10734524Y-10596429D01*
X10725000Y-10605952D01*
X10705952Y-10615476D01*
X10686905Y-10615476D01*
X10667857Y-10605952D01*
X10658333Y-10596429D01*
X10648810Y-10577381D01*
X10639286Y-10539286D01*
X10639286Y-10491667D01*
X10648810Y-10453571D01*
X10658333Y-10434524D01*
X10667857Y-10425000D01*
X10686905Y-10415476D01*
X10877381Y-10415476D02*
X10896429Y-10415476D01*
X10915476Y-10425000D01*
X10925000Y-10434524D01*
X10934524Y-10453571D01*
X10944048Y-10491667D01*
X10944048Y-10539286D01*
X10934524Y-10577381D01*
X10925000Y-10596429D01*
X10915476Y-10605952D01*
X10896429Y-10615476D01*
X10877381Y-10615476D01*
X10858333Y-10605952D01*
X10848810Y-10596429D01*
X10839286Y-10577381D01*
X10829762Y-10539286D01*
X10829762Y-10491667D01*
X10839286Y-10453571D01*
X10848810Y-10434524D01*
X10858333Y-10425000D01*
X10877381Y-10415476D01*
X11029762Y-10615476D02*
X11029762Y-10482143D01*
X11029762Y-10501190D02*
X11039286Y-10491667D01*
X11058333Y-10482143D01*
X11086905Y-10482143D01*
X11105952Y-10491667D01*
X11115476Y-10510714D01*
X11115476Y-10615476D01*
X11115476Y-10510714D02*
X11125000Y-10491667D01*
X11144048Y-10482143D01*
X11172619Y-10482143D01*
X11191667Y-10491667D01*
X11201190Y-10510714D01*
X11201190Y-10615476D01*
X11296428Y-10615476D02*
X11296428Y-10482143D01*
X11296428Y-10501190D02*
X11305952Y-10491667D01*
X11325000Y-10482143D01*
X11353571Y-10482143D01*
X11372619Y-10491667D01*
X11382143Y-10510714D01*
X11382143Y-10615476D01*
X11382143Y-10510714D02*
X11391667Y-10491667D01*
X11410714Y-10482143D01*
X11439286Y-10482143D01*
X11458333Y-10491667D01*
X11467857Y-10510714D01*
X11467857Y-10615476D01*
X11858333Y-10405952D02*
X11686905Y-10663095D01*
X12115476Y-10415476D02*
X12134524Y-10415476D01*
X12153571Y-10425000D01*
X12163095Y-10434524D01*
X12172619Y-10453571D01*
X12182143Y-10491667D01*
X12182143Y-10539286D01*
X12172619Y-10577381D01*
X12163095Y-10596429D01*
X12153571Y-10605952D01*
X12134524Y-10615476D01*
X12115476Y-10615476D01*
X12096428Y-10605952D01*
X12086905Y-10596429D01*
X12077381Y-10577381D01*
X12067857Y-10539286D01*
X12067857Y-10491667D01*
X12077381Y-10453571D01*
X12086905Y-10434524D01*
X12096428Y-10425000D01*
X12115476Y-10415476D01*
X12267857Y-10596429D02*
X12277381Y-10605952D01*
X12267857Y-10615476D01*
X12258333Y-10605952D01*
X12267857Y-10596429D01*
X12267857Y-10615476D01*
X12401190Y-10415476D02*
X12420238Y-10415476D01*
X12439286Y-10425000D01*
X12448809Y-10434524D01*
X12458333Y-10453571D01*
X12467857Y-10491667D01*
X12467857Y-10539286D01*
X12458333Y-10577381D01*
X12448809Y-10596429D01*
X12439286Y-10605952D01*
X12420238Y-10615476D01*
X12401190Y-10615476D01*
X12382143Y-10605952D01*
X12372619Y-10596429D01*
X12363095Y-10577381D01*
X12353571Y-10539286D01*
X12353571Y-10491667D01*
X12363095Y-10453571D01*
X12372619Y-10434524D01*
X12382143Y-10425000D01*
X12401190Y-10415476D01*
X12534524Y-10415476D02*
X12658333Y-10415476D01*
X12591667Y-10491667D01*
X12620238Y-10491667D01*
X12639286Y-10501190D01*
X12648809Y-10510714D01*
X12658333Y-10529762D01*
X12658333Y-10577381D01*
X12648809Y-10596429D01*
X12639286Y-10605952D01*
X12620238Y-10615476D01*
X12563095Y-10615476D01*
X12544048Y-10605952D01*
X12534524Y-10596429D01*
X12839286Y-10415476D02*
X12744048Y-10415476D01*
X12734524Y-10510714D01*
X12744048Y-10501190D01*
X12763095Y-10491667D01*
X12810714Y-10491667D01*
X12829762Y-10501190D01*
X12839286Y-10510714D01*
X12848809Y-10529762D01*
X12848809Y-10577381D01*
X12839286Y-10596429D01*
X12829762Y-10605952D01*
X12810714Y-10615476D01*
X12763095Y-10615476D01*
X12744048Y-10605952D01*
X12734524Y-10596429D01*
X13020238Y-10482143D02*
X13020238Y-10615476D01*
X12972619Y-10405952D02*
X12925000Y-10548810D01*
X13048809Y-10548810D01*
X13115476Y-10415476D02*
X13115476Y-10453571D01*
X13191667Y-10415476D02*
X13191667Y-10453571D01*
X13486905Y-10691667D02*
X13477381Y-10682143D01*
X13458333Y-10653571D01*
X13448809Y-10634524D01*
X13439286Y-10605952D01*
X13429762Y-10558333D01*
X13429762Y-10520238D01*
X13439286Y-10472619D01*
X13448809Y-10444048D01*
X13458333Y-10425000D01*
X13477381Y-10396429D01*
X13486905Y-10386905D01*
X13553571Y-10434524D02*
X13563095Y-10425000D01*
X13582143Y-10415476D01*
X13629762Y-10415476D01*
X13648809Y-10425000D01*
X13658333Y-10434524D01*
X13667857Y-10453571D01*
X13667857Y-10472619D01*
X13658333Y-10501190D01*
X13544048Y-10615476D01*
X13667857Y-10615476D01*
X13905952Y-10615476D02*
X13905952Y-10415476D01*
X13991667Y-10615476D02*
X13991667Y-10510714D01*
X13982143Y-10491667D01*
X13963095Y-10482143D01*
X13934524Y-10482143D01*
X13915476Y-10491667D01*
X13905952Y-10501190D01*
X14115476Y-10615476D02*
X14096428Y-10605952D01*
X14086905Y-10596429D01*
X14077381Y-10577381D01*
X14077381Y-10520238D01*
X14086905Y-10501190D01*
X14096428Y-10491667D01*
X14115476Y-10482143D01*
X14144048Y-10482143D01*
X14163095Y-10491667D01*
X14172619Y-10501190D01*
X14182143Y-10520238D01*
X14182143Y-10577381D01*
X14172619Y-10596429D01*
X14163095Y-10605952D01*
X14144048Y-10615476D01*
X14115476Y-10615476D01*
X14296428Y-10615476D02*
X14277381Y-10605952D01*
X14267857Y-10586905D01*
X14267857Y-10415476D01*
X14448809Y-10605952D02*
X14429762Y-10615476D01*
X14391667Y-10615476D01*
X14372619Y-10605952D01*
X14363095Y-10586905D01*
X14363095Y-10510714D01*
X14372619Y-10491667D01*
X14391667Y-10482143D01*
X14429762Y-10482143D01*
X14448809Y-10491667D01*
X14458333Y-10510714D01*
X14458333Y-10529762D01*
X14363095Y-10548810D01*
X14534524Y-10605952D02*
X14553571Y-10615476D01*
X14591667Y-10615476D01*
X14610714Y-10605952D01*
X14620238Y-10586905D01*
X14620238Y-10577381D01*
X14610714Y-10558333D01*
X14591667Y-10548810D01*
X14563095Y-10548810D01*
X14544048Y-10539286D01*
X14534524Y-10520238D01*
X14534524Y-10510714D01*
X14544048Y-10491667D01*
X14563095Y-10482143D01*
X14591667Y-10482143D01*
X14610714Y-10491667D01*
X14686905Y-10691667D02*
X14696428Y-10682143D01*
X14715476Y-10653571D01*
X14725000Y-10634524D01*
X14734524Y-10605952D01*
X14744048Y-10558333D01*
X14744048Y-10520238D01*
X14734524Y-10472619D01*
X14725000Y-10444048D01*
X14715476Y-10425000D01*
X14696428Y-10396429D01*
X14686905Y-10386905D01*
X15048809Y-10691667D02*
X15039286Y-10682143D01*
X15020238Y-10653571D01*
X15010714Y-10634524D01*
X15001190Y-10605952D01*
X14991667Y-10558333D01*
X14991667Y-10520238D01*
X15001190Y-10472619D01*
X15010714Y-10444048D01*
X15020238Y-10425000D01*
X15039286Y-10396429D01*
X15048809Y-10386905D01*
X15125000Y-10482143D02*
X15125000Y-10615476D01*
X15125000Y-10501190D02*
X15134524Y-10491667D01*
X15153571Y-10482143D01*
X15182143Y-10482143D01*
X15201190Y-10491667D01*
X15210714Y-10510714D01*
X15210714Y-10615476D01*
X15334524Y-10615476D02*
X15315476Y-10605952D01*
X15305952Y-10596429D01*
X15296428Y-10577381D01*
X15296428Y-10520238D01*
X15305952Y-10501190D01*
X15315476Y-10491667D01*
X15334524Y-10482143D01*
X15363095Y-10482143D01*
X15382143Y-10491667D01*
X15391667Y-10501190D01*
X15401190Y-10520238D01*
X15401190Y-10577381D01*
X15391667Y-10596429D01*
X15382143Y-10605952D01*
X15363095Y-10615476D01*
X15334524Y-10615476D01*
X15458333Y-10482143D02*
X15534524Y-10482143D01*
X15486905Y-10415476D02*
X15486905Y-10586905D01*
X15496428Y-10605952D01*
X15515476Y-10615476D01*
X15534524Y-10615476D01*
X15753571Y-10482143D02*
X15753571Y-10682143D01*
X15753571Y-10491667D02*
X15772619Y-10482143D01*
X15810714Y-10482143D01*
X15829762Y-10491667D01*
X15839286Y-10501190D01*
X15848809Y-10520238D01*
X15848809Y-10577381D01*
X15839286Y-10596429D01*
X15829762Y-10605952D01*
X15810714Y-10615476D01*
X15772619Y-10615476D01*
X15753571Y-10605952D01*
X15963095Y-10615476D02*
X15944048Y-10605952D01*
X15934524Y-10586905D01*
X15934524Y-10415476D01*
X16125000Y-10615476D02*
X16125000Y-10510714D01*
X16115476Y-10491667D01*
X16096428Y-10482143D01*
X16058333Y-10482143D01*
X16039286Y-10491667D01*
X16125000Y-10605952D02*
X16105952Y-10615476D01*
X16058333Y-10615476D01*
X16039286Y-10605952D01*
X16029762Y-10586905D01*
X16029762Y-10567857D01*
X16039286Y-10548810D01*
X16058333Y-10539286D01*
X16105952Y-10539286D01*
X16125000Y-10529762D01*
X16191667Y-10482143D02*
X16267857Y-10482143D01*
X16220238Y-10415476D02*
X16220238Y-10586905D01*
X16229762Y-10605952D01*
X16248809Y-10615476D01*
X16267857Y-10615476D01*
X16410714Y-10605952D02*
X16391667Y-10615476D01*
X16353571Y-10615476D01*
X16334524Y-10605952D01*
X16325000Y-10586905D01*
X16325000Y-10510714D01*
X16334524Y-10491667D01*
X16353571Y-10482143D01*
X16391667Y-10482143D01*
X16410714Y-10491667D01*
X16420238Y-10510714D01*
X16420238Y-10529762D01*
X16325000Y-10548810D01*
X16591667Y-10615476D02*
X16591667Y-10415476D01*
X16591667Y-10605952D02*
X16572619Y-10615476D01*
X16534524Y-10615476D01*
X16515476Y-10605952D01*
X16505952Y-10596429D01*
X16496428Y-10577381D01*
X16496428Y-10520238D01*
X16505952Y-10501190D01*
X16515476Y-10491667D01*
X16534524Y-10482143D01*
X16572619Y-10482143D01*
X16591667Y-10491667D01*
X16667857Y-10691667D02*
X16677381Y-10682143D01*
X16696428Y-10653571D01*
X16705952Y-10634524D01*
X16715476Y-10605952D01*
X16725000Y-10558333D01*
X16725000Y-10520238D01*
X16715476Y-10472619D01*
X16705952Y-10444048D01*
X16696428Y-10425000D01*
X16677381Y-10396429D01*
X16667857Y-10386905D01*
M02*
