G04 #@! TF.GenerationSoftware,KiCad,Pcbnew,(6.0.10)*
G04 #@! TF.CreationDate,2023-01-18T01:33:26+01:00*
G04 #@! TF.ProjectId,hwpuzzle,68777075-7a7a-46c6-952e-6b696361645f,0.1*
G04 #@! TF.SameCoordinates,Original*
G04 #@! TF.FileFunction,Paste,Top*
G04 #@! TF.FilePolarity,Positive*
%FSLAX46Y46*%
G04 Gerber Fmt 4.6, Leading zero omitted, Abs format (unit mm)*
G04 Created by KiCad (PCBNEW (6.0.10)) date 2023-01-18 01:33:26*
%MOMM*%
%LPD*%
G01*
G04 APERTURE LIST*
G04 Aperture macros list*
%AMRoundRect*
0 Rectangle with rounded corners*
0 $1 Rounding radius*
0 $2 $3 $4 $5 $6 $7 $8 $9 X,Y pos of 4 corners*
0 Add a 4 corners polygon primitive as box body*
4,1,4,$2,$3,$4,$5,$6,$7,$8,$9,$2,$3,0*
0 Add four circle primitives for the rounded corners*
1,1,$1+$1,$2,$3*
1,1,$1+$1,$4,$5*
1,1,$1+$1,$6,$7*
1,1,$1+$1,$8,$9*
0 Add four rect primitives between the rounded corners*
20,1,$1+$1,$2,$3,$4,$5,0*
20,1,$1+$1,$4,$5,$6,$7,0*
20,1,$1+$1,$6,$7,$8,$9,0*
20,1,$1+$1,$8,$9,$2,$3,0*%
%AMFreePoly0*
4,1,14,0.334644,0.085355,0.385355,0.034644,0.400000,-0.000711,0.400000,-0.050000,0.385355,-0.085355,0.350000,-0.100000,-0.350000,-0.100000,-0.385355,-0.085355,-0.400000,-0.050000,-0.400000,0.050000,-0.385355,0.085355,-0.350000,0.100000,0.299289,0.100000,0.334644,0.085355,0.334644,0.085355,$1*%
%AMFreePoly1*
4,1,14,0.385355,0.085355,0.400000,0.050000,0.400000,0.000711,0.385355,-0.034644,0.334644,-0.085355,0.299289,-0.100000,-0.350000,-0.100000,-0.385355,-0.085355,-0.400000,-0.050000,-0.400000,0.050000,-0.385355,0.085355,-0.350000,0.100000,0.350000,0.100000,0.385355,0.085355,0.385355,0.085355,$1*%
%AMFreePoly2*
4,1,14,0.085355,0.385355,0.100000,0.350000,0.100000,-0.350000,0.085355,-0.385355,0.050000,-0.400000,-0.050000,-0.400000,-0.085355,-0.385355,-0.100000,-0.350000,-0.100000,0.299289,-0.085355,0.334644,-0.034644,0.385355,0.000711,0.400000,0.050000,0.400000,0.085355,0.385355,0.085355,0.385355,$1*%
%AMFreePoly3*
4,1,14,0.034644,0.385355,0.085355,0.334644,0.100000,0.299289,0.100000,-0.350000,0.085355,-0.385355,0.050000,-0.400000,-0.050000,-0.400000,-0.085355,-0.385355,-0.100000,-0.350000,-0.100000,0.350000,-0.085355,0.385355,-0.050000,0.400000,-0.000711,0.400000,0.034644,0.385355,0.034644,0.385355,$1*%
%AMFreePoly4*
4,1,14,0.385355,0.085355,0.400000,0.050000,0.400000,-0.050000,0.385355,-0.085355,0.350000,-0.100000,-0.299289,-0.100000,-0.334644,-0.085355,-0.385355,-0.034644,-0.400000,0.000711,-0.400000,0.050000,-0.385355,0.085355,-0.350000,0.100000,0.350000,0.100000,0.385355,0.085355,0.385355,0.085355,$1*%
%AMFreePoly5*
4,1,14,0.385355,0.085355,0.400000,0.050000,0.400000,-0.050000,0.385355,-0.085355,0.350000,-0.100000,-0.350000,-0.100000,-0.385355,-0.085355,-0.400000,-0.050000,-0.400000,-0.000711,-0.385355,0.034644,-0.334644,0.085355,-0.299289,0.100000,0.350000,0.100000,0.385355,0.085355,0.385355,0.085355,$1*%
%AMFreePoly6*
4,1,14,0.085355,0.385355,0.100000,0.350000,0.100000,-0.299289,0.085355,-0.334644,0.034644,-0.385355,-0.000711,-0.400000,-0.050000,-0.400000,-0.085355,-0.385355,-0.100000,-0.350000,-0.100000,0.350000,-0.085355,0.385355,-0.050000,0.400000,0.050000,0.400000,0.085355,0.385355,0.085355,0.385355,$1*%
%AMFreePoly7*
4,1,14,0.085355,0.385355,0.100000,0.350000,0.100000,-0.350000,0.085355,-0.385355,0.050000,-0.400000,0.000711,-0.400000,-0.034644,-0.385355,-0.085355,-0.334644,-0.100000,-0.299289,-0.100000,0.350000,-0.085355,0.385355,-0.050000,0.400000,0.050000,0.400000,0.085355,0.385355,0.085355,0.385355,$1*%
G04 Aperture macros list end*
%ADD10R,1.700000X1.000000*%
%ADD11RoundRect,0.218750X0.218750X0.256250X-0.218750X0.256250X-0.218750X-0.256250X0.218750X-0.256250X0*%
%ADD12RoundRect,0.135000X-0.135000X-0.185000X0.135000X-0.185000X0.135000X0.185000X-0.135000X0.185000X0*%
%ADD13RoundRect,0.140000X0.170000X-0.140000X0.170000X0.140000X-0.170000X0.140000X-0.170000X-0.140000X0*%
%ADD14RoundRect,0.218750X-0.218750X-0.256250X0.218750X-0.256250X0.218750X0.256250X-0.218750X0.256250X0*%
%ADD15RoundRect,0.135000X0.185000X-0.135000X0.185000X0.135000X-0.185000X0.135000X-0.185000X-0.135000X0*%
%ADD16RoundRect,0.135000X0.135000X0.185000X-0.135000X0.185000X-0.135000X-0.185000X0.135000X-0.185000X0*%
%ADD17R,0.400000X1.600000*%
%ADD18R,1.500000X1.000000*%
%ADD19RoundRect,0.150000X-0.587500X-0.150000X0.587500X-0.150000X0.587500X0.150000X-0.587500X0.150000X0*%
%ADD20RoundRect,0.100000X0.100000X-0.637500X0.100000X0.637500X-0.100000X0.637500X-0.100000X-0.637500X0*%
%ADD21RoundRect,0.140000X-0.170000X0.140000X-0.170000X-0.140000X0.170000X-0.140000X0.170000X0.140000X0*%
%ADD22RoundRect,0.172500X-0.172500X-0.172500X0.172500X-0.172500X0.172500X0.172500X-0.172500X0.172500X0*%
%ADD23FreePoly0,0.000000*%
%ADD24RoundRect,0.050000X-0.350000X-0.050000X0.350000X-0.050000X0.350000X0.050000X-0.350000X0.050000X0*%
%ADD25FreePoly1,0.000000*%
%ADD26FreePoly2,0.000000*%
%ADD27RoundRect,0.050000X-0.050000X-0.350000X0.050000X-0.350000X0.050000X0.350000X-0.050000X0.350000X0*%
%ADD28FreePoly3,0.000000*%
%ADD29FreePoly4,0.000000*%
%ADD30FreePoly5,0.000000*%
%ADD31FreePoly6,0.000000*%
%ADD32FreePoly7,0.000000*%
%ADD33RoundRect,0.150000X-0.675000X-0.150000X0.675000X-0.150000X0.675000X0.150000X-0.675000X0.150000X0*%
%ADD34RoundRect,0.140000X-0.140000X-0.170000X0.140000X-0.170000X0.140000X0.170000X-0.140000X0.170000X0*%
%ADD35R,0.800000X1.000000*%
%ADD36R,1.500000X0.700000*%
G04 APERTURE END LIST*
D10*
X126975000Y-92588000D03*
X120675000Y-92588000D03*
X120675000Y-96388000D03*
X126975000Y-96388000D03*
D11*
X105640218Y-95250000D03*
X104065218Y-95250000D03*
D12*
X117854000Y-88392000D03*
X118874000Y-88392000D03*
D10*
X141173000Y-86995000D03*
X141173000Y-83195000D03*
X147473000Y-83195000D03*
X147473000Y-86995000D03*
D13*
X119465000Y-83030000D03*
X119465000Y-82070000D03*
D14*
X162382500Y-80650000D03*
X163957500Y-80650000D03*
D15*
X148336000Y-95130000D03*
X148336000Y-94110000D03*
D16*
X110746000Y-87248000D03*
X109726000Y-87248000D03*
D12*
X106805000Y-81915000D03*
X107825000Y-81915000D03*
D13*
X130556000Y-81633000D03*
X130556000Y-80673000D03*
D14*
X143535500Y-80650000D03*
X145110500Y-80650000D03*
D16*
X110746000Y-84584000D03*
X109726000Y-84584000D03*
D14*
X152857500Y-90175000D03*
X154432500Y-90175000D03*
D16*
X102187718Y-90805000D03*
X101167718Y-90805000D03*
D11*
X105640218Y-86360000D03*
X104065218Y-86360000D03*
D17*
X116235000Y-73701000D03*
X115585000Y-73701000D03*
X114935000Y-73701000D03*
X114285000Y-73701000D03*
X113635000Y-73701000D03*
D18*
X116435000Y-69201000D03*
X113435000Y-69201000D03*
D13*
X130556000Y-91638000D03*
X130556000Y-90678000D03*
D10*
X109880000Y-92588000D03*
X116180000Y-92588000D03*
X116180000Y-96388000D03*
X109880000Y-96388000D03*
D16*
X118874000Y-85852000D03*
X117854000Y-85852000D03*
D15*
X165608000Y-72136000D03*
X165608000Y-71116000D03*
X164084000Y-72138000D03*
X164084000Y-71118000D03*
D19*
X113616500Y-86172000D03*
X113616500Y-88072000D03*
X115491500Y-87122000D03*
D20*
X122185000Y-83507500D03*
X122835000Y-83507500D03*
X123485000Y-83507500D03*
X124135000Y-83507500D03*
X124785000Y-83507500D03*
X125435000Y-83507500D03*
X126085000Y-83507500D03*
X126735000Y-83507500D03*
X126735000Y-77782500D03*
X126085000Y-77782500D03*
X125435000Y-77782500D03*
X124785000Y-77782500D03*
X124135000Y-77782500D03*
X123485000Y-77782500D03*
X122835000Y-77782500D03*
X122185000Y-77782500D03*
D10*
X156795000Y-73670000D03*
X150495000Y-73670000D03*
X156795000Y-77470000D03*
X150495000Y-77470000D03*
X160020000Y-86995000D03*
X160020000Y-83195000D03*
X166320000Y-83195000D03*
X166320000Y-86995000D03*
D11*
X105640218Y-90805000D03*
X104065218Y-90805000D03*
D21*
X119465000Y-79220000D03*
X119465000Y-78260000D03*
D12*
X143813000Y-88905000D03*
X144833000Y-88905000D03*
D15*
X161036000Y-72136000D03*
X161036000Y-71116000D03*
D22*
X134283000Y-90595000D03*
X133433000Y-90595000D03*
X133433000Y-89745000D03*
X134283000Y-89745000D03*
D23*
X132408000Y-89370000D03*
D24*
X132408000Y-89770000D03*
X132408000Y-90170000D03*
X132408000Y-90570000D03*
D25*
X132408000Y-90970000D03*
D26*
X133058000Y-91620000D03*
D27*
X133458000Y-91620000D03*
X133858000Y-91620000D03*
X134258000Y-91620000D03*
D28*
X134658000Y-91620000D03*
D29*
X135308000Y-90970000D03*
D24*
X135308000Y-90570000D03*
X135308000Y-90170000D03*
X135308000Y-89770000D03*
D30*
X135308000Y-89370000D03*
D31*
X134658000Y-88720000D03*
D27*
X134258000Y-88720000D03*
X133858000Y-88720000D03*
X133458000Y-88720000D03*
D32*
X133058000Y-88720000D03*
D10*
X156795000Y-92720000D03*
X150495000Y-92720000D03*
X150495000Y-96520000D03*
X156795000Y-96520000D03*
D16*
X102187718Y-86360000D03*
X101167718Y-86360000D03*
D13*
X120650000Y-73505000D03*
X120650000Y-72545000D03*
D15*
X162560000Y-72136000D03*
X162560000Y-71116000D03*
D33*
X111760000Y-78740000D03*
X111760000Y-80010000D03*
X111760000Y-81280000D03*
X111760000Y-82550000D03*
X117010000Y-82550000D03*
X117010000Y-81280000D03*
X117010000Y-80010000D03*
X117010000Y-78740000D03*
D16*
X102187718Y-95250000D03*
X101167718Y-95250000D03*
D34*
X122075000Y-75565000D03*
X123035000Y-75565000D03*
D14*
X152857500Y-71125000D03*
X154432500Y-71125000D03*
D35*
X102380000Y-69780000D03*
X100170000Y-69780000D03*
X100170000Y-80080000D03*
X102380000Y-80080000D03*
D36*
X103030000Y-71930000D03*
X103030000Y-73430000D03*
X103030000Y-76430000D03*
X103030000Y-77930000D03*
D12*
X153135000Y-79380000D03*
X154155000Y-79380000D03*
D22*
X134283000Y-79839000D03*
X133433000Y-79839000D03*
X134283000Y-80689000D03*
X133433000Y-80689000D03*
D23*
X132408000Y-79464000D03*
D24*
X132408000Y-79864000D03*
X132408000Y-80264000D03*
X132408000Y-80664000D03*
D25*
X132408000Y-81064000D03*
D26*
X133058000Y-81714000D03*
D27*
X133458000Y-81714000D03*
X133858000Y-81714000D03*
X134258000Y-81714000D03*
D28*
X134658000Y-81714000D03*
D29*
X135308000Y-81064000D03*
D24*
X135308000Y-80664000D03*
X135308000Y-80264000D03*
X135308000Y-79864000D03*
D30*
X135308000Y-79464000D03*
D31*
X134658000Y-78814000D03*
D27*
X134258000Y-78814000D03*
X133858000Y-78814000D03*
X133458000Y-78814000D03*
D32*
X133058000Y-78814000D03*
D12*
X162660000Y-88905000D03*
X163680000Y-88905000D03*
M02*
