G04 #@! TF.GenerationSoftware,KiCad,Pcbnew,(6.0.10)*
G04 #@! TF.CreationDate,2023-01-18T01:33:26+01:00*
G04 #@! TF.ProjectId,hwpuzzle,68777075-7a7a-46c6-952e-6b696361645f,0.1*
G04 #@! TF.SameCoordinates,Original*
G04 #@! TF.FileFunction,Copper,L1,Top*
G04 #@! TF.FilePolarity,Positive*
%FSLAX46Y46*%
G04 Gerber Fmt 4.6, Leading zero omitted, Abs format (unit mm)*
G04 Created by KiCad (PCBNEW (6.0.10)) date 2023-01-18 01:33:26*
%MOMM*%
%LPD*%
G01*
G04 APERTURE LIST*
G04 Aperture macros list*
%AMRoundRect*
0 Rectangle with rounded corners*
0 $1 Rounding radius*
0 $2 $3 $4 $5 $6 $7 $8 $9 X,Y pos of 4 corners*
0 Add a 4 corners polygon primitive as box body*
4,1,4,$2,$3,$4,$5,$6,$7,$8,$9,$2,$3,0*
0 Add four circle primitives for the rounded corners*
1,1,$1+$1,$2,$3*
1,1,$1+$1,$4,$5*
1,1,$1+$1,$6,$7*
1,1,$1+$1,$8,$9*
0 Add four rect primitives between the rounded corners*
20,1,$1+$1,$2,$3,$4,$5,0*
20,1,$1+$1,$4,$5,$6,$7,0*
20,1,$1+$1,$6,$7,$8,$9,0*
20,1,$1+$1,$8,$9,$2,$3,0*%
%AMFreePoly0*
4,1,14,0.334644,0.085355,0.385355,0.034644,0.400000,-0.000711,0.400000,-0.050000,0.385355,-0.085355,0.350000,-0.100000,-0.350000,-0.100000,-0.385355,-0.085355,-0.400000,-0.050000,-0.400000,0.050000,-0.385355,0.085355,-0.350000,0.100000,0.299289,0.100000,0.334644,0.085355,0.334644,0.085355,$1*%
%AMFreePoly1*
4,1,14,0.385355,0.085355,0.400000,0.050000,0.400000,0.000711,0.385355,-0.034644,0.334644,-0.085355,0.299289,-0.100000,-0.350000,-0.100000,-0.385355,-0.085355,-0.400000,-0.050000,-0.400000,0.050000,-0.385355,0.085355,-0.350000,0.100000,0.350000,0.100000,0.385355,0.085355,0.385355,0.085355,$1*%
%AMFreePoly2*
4,1,14,0.085355,0.385355,0.100000,0.350000,0.100000,-0.350000,0.085355,-0.385355,0.050000,-0.400000,-0.050000,-0.400000,-0.085355,-0.385355,-0.100000,-0.350000,-0.100000,0.299289,-0.085355,0.334644,-0.034644,0.385355,0.000711,0.400000,0.050000,0.400000,0.085355,0.385355,0.085355,0.385355,$1*%
%AMFreePoly3*
4,1,14,0.034644,0.385355,0.085355,0.334644,0.100000,0.299289,0.100000,-0.350000,0.085355,-0.385355,0.050000,-0.400000,-0.050000,-0.400000,-0.085355,-0.385355,-0.100000,-0.350000,-0.100000,0.350000,-0.085355,0.385355,-0.050000,0.400000,-0.000711,0.400000,0.034644,0.385355,0.034644,0.385355,$1*%
%AMFreePoly4*
4,1,14,0.385355,0.085355,0.400000,0.050000,0.400000,-0.050000,0.385355,-0.085355,0.350000,-0.100000,-0.299289,-0.100000,-0.334644,-0.085355,-0.385355,-0.034644,-0.400000,0.000711,-0.400000,0.050000,-0.385355,0.085355,-0.350000,0.100000,0.350000,0.100000,0.385355,0.085355,0.385355,0.085355,$1*%
%AMFreePoly5*
4,1,14,0.385355,0.085355,0.400000,0.050000,0.400000,-0.050000,0.385355,-0.085355,0.350000,-0.100000,-0.350000,-0.100000,-0.385355,-0.085355,-0.400000,-0.050000,-0.400000,-0.000711,-0.385355,0.034644,-0.334644,0.085355,-0.299289,0.100000,0.350000,0.100000,0.385355,0.085355,0.385355,0.085355,$1*%
%AMFreePoly6*
4,1,14,0.085355,0.385355,0.100000,0.350000,0.100000,-0.299289,0.085355,-0.334644,0.034644,-0.385355,-0.000711,-0.400000,-0.050000,-0.400000,-0.085355,-0.385355,-0.100000,-0.350000,-0.100000,0.350000,-0.085355,0.385355,-0.050000,0.400000,0.050000,0.400000,0.085355,0.385355,0.085355,0.385355,$1*%
%AMFreePoly7*
4,1,14,0.085355,0.385355,0.100000,0.350000,0.100000,-0.350000,0.085355,-0.385355,0.050000,-0.400000,0.000711,-0.400000,-0.034644,-0.385355,-0.085355,-0.334644,-0.100000,-0.299289,-0.100000,0.350000,-0.085355,0.385355,-0.050000,0.400000,0.050000,0.400000,0.085355,0.385355,0.085355,0.385355,$1*%
G04 Aperture macros list end*
G04 #@! TA.AperFunction,SMDPad,CuDef*
%ADD10R,1.700000X1.000000*%
G04 #@! TD*
G04 #@! TA.AperFunction,SMDPad,CuDef*
%ADD11RoundRect,0.218750X0.218750X0.256250X-0.218750X0.256250X-0.218750X-0.256250X0.218750X-0.256250X0*%
G04 #@! TD*
G04 #@! TA.AperFunction,SMDPad,CuDef*
%ADD12RoundRect,0.135000X-0.135000X-0.185000X0.135000X-0.185000X0.135000X0.185000X-0.135000X0.185000X0*%
G04 #@! TD*
G04 #@! TA.AperFunction,SMDPad,CuDef*
%ADD13RoundRect,0.140000X0.170000X-0.140000X0.170000X0.140000X-0.170000X0.140000X-0.170000X-0.140000X0*%
G04 #@! TD*
G04 #@! TA.AperFunction,SMDPad,CuDef*
%ADD14RoundRect,0.218750X-0.218750X-0.256250X0.218750X-0.256250X0.218750X0.256250X-0.218750X0.256250X0*%
G04 #@! TD*
G04 #@! TA.AperFunction,SMDPad,CuDef*
%ADD15RoundRect,0.135000X0.185000X-0.135000X0.185000X0.135000X-0.185000X0.135000X-0.185000X-0.135000X0*%
G04 #@! TD*
G04 #@! TA.AperFunction,SMDPad,CuDef*
%ADD16RoundRect,0.135000X0.135000X0.185000X-0.135000X0.185000X-0.135000X-0.185000X0.135000X-0.185000X0*%
G04 #@! TD*
G04 #@! TA.AperFunction,SMDPad,CuDef*
%ADD17C,1.000000*%
G04 #@! TD*
G04 #@! TA.AperFunction,SMDPad,CuDef*
%ADD18R,0.400000X1.600000*%
G04 #@! TD*
G04 #@! TA.AperFunction,ComponentPad*
%ADD19C,1.300000*%
G04 #@! TD*
G04 #@! TA.AperFunction,SMDPad,CuDef*
%ADD20R,1.500000X1.000000*%
G04 #@! TD*
G04 #@! TA.AperFunction,ComponentPad*
%ADD21O,1.300000X1.700000*%
G04 #@! TD*
G04 #@! TA.AperFunction,SMDPad,CuDef*
%ADD22RoundRect,0.150000X-0.587500X-0.150000X0.587500X-0.150000X0.587500X0.150000X-0.587500X0.150000X0*%
G04 #@! TD*
G04 #@! TA.AperFunction,SMDPad,CuDef*
%ADD23RoundRect,0.100000X0.100000X-0.637500X0.100000X0.637500X-0.100000X0.637500X-0.100000X-0.637500X0*%
G04 #@! TD*
G04 #@! TA.AperFunction,SMDPad,CuDef*
%ADD24RoundRect,0.140000X-0.170000X0.140000X-0.170000X-0.140000X0.170000X-0.140000X0.170000X0.140000X0*%
G04 #@! TD*
G04 #@! TA.AperFunction,ComponentPad*
%ADD25R,1.700000X1.700000*%
G04 #@! TD*
G04 #@! TA.AperFunction,ComponentPad*
%ADD26O,1.700000X1.700000*%
G04 #@! TD*
G04 #@! TA.AperFunction,SMDPad,CuDef*
%ADD27FreePoly0,0.000000*%
G04 #@! TD*
G04 #@! TA.AperFunction,SMDPad,CuDef*
%ADD28RoundRect,0.050000X-0.350000X-0.050000X0.350000X-0.050000X0.350000X0.050000X-0.350000X0.050000X0*%
G04 #@! TD*
G04 #@! TA.AperFunction,SMDPad,CuDef*
%ADD29FreePoly1,0.000000*%
G04 #@! TD*
G04 #@! TA.AperFunction,SMDPad,CuDef*
%ADD30FreePoly2,0.000000*%
G04 #@! TD*
G04 #@! TA.AperFunction,SMDPad,CuDef*
%ADD31RoundRect,0.050000X-0.050000X-0.350000X0.050000X-0.350000X0.050000X0.350000X-0.050000X0.350000X0*%
G04 #@! TD*
G04 #@! TA.AperFunction,SMDPad,CuDef*
%ADD32FreePoly3,0.000000*%
G04 #@! TD*
G04 #@! TA.AperFunction,SMDPad,CuDef*
%ADD33FreePoly4,0.000000*%
G04 #@! TD*
G04 #@! TA.AperFunction,SMDPad,CuDef*
%ADD34FreePoly5,0.000000*%
G04 #@! TD*
G04 #@! TA.AperFunction,SMDPad,CuDef*
%ADD35FreePoly6,0.000000*%
G04 #@! TD*
G04 #@! TA.AperFunction,SMDPad,CuDef*
%ADD36FreePoly7,0.000000*%
G04 #@! TD*
G04 #@! TA.AperFunction,SMDPad,CuDef*
%ADD37R,1.700000X1.700000*%
G04 #@! TD*
G04 #@! TA.AperFunction,SMDPad,CuDef*
%ADD38RoundRect,0.150000X-0.675000X-0.150000X0.675000X-0.150000X0.675000X0.150000X-0.675000X0.150000X0*%
G04 #@! TD*
G04 #@! TA.AperFunction,SMDPad,CuDef*
%ADD39RoundRect,0.140000X-0.140000X-0.170000X0.140000X-0.170000X0.140000X0.170000X-0.140000X0.170000X0*%
G04 #@! TD*
G04 #@! TA.AperFunction,SMDPad,CuDef*
%ADD40R,0.800000X1.000000*%
G04 #@! TD*
G04 #@! TA.AperFunction,SMDPad,CuDef*
%ADD41R,1.500000X0.700000*%
G04 #@! TD*
G04 #@! TA.AperFunction,ViaPad*
%ADD42C,0.800000*%
G04 #@! TD*
G04 #@! TA.AperFunction,Conductor*
%ADD43C,0.200000*%
G04 #@! TD*
G04 #@! TA.AperFunction,Conductor*
%ADD44C,0.250000*%
G04 #@! TD*
G04 APERTURE END LIST*
D10*
X126975000Y-92588000D03*
X120675000Y-92588000D03*
X120675000Y-96388000D03*
X126975000Y-96388000D03*
D11*
X105640218Y-95250000D03*
X104065218Y-95250000D03*
D12*
X117854000Y-88392000D03*
X118874000Y-88392000D03*
D10*
X141173000Y-86995000D03*
X141173000Y-83195000D03*
X147473000Y-83195000D03*
X147473000Y-86995000D03*
D13*
X119465000Y-83030000D03*
X119465000Y-82070000D03*
D14*
X162382500Y-80650000D03*
X163957500Y-80650000D03*
D15*
X148336000Y-95130000D03*
X148336000Y-94110000D03*
D16*
X110746000Y-87248000D03*
X109726000Y-87248000D03*
D17*
X134620000Y-95504000D03*
D12*
X106805000Y-81915000D03*
X107825000Y-81915000D03*
D13*
X130556000Y-81633000D03*
X130556000Y-80673000D03*
D14*
X143535500Y-80650000D03*
X145110500Y-80650000D03*
D16*
X110746000Y-84584000D03*
X109726000Y-84584000D03*
D14*
X152857500Y-90175000D03*
X154432500Y-90175000D03*
D16*
X102187718Y-90805000D03*
X101167718Y-90805000D03*
D11*
X105640218Y-86360000D03*
X104065218Y-86360000D03*
D18*
X116235000Y-73701000D03*
X115585000Y-73701000D03*
X114935000Y-73701000D03*
X114285000Y-73701000D03*
X113635000Y-73701000D03*
D19*
X112510000Y-73181000D03*
X117360000Y-73181000D03*
D20*
X116435000Y-69201000D03*
X113435000Y-69201000D03*
D21*
X111310000Y-70501000D03*
X118560000Y-70501000D03*
D13*
X130556000Y-91638000D03*
X130556000Y-90678000D03*
D10*
X109880000Y-92588000D03*
X116180000Y-92588000D03*
X116180000Y-96388000D03*
X109880000Y-96388000D03*
D16*
X118874000Y-85852000D03*
X117854000Y-85852000D03*
D15*
X165608000Y-72136000D03*
X165608000Y-71116000D03*
X164084000Y-72138000D03*
X164084000Y-71118000D03*
D22*
X113616500Y-86172000D03*
X113616500Y-88072000D03*
X115491500Y-87122000D03*
D23*
X122185000Y-83507500D03*
X122835000Y-83507500D03*
X123485000Y-83507500D03*
X124135000Y-83507500D03*
X124785000Y-83507500D03*
X125435000Y-83507500D03*
X126085000Y-83507500D03*
X126735000Y-83507500D03*
X126735000Y-77782500D03*
X126085000Y-77782500D03*
X125435000Y-77782500D03*
X124785000Y-77782500D03*
X124135000Y-77782500D03*
X123485000Y-77782500D03*
X122835000Y-77782500D03*
X122185000Y-77782500D03*
D10*
X156795000Y-73670000D03*
X150495000Y-73670000D03*
X156795000Y-77470000D03*
X150495000Y-77470000D03*
X160020000Y-86995000D03*
X160020000Y-83195000D03*
X166320000Y-83195000D03*
X166320000Y-86995000D03*
D11*
X105640218Y-90805000D03*
X104065218Y-90805000D03*
D24*
X119465000Y-79220000D03*
X119465000Y-78260000D03*
D12*
X143813000Y-88905000D03*
X144833000Y-88905000D03*
D25*
X125730000Y-73025000D03*
D26*
X125730000Y-70485000D03*
X128270000Y-73025000D03*
X128270000Y-70485000D03*
X130810000Y-73025000D03*
X130810000Y-70485000D03*
D15*
X161036000Y-72136000D03*
X161036000Y-71116000D03*
D27*
X132408000Y-89370000D03*
D28*
X132408000Y-89770000D03*
X132408000Y-90170000D03*
X132408000Y-90570000D03*
D29*
X132408000Y-90970000D03*
D30*
X133058000Y-91620000D03*
D31*
X133458000Y-91620000D03*
X133858000Y-91620000D03*
X134258000Y-91620000D03*
D32*
X134658000Y-91620000D03*
D33*
X135308000Y-90970000D03*
D28*
X135308000Y-90570000D03*
X135308000Y-90170000D03*
X135308000Y-89770000D03*
D34*
X135308000Y-89370000D03*
D35*
X134658000Y-88720000D03*
D31*
X134258000Y-88720000D03*
X133858000Y-88720000D03*
X133458000Y-88720000D03*
D36*
X133058000Y-88720000D03*
D37*
X133858000Y-90170000D03*
D10*
X156795000Y-92720000D03*
X150495000Y-92720000D03*
X150495000Y-96520000D03*
X156795000Y-96520000D03*
D16*
X102187718Y-86360000D03*
X101167718Y-86360000D03*
D13*
X120650000Y-73505000D03*
X120650000Y-72545000D03*
D15*
X162560000Y-72136000D03*
X162560000Y-71116000D03*
D38*
X111760000Y-78740000D03*
X111760000Y-80010000D03*
X111760000Y-81280000D03*
X111760000Y-82550000D03*
X117010000Y-82550000D03*
X117010000Y-81280000D03*
X117010000Y-80010000D03*
X117010000Y-78740000D03*
D16*
X102187718Y-95250000D03*
X101167718Y-95250000D03*
D39*
X122075000Y-75565000D03*
X123035000Y-75565000D03*
D14*
X152857500Y-71125000D03*
X154432500Y-71125000D03*
D40*
X102380000Y-69780000D03*
X100170000Y-69780000D03*
X100170000Y-80080000D03*
X102380000Y-80080000D03*
D41*
X103030000Y-71930000D03*
X103030000Y-73430000D03*
X103030000Y-76430000D03*
X103030000Y-77930000D03*
D25*
X136540000Y-73030000D03*
D26*
X136540000Y-70490000D03*
X139080000Y-73030000D03*
X139080000Y-70490000D03*
X141620000Y-73030000D03*
X141620000Y-70490000D03*
D17*
X132080000Y-95504000D03*
D12*
X153135000Y-79380000D03*
X154155000Y-79380000D03*
D27*
X132408000Y-79464000D03*
D28*
X132408000Y-79864000D03*
X132408000Y-80264000D03*
X132408000Y-80664000D03*
D29*
X132408000Y-81064000D03*
D30*
X133058000Y-81714000D03*
D31*
X133458000Y-81714000D03*
X133858000Y-81714000D03*
X134258000Y-81714000D03*
D32*
X134658000Y-81714000D03*
D33*
X135308000Y-81064000D03*
D28*
X135308000Y-80664000D03*
X135308000Y-80264000D03*
X135308000Y-79864000D03*
D34*
X135308000Y-79464000D03*
D35*
X134658000Y-78814000D03*
D31*
X134258000Y-78814000D03*
X133858000Y-78814000D03*
X133458000Y-78814000D03*
D36*
X133058000Y-78814000D03*
D37*
X133858000Y-80264000D03*
D12*
X162660000Y-88905000D03*
X163680000Y-88905000D03*
D42*
X121666000Y-90678000D03*
X126492000Y-88138000D03*
X122428000Y-88138000D03*
X127254000Y-90069500D03*
X125730000Y-90678000D03*
X131318000Y-85344000D03*
X129540000Y-84836000D03*
X134112000Y-85852000D03*
X142748000Y-93726000D03*
X149860000Y-82804000D03*
X144018000Y-76454000D03*
X160528000Y-80772000D03*
X146050000Y-77470000D03*
X136652000Y-89662000D03*
X136906000Y-86360000D03*
X134620000Y-84836000D03*
X139700000Y-84836000D03*
X137414000Y-76200000D03*
X122936000Y-72898000D03*
X105156000Y-80264000D03*
X118618000Y-84328000D03*
X165354000Y-88900000D03*
X109474000Y-80772000D03*
X123698000Y-81915000D03*
X145288000Y-96012000D03*
X119126000Y-76708000D03*
X126746000Y-81788000D03*
X155956000Y-79502000D03*
X109728000Y-89916000D03*
X108204000Y-84582000D03*
X130429000Y-79502000D03*
X146558000Y-88900000D03*
X128778000Y-87630000D03*
X129032000Y-91694000D03*
X131064000Y-87630000D03*
X144018000Y-91567000D03*
X148082000Y-91567000D03*
X145923000Y-90297000D03*
X149733000Y-90297000D03*
X141351000Y-80645000D03*
X123952000Y-87122000D03*
X106934000Y-87884000D03*
X103124000Y-88646000D03*
X129794000Y-75692000D03*
X137160000Y-82296000D03*
X124714000Y-75692000D03*
X118364000Y-96520000D03*
X131826000Y-86614000D03*
X128016000Y-85090000D03*
X128016000Y-80264000D03*
X131572000Y-77216000D03*
X121920000Y-85598000D03*
X142113000Y-75565000D03*
X139319000Y-86360000D03*
X111760000Y-76962000D03*
X125984000Y-79502000D03*
X139446000Y-81534000D03*
X131064000Y-92964000D03*
X131572000Y-83820000D03*
X136652000Y-93980000D03*
X137668000Y-90170000D03*
X138938000Y-90932000D03*
X137922000Y-94742000D03*
D43*
X134150000Y-93256000D02*
X132296000Y-93256000D01*
X131318000Y-94234000D02*
X125984000Y-94234000D01*
X125222000Y-93472000D02*
X125222000Y-91186000D01*
X132296000Y-93256000D02*
X131318000Y-94234000D01*
X125984000Y-94234000D02*
X125222000Y-93472000D01*
X125222000Y-91186000D02*
X125730000Y-90678000D01*
X127862500Y-90678000D02*
X127254000Y-90069500D01*
X138138000Y-79464000D02*
X135308000Y-79464000D01*
X152857500Y-71125000D02*
X149855000Y-71125000D01*
X149855000Y-71125000D02*
X147828000Y-73152000D01*
X147828000Y-73152000D02*
X147828000Y-77724000D01*
X147066000Y-78486000D02*
X140970000Y-78486000D01*
X147828000Y-77724000D02*
X147066000Y-78486000D01*
X140970000Y-78486000D02*
X139992000Y-79464000D01*
X139992000Y-79464000D02*
X138138000Y-79464000D01*
D44*
X125730000Y-70485000D02*
X124460000Y-71755000D01*
X124460000Y-71755000D02*
X122555000Y-71755000D01*
D43*
X120675000Y-91669000D02*
X121666000Y-90678000D01*
X121666000Y-90678000D02*
X123044000Y-89300000D01*
X120675000Y-92588000D02*
X120675000Y-91669000D01*
X123044000Y-89300000D02*
X130956000Y-89300000D01*
X130956000Y-89300000D02*
X131426000Y-89770000D01*
X131426000Y-89770000D02*
X132408000Y-89770000D01*
X126492000Y-88138000D02*
X122428000Y-88138000D01*
X122835000Y-83507500D02*
X122835000Y-87731000D01*
X122835000Y-87731000D02*
X122428000Y-88138000D01*
X126746000Y-88900000D02*
X122936000Y-88900000D01*
X122936000Y-88900000D02*
X119868000Y-88900000D01*
X119868000Y-88900000D02*
X116180000Y-92588000D01*
X131788000Y-89370000D02*
X131318000Y-88900000D01*
X131318000Y-88900000D02*
X126746000Y-88900000D01*
X130556000Y-90678000D02*
X127862500Y-90678000D01*
X133058000Y-83604000D02*
X133058000Y-81714000D01*
X131318000Y-85344000D02*
X133058000Y-83604000D01*
X129540000Y-78994000D02*
X129540000Y-84836000D01*
X133780630Y-93256000D02*
X134150000Y-93256000D01*
X134150000Y-93256000D02*
X140678000Y-93256000D01*
X133946315Y-92856000D02*
X144926000Y-92856000D01*
X133458000Y-85198000D02*
X134112000Y-85852000D01*
X133458000Y-81714000D02*
X133458000Y-85198000D01*
X144926000Y-92856000D02*
X150359000Y-92856000D01*
X142748000Y-93726000D02*
X143618000Y-92856000D01*
X143618000Y-92856000D02*
X144926000Y-92856000D01*
X149860000Y-82804000D02*
X149860000Y-90170000D01*
X149860000Y-90170000D02*
X149733000Y-90297000D01*
X139446000Y-77724000D02*
X140462000Y-76708000D01*
X134853025Y-77724000D02*
X138938000Y-77724000D01*
X138938000Y-77724000D02*
X139446000Y-77724000D01*
X140462000Y-76708000D02*
X140716000Y-76454000D01*
X140716000Y-76454000D02*
X144018000Y-76454000D01*
X144780000Y-77470000D02*
X146050000Y-77470000D01*
X162260500Y-80772000D02*
X162382500Y-80650000D01*
X160528000Y-80772000D02*
X162260500Y-80772000D01*
X138576000Y-84690000D02*
X137922000Y-85344000D01*
X138684000Y-80010000D02*
X138684000Y-84582000D01*
X138684000Y-84582000D02*
X137922000Y-85344000D01*
X137922000Y-85344000D02*
X136906000Y-86360000D01*
X138138000Y-79464000D02*
X138684000Y-80010000D01*
X136652000Y-89662000D02*
X136360000Y-89370000D01*
X136360000Y-89370000D02*
X135308000Y-89370000D01*
X134366000Y-84836000D02*
X134620000Y-84836000D01*
X133858000Y-81714000D02*
X133858000Y-84328000D01*
X133858000Y-84328000D02*
X134366000Y-84836000D01*
X139700000Y-84836000D02*
X141173000Y-83363000D01*
X131826000Y-86614000D02*
X134620000Y-86614000D01*
X138176000Y-81280000D02*
X137560000Y-80664000D01*
X134620000Y-86614000D02*
X138176000Y-83058000D01*
X138176000Y-83058000D02*
X138176000Y-81280000D01*
X137560000Y-80664000D02*
X135308000Y-80664000D01*
X134366000Y-76200000D02*
X137414000Y-76200000D01*
X134258000Y-78814000D02*
X134258000Y-78319025D01*
X134258000Y-78319025D02*
X134853025Y-77724000D01*
X140970000Y-77470000D02*
X144780000Y-77470000D01*
X134658000Y-78814000D02*
X139626000Y-78814000D01*
X139626000Y-78814000D02*
X140970000Y-77470000D01*
X150495000Y-73670000D02*
X149342000Y-73670000D01*
X149342000Y-73670000D02*
X148590000Y-74422000D01*
X148590000Y-74422000D02*
X148590000Y-78486000D01*
X148590000Y-78486000D02*
X147828000Y-79248000D01*
X147828000Y-79248000D02*
X140990000Y-79248000D01*
X140990000Y-79248000D02*
X139446000Y-80792000D01*
X139446000Y-80792000D02*
X139446000Y-81534000D01*
D44*
X136540000Y-70490000D02*
X137805000Y-71755000D01*
X137805000Y-71755000D02*
X145161000Y-71755000D01*
X145161000Y-71755000D02*
X147066000Y-69850000D01*
X156718000Y-69850000D02*
X157986000Y-71118000D01*
X147066000Y-69850000D02*
X156718000Y-69850000D01*
X157986000Y-71118000D02*
X165608000Y-71118000D01*
X163957500Y-80650000D02*
X165608000Y-78999500D01*
X165608000Y-78999500D02*
X165608000Y-72136000D01*
X164084000Y-72138000D02*
X164084000Y-75692000D01*
X164084000Y-75692000D02*
X154432500Y-85343500D01*
X154432500Y-85343500D02*
X154432500Y-90175000D01*
D43*
X145110500Y-80650000D02*
X146248500Y-81788000D01*
X146248500Y-81788000D02*
X156464000Y-81788000D01*
X156464000Y-81788000D02*
X162560000Y-75692000D01*
X162560000Y-75692000D02*
X162560000Y-72136000D01*
D44*
X161036000Y-72136000D02*
X155443500Y-72136000D01*
X155443500Y-72136000D02*
X154432500Y-71125000D01*
D43*
X132408000Y-90170000D02*
X131064000Y-90170000D01*
D44*
X147190000Y-94110000D02*
X145288000Y-96012000D01*
X148336000Y-94110000D02*
X147190000Y-94110000D01*
D43*
X132408000Y-80264000D02*
X131699000Y-80264000D01*
D44*
X119465000Y-83030000D02*
X119465000Y-83481000D01*
X155834000Y-79380000D02*
X155956000Y-79502000D01*
X103030000Y-77930000D02*
X105156000Y-80056000D01*
D43*
X130556000Y-80673000D02*
X130556000Y-79629000D01*
D44*
X163680000Y-88905000D02*
X165349000Y-88905000D01*
X109982000Y-81280000D02*
X109474000Y-80772000D01*
X117735000Y-70501000D02*
X116435000Y-69201000D01*
X123485000Y-83507500D02*
X123485000Y-82128000D01*
D43*
X122936000Y-75466000D02*
X122936000Y-72898000D01*
X131699000Y-80264000D02*
X131572000Y-80391000D01*
X123035000Y-75565000D02*
X122936000Y-75466000D01*
D44*
X154155000Y-79380000D02*
X155834000Y-79380000D01*
X125435000Y-83507500D02*
X126735000Y-83507500D01*
D43*
X131290000Y-80673000D02*
X131572000Y-80391000D01*
D44*
X126085000Y-83507500D02*
X126085000Y-82449000D01*
X117996000Y-72545000D02*
X117360000Y-73181000D01*
D43*
X132408000Y-80264000D02*
X133858000Y-80264000D01*
D44*
X108206000Y-84584000D02*
X108204000Y-84582000D01*
X119465000Y-77047000D02*
X119126000Y-76708000D01*
X109728000Y-87250000D02*
X109728000Y-89916000D01*
X117360000Y-73181000D02*
X117360000Y-71701000D01*
X146553000Y-88905000D02*
X146558000Y-88900000D01*
D43*
X131064000Y-90170000D02*
X130556000Y-90678000D01*
D44*
X118560000Y-70501000D02*
X111310000Y-70501000D01*
X105156000Y-80056000D02*
X105156000Y-80264000D01*
X111760000Y-81280000D02*
X109982000Y-81280000D01*
D43*
X130556000Y-80673000D02*
X131290000Y-80673000D01*
X130556000Y-79629000D02*
X130429000Y-79502000D01*
D44*
X144833000Y-88905000D02*
X146553000Y-88905000D01*
X118560000Y-70501000D02*
X117735000Y-70501000D01*
X126085000Y-82449000D02*
X126746000Y-81788000D01*
X165349000Y-88905000D02*
X165354000Y-88900000D01*
X113635000Y-73701000D02*
X113030000Y-73701000D01*
X109726000Y-87248000D02*
X109728000Y-87250000D01*
X123485000Y-82128000D02*
X123698000Y-81915000D01*
X117360000Y-71701000D02*
X118560000Y-70501000D01*
X120650000Y-72545000D02*
X117996000Y-72545000D01*
X109726000Y-84584000D02*
X108206000Y-84584000D01*
X119465000Y-78260000D02*
X119465000Y-77047000D01*
X119465000Y-83481000D02*
X118618000Y-84328000D01*
X113030000Y-73701000D02*
X112510000Y-73181000D01*
X111310000Y-70501000D02*
X112135000Y-70501000D01*
X112135000Y-70501000D02*
X113435000Y-69201000D01*
D43*
X132408000Y-90170000D02*
X133858000Y-90170000D01*
D44*
X115570000Y-81788000D02*
X115570000Y-78105000D01*
D43*
X131624000Y-90570000D02*
X130556000Y-91638000D01*
D44*
X122555000Y-71755000D02*
X122407609Y-71755000D01*
X116332000Y-82550000D02*
X115570000Y-81788000D01*
X121128000Y-74618000D02*
X119068000Y-74618000D01*
X122185000Y-76465000D02*
X122185000Y-75675000D01*
X127244695Y-87630000D02*
X128778000Y-87630000D01*
X126502000Y-80889000D02*
X126502000Y-80528000D01*
X118830000Y-82550000D02*
X117010000Y-82550000D01*
D43*
X132408000Y-90570000D02*
X131624000Y-90570000D01*
D44*
X120650000Y-73505000D02*
X119537000Y-74618000D01*
D43*
X130944025Y-81633000D02*
X131913025Y-80664000D01*
D44*
X119537000Y-74618000D02*
X119068000Y-74618000D01*
X122075000Y-75565000D02*
X121128000Y-74618000D01*
X116235000Y-73701000D02*
X116235000Y-72651000D01*
X119465000Y-82070000D02*
X119310000Y-82070000D01*
X112570000Y-71930000D02*
X112572800Y-71932800D01*
X117010000Y-82550000D02*
X115994000Y-83566000D01*
X129032000Y-91694000D02*
X130500000Y-91694000D01*
X115516800Y-71932800D02*
X112572800Y-71932800D01*
X122407609Y-71755000D02*
X120657609Y-73505000D01*
X117010000Y-82550000D02*
X116332000Y-82550000D01*
X103961718Y-83566000D02*
X101167718Y-86360000D01*
X136540000Y-70490000D02*
X135275000Y-71755000D01*
X103030000Y-71930000D02*
X112570000Y-71930000D01*
X119310000Y-82070000D02*
X118830000Y-82550000D01*
X122185000Y-77782500D02*
X122185000Y-76465000D01*
X122185000Y-75675000D02*
X122075000Y-75565000D01*
D43*
X131913025Y-80664000D02*
X132408000Y-80664000D01*
D44*
X135275000Y-71755000D02*
X122555000Y-71755000D01*
X124785000Y-83507500D02*
X124785000Y-82606000D01*
X126502000Y-80528000D02*
X136540000Y-70490000D01*
X124785000Y-85170305D02*
X127244695Y-87630000D01*
X116235000Y-72651000D02*
X115516800Y-71932800D01*
X120657609Y-73505000D02*
X120650000Y-73505000D01*
D43*
X130556000Y-87122000D02*
X131064000Y-87630000D01*
X130556000Y-81633000D02*
X130556000Y-87122000D01*
D44*
X124785000Y-82606000D02*
X126502000Y-80889000D01*
X115570000Y-78105000D02*
X116235000Y-77440000D01*
X119068000Y-74618000D02*
X117798000Y-74618000D01*
D43*
X130556000Y-81633000D02*
X130944025Y-81633000D01*
D44*
X101167718Y-86360000D02*
X101167718Y-95250000D01*
X116235000Y-77440000D02*
X116235000Y-73701000D01*
X116235000Y-73701000D02*
X117152000Y-74618000D01*
X124785000Y-83507500D02*
X124785000Y-85170305D01*
X117798000Y-74618000D02*
X117152000Y-74618000D01*
X130500000Y-91694000D02*
X130556000Y-91638000D01*
X115994000Y-83566000D02*
X103961718Y-83566000D01*
X118830000Y-78740000D02*
X117010000Y-78740000D01*
X119465000Y-79220000D02*
X119310000Y-79220000D01*
X119310000Y-79220000D02*
X118830000Y-78740000D01*
X118617000Y-87629000D02*
X117854000Y-88392000D01*
X117854000Y-88392000D02*
X113936500Y-88392000D01*
X113936500Y-88392000D02*
X113616500Y-88072000D01*
X122185000Y-83507500D02*
X122185000Y-84061000D01*
X122185000Y-84061000D02*
X118617000Y-87629000D01*
X117854000Y-85852000D02*
X116761500Y-85852000D01*
X116761500Y-85852000D02*
X115491500Y-87122000D01*
D43*
X134658000Y-88720000D02*
X137869000Y-88720000D01*
X137922000Y-88773000D02*
X140716000Y-91567000D01*
X158623000Y-91567000D02*
X162382500Y-87807500D01*
X137869000Y-88720000D02*
X137922000Y-88773000D01*
X148082000Y-91567000D02*
X158623000Y-91567000D01*
X140716000Y-91567000D02*
X144018000Y-91567000D01*
X162382500Y-87807500D02*
X162382500Y-80650000D01*
X152735500Y-90297000D02*
X152857500Y-90175000D01*
X140462000Y-90297000D02*
X145923000Y-90297000D01*
X138430000Y-88265000D02*
X140462000Y-90297000D01*
X134258000Y-88720000D02*
X134258000Y-88225025D01*
X134258000Y-88225025D02*
X134472025Y-88011000D01*
X149733000Y-90297000D02*
X152735500Y-90297000D01*
X134472025Y-88011000D02*
X138176000Y-88011000D01*
X138176000Y-88011000D02*
X138430000Y-88265000D01*
X141980000Y-88138000D02*
X138938000Y-88138000D01*
X133858000Y-76708000D02*
X134366000Y-76200000D01*
X143535500Y-80650000D02*
X143535500Y-86582500D01*
X134306340Y-87611000D02*
X134136170Y-87781170D01*
X133858000Y-88059339D02*
X134136170Y-87781170D01*
X133858000Y-78814000D02*
X133858000Y-76708000D01*
X133858000Y-88720000D02*
X133858000Y-88059339D01*
X141351000Y-80645000D02*
X143530500Y-80645000D01*
X138938000Y-88138000D02*
X138411000Y-87611000D01*
X138411000Y-87611000D02*
X134306340Y-87611000D01*
X143530500Y-80645000D02*
X143535500Y-80650000D01*
X143535500Y-86582500D02*
X141980000Y-88138000D01*
X134136170Y-87781170D02*
X134249339Y-87668000D01*
D44*
X105640218Y-86590218D02*
X106934000Y-87884000D01*
X124135000Y-86939000D02*
X124135000Y-83507500D01*
X105640218Y-86360000D02*
X105640218Y-86590218D01*
X123952000Y-87122000D02*
X124135000Y-86939000D01*
X102187718Y-86360000D02*
X104065218Y-86360000D01*
D43*
X124714000Y-75692000D02*
X129794000Y-75692000D01*
X105640218Y-90805000D02*
X103481218Y-88646000D01*
X137160000Y-82296000D02*
X135928000Y-81064000D01*
X124714000Y-75692000D02*
X124785000Y-75763000D01*
X135928000Y-81064000D02*
X135308000Y-81064000D01*
X103481218Y-88646000D02*
X103124000Y-88646000D01*
X124785000Y-75763000D02*
X124785000Y-77782500D01*
D44*
X104065218Y-90805000D02*
X102187718Y-90805000D01*
D43*
X117856000Y-98044000D02*
X116332000Y-98044000D01*
X116332000Y-98044000D02*
X106934000Y-98044000D01*
X118364000Y-97536000D02*
X117856000Y-98044000D01*
X106934000Y-98044000D02*
X105640218Y-96750218D01*
X118364000Y-96520000D02*
X118364000Y-97536000D01*
X105640218Y-96750218D02*
X105640218Y-95250000D01*
D44*
X102187718Y-95250000D02*
X104065218Y-95250000D01*
X115585000Y-73701000D02*
X115585000Y-76820000D01*
X112395000Y-80010000D02*
X111760000Y-80010000D01*
X115585000Y-76820000D02*
X112395000Y-80010000D01*
X114935000Y-73701000D02*
X114935000Y-75565000D01*
X114935000Y-75565000D02*
X111760000Y-78740000D01*
D43*
X133458000Y-78814000D02*
X133458000Y-78319025D01*
X128016000Y-85090000D02*
X128016000Y-80264000D01*
X133458000Y-78319025D02*
X132354975Y-77216000D01*
X119126000Y-88392000D02*
X121920000Y-85598000D01*
X118874000Y-88392000D02*
X119126000Y-88392000D01*
X132354975Y-77216000D02*
X131572000Y-77216000D01*
X138341000Y-87211000D02*
X139192000Y-86360000D01*
X133458001Y-87893653D02*
X134140655Y-87211000D01*
X133458000Y-88720000D02*
X133458000Y-88119000D01*
X139192000Y-86360000D02*
X139319000Y-86360000D01*
X133458000Y-88119000D02*
X133458001Y-87893653D01*
X134140655Y-87211000D02*
X138341000Y-87211000D01*
X142113000Y-75565000D02*
X139075000Y-75565000D01*
X139075000Y-75565000D02*
X136540000Y-73030000D01*
D44*
X120777000Y-84074000D02*
X118999000Y-85852000D01*
X118999000Y-85852000D02*
X118874000Y-85852000D01*
X124135000Y-79701396D02*
X120777000Y-83059396D01*
X120777000Y-83059396D02*
X120777000Y-84074000D01*
X124135000Y-77782500D02*
X124135000Y-79701396D01*
X103030000Y-76430000D02*
X111228000Y-76430000D01*
X126085000Y-77782500D02*
X126085000Y-79401000D01*
X111228000Y-76430000D02*
X111760000Y-76962000D01*
X103430000Y-76430000D02*
X106805000Y-79805000D01*
X126735000Y-77782500D02*
X125435000Y-77782500D01*
X126085000Y-79401000D02*
X125984000Y-79502000D01*
X106805000Y-79805000D02*
X106805000Y-81915000D01*
X103030000Y-76430000D02*
X103430000Y-76430000D01*
X108460000Y-82550000D02*
X107825000Y-81915000D01*
X111760000Y-82550000D02*
X108460000Y-82550000D01*
X152405000Y-79380000D02*
X150495000Y-77470000D01*
X153135000Y-79380000D02*
X152405000Y-79380000D01*
X164570000Y-86995000D02*
X166320000Y-86995000D01*
X162660000Y-88905000D02*
X164570000Y-86995000D01*
X149726000Y-96520000D02*
X150495000Y-96520000D01*
X150495000Y-96520000D02*
X156795000Y-96520000D01*
X148336000Y-95130000D02*
X149726000Y-96520000D01*
X145161000Y-86995000D02*
X147473000Y-86995000D01*
X143813000Y-88905000D02*
X143813000Y-88343000D01*
X143813000Y-88343000D02*
X145161000Y-86995000D01*
X111506000Y-88008000D02*
X111506000Y-96012000D01*
X110746000Y-87248000D02*
X111506000Y-88008000D01*
X111506000Y-96012000D02*
X111130000Y-96388000D01*
X111130000Y-96388000D02*
X109880000Y-96388000D01*
X112268000Y-86106000D02*
X112268000Y-91948000D01*
X116713000Y-94742000D02*
X119029000Y-94742000D01*
D43*
X120675000Y-96388000D02*
X120675000Y-96495000D01*
D44*
X119029000Y-94742000D02*
X120675000Y-96388000D01*
X115062000Y-94742000D02*
X116713000Y-94742000D01*
D43*
X120675000Y-96495000D02*
X120782000Y-96388000D01*
D44*
X110746000Y-84584000D02*
X112268000Y-86106000D01*
X112268000Y-91948000D02*
X115062000Y-94742000D01*
D43*
X132408000Y-90970000D02*
X132408000Y-91620000D01*
X131572000Y-83820000D02*
X131572000Y-81900000D01*
X131318000Y-92710000D02*
X131064000Y-92964000D01*
X131572000Y-81900000D02*
X132408000Y-81064000D01*
X132408000Y-91620000D02*
X131318000Y-92710000D01*
X140678000Y-93256000D02*
X145466000Y-98044000D01*
X145466000Y-98044000D02*
X158242000Y-98044000D01*
X167894000Y-84769000D02*
X166320000Y-83195000D01*
X167894000Y-88392000D02*
X167894000Y-84769000D01*
X158242000Y-98044000D02*
X167894000Y-88392000D01*
X133058000Y-91620000D02*
X133058001Y-92533372D01*
X133058001Y-92533372D02*
X133780630Y-93256000D01*
X133458000Y-92367686D02*
X133946315Y-92856000D01*
X150359000Y-92856000D02*
X150495000Y-92720000D01*
X133458000Y-91620000D02*
X133458000Y-92367686D01*
X133858000Y-91620000D02*
X133858000Y-92202000D01*
X134112000Y-92456000D02*
X145542000Y-92456000D01*
X133858000Y-92202000D02*
X134112000Y-92456000D01*
X149352000Y-88646000D02*
X149352000Y-84328000D01*
X148219000Y-83195000D02*
X147473000Y-83195000D01*
X145542000Y-92456000D02*
X149352000Y-88646000D01*
X149352000Y-84328000D02*
X148219000Y-83195000D01*
X128778000Y-79190314D02*
X129628314Y-78340000D01*
X129628314Y-78340000D02*
X131284000Y-78340000D01*
X132408000Y-89370000D02*
X131788000Y-89370000D01*
X128778000Y-86360000D02*
X128778000Y-79190314D01*
X131284000Y-78340000D02*
X132408000Y-79464000D01*
X131788000Y-89370000D02*
X128778000Y-86360000D01*
X132408000Y-79864000D02*
X131913025Y-79864000D01*
X129794000Y-78740000D02*
X129540000Y-78994000D01*
X131913025Y-79864000D02*
X130789025Y-78740000D01*
X130789025Y-78740000D02*
X129794000Y-78740000D01*
X137268000Y-90570000D02*
X137668000Y-90170000D01*
X136652000Y-93980000D02*
X133604000Y-93980000D01*
X133604000Y-93980000D02*
X132080000Y-95504000D01*
X135308000Y-90570000D02*
X137268000Y-90570000D01*
X135308000Y-90970000D02*
X138900000Y-90970000D01*
X137160000Y-95504000D02*
X134620000Y-95504000D01*
X137922000Y-94742000D02*
X137160000Y-95504000D01*
X138900000Y-90970000D02*
X138938000Y-90932000D01*
D44*
X117010000Y-81280000D02*
X121920000Y-81280000D01*
X121920000Y-81280000D02*
X123485000Y-79715000D01*
X123485000Y-79715000D02*
X123485000Y-77782500D01*
X122835000Y-78471041D02*
X122835000Y-77782500D01*
X117010000Y-80010000D02*
X121296041Y-80010000D01*
X121296041Y-80010000D02*
X122835000Y-78471041D01*
M02*
